<svg width="67" height="67" viewBox="0 0 67 67" fill="none" xmlns="http://www.w3.org/2000/svg">
<path d="M21.8705 31.6055L22.0123 34.6015C22.1773 38.0929 22.0788 41.5307 21.1084 44.3236L20.3184 46.5976L22.5891 45.799C25.377 44.8185 28.8132 44.7312 32.3074 44.8964L35.3032 45.0382L21.8705 31.6055ZM24.3943 37.4105L29.4959 42.5121C27.5806 42.5175 25.6764 42.6542 23.855 43.0497C24.2474 41.2299 24.3867 39.3263 24.3943 37.4105Z" fill="#4DABFE"/>
<path d="M16.6583 45.4414L14.6532 47.4468L19.4484 52.242L21.4537 50.2369L16.6583 45.4414ZM5.71433 56.3856L3.70898 58.3909L8.5042 63.1862L10.5095 61.1808L5.71433 56.3856Z" fill="#4DABFE"/>
<path d="M42.1782 8.51368C41.3023 8.51341 40.425 8.84251 39.7587 9.49911C38.4157 10.8227 38.4377 13.0082 39.7469 14.3366C41.0704 15.6796 43.2559 15.6579 44.5844 14.3487C45.9234 13.0291 45.9198 10.8345 44.5904 9.50514C43.929 8.84368 43.0542 8.51395 42.1782 8.51368ZM42.1747 10.8224C42.4557 10.8221 42.7346 10.9308 42.9496 11.1459C43.3992 11.5955 43.3956 12.2626 42.9557 12.6961C42.5052 13.14 41.8291 13.1438 41.3995 12.7079C40.9556 12.2575 40.9515 11.5813 41.3874 11.1517C41.6106 10.9318 41.8937 10.8227 42.1747 10.8224ZM51.7686 11.7104C50.8927 11.7101 50.0156 12.0395 49.3494 12.6961C48.0114 14.0147 48.0145 16.2067 49.3408 17.5364C50.6596 18.8709 52.8485 18.8674 54.1771 17.5427C55.5135 16.2228 55.5093 14.0304 54.1809 12.7019C53.5194 12.0404 52.6446 11.7107 51.7686 11.7104ZM51.7651 14.0194C52.0461 14.0191 52.3252 14.1276 52.5403 14.3427C52.9899 14.7922 52.9863 15.4593 52.5464 15.8928L52.5434 15.8958L52.5403 15.8988C52.0908 16.3484 51.4235 16.3448 50.9899 15.9049L50.9872 15.9019L50.9842 15.8989C50.5346 15.4493 50.5382 14.7822 50.9781 14.3487C51.2013 14.1287 51.4842 14.0197 51.7651 14.0194ZM35.7777 14.9104C34.8993 14.9104 34.0213 15.2447 33.3602 15.9117C32.0277 17.2309 32.0319 19.4183 33.3565 20.7462C34.6753 22.0808 36.8641 22.0773 38.1927 20.7525C39.5281 19.4336 39.5245 17.2437 38.199 15.915C37.5376 15.2456 36.6578 14.9104 35.7777 14.9104ZM35.7777 17.2196C36.0564 17.2196 36.3351 17.3285 36.5499 17.5464L36.5529 17.5494L36.5559 17.5525C37.0055 18.002 37.0019 18.6691 36.562 19.1026L36.559 19.1056L36.556 19.1086C36.1064 19.5582 35.4391 19.5546 35.0056 19.1147L35.0028 19.1117L34.9998 19.1087C34.5502 18.6591 34.5538 17.992 34.9937 17.5585L34.9998 17.5525L35.0056 17.5464C35.2203 17.3285 35.4991 17.2196 35.7777 17.2196ZM45.375 18.1109C44.4965 18.1106 43.6173 18.4435 42.9529 19.1061C41.6132 20.43 41.6355 22.6128 42.9436 23.9401C44.2672 25.2831 46.4527 25.2614 47.7811 23.9522C49.1191 22.6336 49.1161 20.4416 47.7897 19.1119C47.1302 18.4446 46.2533 18.1112 45.375 18.1109ZM45.3714 20.4128C45.6486 20.4126 45.9238 20.5235 46.1406 20.7434L46.1436 20.7464L46.1464 20.7494C46.5959 21.199 46.5923 21.8661 46.1524 22.2996C45.702 22.7435 45.0258 22.7473 44.5962 22.3114C44.1523 21.861 44.1485 21.1848 44.5844 20.7552L44.5874 20.7522L44.5904 20.7494C44.8152 20.5247 45.0943 20.4131 45.3714 20.4128ZM54.9654 21.3079C54.0886 21.3081 53.2135 21.6405 52.5544 22.3054C51.2219 23.6246 51.2261 25.812 52.5507 27.1399C53.8745 28.4796 56.0573 28.4571 57.3846 27.1489C58.7237 25.8293 58.72 23.6347 57.3907 22.3054C56.726 21.6407 55.8451 21.3076 54.9654 21.3079ZM29.3853 21.3144C28.5091 21.3159 27.6336 21.647 26.9713 22.2996C25.6283 23.6231 25.65 25.8087 26.9592 27.1371C28.2828 28.4801 30.4683 28.4581 31.7968 27.1489C33.1358 25.8293 33.1322 23.6347 31.8028 22.3054C31.1381 21.6407 30.2615 21.3129 29.3853 21.3144ZM54.9689 23.6096C55.2461 23.6098 55.5251 23.7214 55.7499 23.9462C56.1995 24.3957 56.1958 25.0628 55.7559 25.4963C55.3055 25.9402 54.6293 25.9443 54.1998 25.5084L54.1967 25.5054L54.194 25.5024C53.7444 25.0528 53.748 24.3857 54.1879 23.9522L54.194 23.9462L54.1998 23.9401C54.4165 23.7202 54.6917 23.6093 54.9689 23.6096ZM29.3828 23.6126C29.6603 23.6109 29.9372 23.7214 30.162 23.9462C30.6116 24.3957 30.6079 25.0628 30.1681 25.4963C29.7176 25.9402 29.0414 25.9443 28.6119 25.5084C28.1679 25.0579 28.1641 24.3818 28.6 23.9522C28.8273 23.7283 29.1052 23.6143 29.3828 23.6126ZM38.9813 24.5048C38.1028 24.5046 37.2236 24.8371 36.5592 25.4998C35.2245 26.8188 35.2281 29.008 36.5534 30.3366C37.8773 31.6763 40.0601 31.6541 41.3874 30.3459C42.7254 29.0273 42.7224 26.8353 41.396 25.5056C40.7365 24.8383 39.8596 24.5051 38.9813 24.5048ZM38.9777 26.8065C39.2549 26.8063 39.5301 26.9172 39.7469 27.1371L39.7497 27.1401L39.7527 27.1431C40.2022 27.5927 40.1986 28.2598 39.7587 28.6933C39.3083 29.1372 38.6321 29.1413 38.2025 28.7054L38.1995 28.7023L38.1965 28.6993C37.747 28.2498 37.7506 27.5824 38.1905 27.1489L38.1935 27.1462L38.1965 27.1431C38.4213 26.9184 38.7006 26.8068 38.9777 26.8065ZM48.5719 27.7016C47.6935 27.7013 46.814 28.0341 46.1497 28.6968C44.8151 30.0156 44.8186 32.2044 46.1434 33.5331C47.4672 34.8734 49.6505 34.8512 50.9781 33.5429C52.316 32.2244 52.313 30.0328 50.9872 28.7031C50.3277 28.0353 49.4506 27.7019 48.5719 27.7016ZM48.5684 30.0035C48.8456 30.0032 49.1206 30.1139 49.3373 30.3338L49.3403 30.3368L49.3434 30.3399C49.7929 30.7894 49.7893 31.4567 49.3494 31.8903C48.899 32.3342 48.2228 32.338 47.7932 31.9021L47.7902 31.8991L47.7872 31.8961C47.3376 31.4465 47.3413 30.7794 47.7811 30.3459L47.7842 30.3429L47.7872 30.3399C48.0119 30.1151 48.2913 30.0038 48.5684 30.0035ZM32.5742 30.9046C31.6998 30.9048 30.8268 31.2339 30.1658 31.893C28.8306 33.2118 28.834 35.4012 30.159 36.73C31.4777 38.0653 33.6672 38.0619 34.996 36.7368C36.3324 35.4169 36.3283 33.2245 34.9998 31.8961L34.9968 31.893L34.9938 31.8903C34.3275 31.2337 33.4502 30.9043 32.5742 30.9046ZM32.5777 33.2136C32.8574 33.2138 33.1388 33.3227 33.3615 33.5406C33.8076 33.9901 33.8038 34.6546 33.365 35.087L33.362 35.09L33.359 35.093C32.9094 35.5426 32.2424 35.539 31.8088 35.0991L31.8058 35.0961L31.8028 35.093C31.3533 34.6435 31.3569 33.9764 31.7968 33.5429L31.7998 33.5399L31.8028 33.5369C32.0179 33.3218 32.2968 33.2133 32.5777 33.2136ZM42.1782 34.1016C41.3023 34.1013 40.425 34.4304 39.7587 35.087C38.4209 36.4055 38.4238 38.5971 39.7497 39.9268C41.0686 41.2622 43.2584 41.2586 44.5872 39.9331C45.9229 38.6131 45.9187 36.4213 44.5905 35.093C43.929 34.4316 43.0542 34.1018 42.1782 34.1016ZM42.1747 36.4103C42.4557 36.41 42.7346 36.5187 42.9497 36.7338C43.3992 37.1834 43.3956 37.8505 42.9557 38.284L42.9527 38.287L42.9497 38.2898C42.5001 38.7393 41.833 38.7357 41.3995 38.2958L41.3965 38.2928L41.3935 38.2898C40.9439 37.8402 40.9476 37.1731 41.3875 36.7396C41.6107 36.5197 41.8938 36.4106 42.1747 36.4103Z" fill="#4DABFE"/>
<path d="M41.7621 0.000167348C37.1814 -0.0208658 32.566 1.94027 28.3425 6.16375C25.4416 9.06467 22.0422 12.5627 19.6044 16.8559L22.0704 18.2563C24.2733 14.3769 27.4738 11.0432 30.3479 8.1691C34.7121 3.80492 39.022 2.38939 43.3634 2.94286C47.7048 3.49632 52.1895 6.15129 56.4562 10.4242L56.457 10.425L56.4577 10.4257C60.5123 14.4741 63.1137 18.7236 63.8394 22.8516C64.5651 26.9796 63.5375 31.0481 59.9687 35.1936L62.1178 37.0439C66.1286 32.385 67.4988 27.2883 66.6325 22.3606C65.7663 17.4336 62.7866 12.7376 58.4631 8.42037L58.4623 8.41961C53.912 3.86288 48.9354 0.794485 43.7219 0.129829C43.0702 0.0467422 42.4165 0.00317209 41.7621 0.000167348ZM18.6277 18.7152C17.647 20.7857 16.9149 23.0304 16.5836 25.4599C16.011 29.6074 16.4266 33.8909 16.4691 37.5275C16.5115 41.1648 16.1187 43.9707 14.6639 45.4303L3.95609 56.1381L1.89359 56.834L0.975633 57.7519C-0.325211 59.0528 -0.325211 61.1891 0.975633 62.49L4.40474 65.9191C5.70559 67.2199 7.84196 67.2199 9.1428 65.9191L10.0628 64.9991L10.7458 62.9495L21.4534 52.2419C22.9895 50.7058 26.0372 50.3641 29.9493 50.44L30.0045 47.6046C25.9502 47.5259 22.0369 47.648 19.448 50.2368L8.26715 61.4174L7.58384 63.4671L7.13745 63.9137C6.94299 64.1082 6.6043 64.1082 6.40984 63.9137L2.98098 60.4849C2.78651 60.2904 2.78651 59.9517 2.98098 59.7573L3.42964 59.3089L5.49214 58.6127L16.6717 47.4331L16.6725 47.4321C19.1236 44.973 19.3495 41.3077 19.305 37.4942C19.2605 33.6808 18.8834 29.5348 19.3931 25.8456L19.3934 25.8443L19.3936 25.843C19.6811 23.735 20.3153 21.7774 21.1908 19.9292L18.6277 18.7152ZM49.6179 44.2495C47.0235 45.8725 44.1877 47.0831 41.038 47.5142H41.0375L41.037 47.5145C39.3626 47.745 37.5881 47.7972 35.7977 47.772L35.7576 50.6077C37.6278 50.634 39.5397 50.5831 41.4227 50.324L41.4237 50.3237C45.0542 49.8266 48.2767 48.4336 51.1219 46.6537L49.6179 44.2495ZM31.9577 47.6695L31.8633 50.5037L33.7969 50.5682L33.8913 47.734L31.9577 47.6695Z" fill="#4DABFE"/>
<path d="M14.6209 47.9316L12.5907 49.0548L16.0067 55.2294L18.037 54.1063L14.6209 47.9316ZM11.8882 50.6644L9.85796 51.7875L13.274 57.9622L15.3043 56.839L11.8882 50.6644ZM9.15527 53.3973L7.125 54.5205L10.541 60.6951L12.5713 59.5717L9.15527 53.3973Z" fill="#4DABFE"/>
<path d="M57.7441 33.9668C52.7062 33.9668 48.5918 38.0812 48.5918 43.1191C48.5918 48.157 52.7062 52.2715 57.7441 52.2715C62.782 52.2715 66.8965 48.157 66.8965 43.1191C66.8965 38.0812 62.782 33.9668 57.7441 33.9668ZM57.7441 36.8027C61.2494 36.8027 64.0605 39.6139 64.0605 43.1191C64.0605 46.6244 61.2494 49.4355 57.7441 49.4355C54.2389 49.4355 51.4277 46.6244 51.4277 43.1191C51.4277 39.6139 54.2389 36.8027 57.7441 36.8027Z" fill="#4DABFE"/>
<path d="M61.3527 38.3359C58.7347 38.3359 56.5703 40.4865 56.5703 43.1183C56.5703 45.7363 58.7209 47.9007 61.3527 47.9007H64.5753V45.5804H61.3527C59.9884 45.5804 58.8906 44.4707 58.8906 43.1183C58.8906 41.754 60.0003 40.6562 61.3527 40.6562H64.5753V38.3359H61.3527Z" fill="#4DABFE"/>
</svg>
