<svg width="59" height="59" viewBox="0 0 59 59" fill="none" xmlns="http://www.w3.org/2000/svg">
<path d="M3.10841 30.6903C2.40245 30.6903 1.76497 30.2044 1.60182 29.4878C-3.25734 8.24651 9.49734 0.52876 10.0432 0.211021C10.7793 -0.218999 11.727 0.0287377 12.159 0.767432C12.5881 1.50412 12.3413 2.44926 11.6062 2.88079C11.1147 3.17385 0.293626 9.8946 4.61703 28.798C4.80737 29.6309 4.28671 30.4602 3.45385 30.651C3.33804 30.6772 3.22221 30.6903 3.10841 30.6903Z" fill="#A04DFE"/>
<path d="M13.916 12.3754C13.062 12.3754 12.3691 11.683 12.3691 10.8285C12.3681 3.84541 18.034 0.365433 18.2757 0.220924C19.0058 -0.218667 19.9575 0.0179946 20.3976 0.751152C20.8357 1.48229 20.601 2.42945 19.8729 2.87056C19.6896 2.98234 15.4619 5.63196 15.4629 10.8285C15.4629 11.6825 14.771 12.3754 13.916 12.3754Z" fill="#A04DFE"/>
<path d="M9.96853 23.8327C9.41362 23.8327 8.87786 23.5331 8.5999 23.0084C6.08019 18.2434 7.62907 13.5267 7.69655 13.3283C7.97047 12.5192 8.84261 12.0861 9.65834 12.359C10.467 12.633 10.9011 13.5111 10.6271 14.3203C10.6171 14.35 9.45289 18.0042 11.3351 21.5622C11.7339 22.3175 11.4459 23.2531 10.6906 23.6529C10.46 23.7748 10.2122 23.8327 9.96853 23.8327Z" fill="#A04DFE"/>
<path d="M25.7967 16.2C25.5258 16.2 25.2519 16.129 25.0021 15.9799C19.861 12.8983 20.1822 8.07991 22.0191 4.88998C22.4451 4.14877 23.3908 3.89649 24.132 4.32148C24.8722 4.74798 25.126 5.69363 24.7 6.43383C23.9588 7.72088 22.6596 10.9687 26.5933 13.3263C27.3254 13.7654 27.5641 14.7156 27.124 15.4482C26.835 15.9321 26.3224 16.2 25.7967 16.2Z" fill="#A04DFE"/>
<path d="M19.8638 41.2017C19.1005 41.2017 18.4358 40.6367 18.3321 39.8592C18.2193 39.0123 18.8145 38.2343 19.6614 38.1215L23.3574 37.6285C24.2013 37.5178 24.9828 38.1104 25.0956 38.9574C25.2084 39.8043 24.6132 40.5823 23.7663 40.6951L20.0703 41.1881C20.0008 41.1971 19.9323 41.2017 19.8638 41.2017Z" fill="#A04DFE"/>
<path d="M24.7275 34.0977C24.4466 34.0977 24.1636 34.0216 23.9088 33.8625L20.819 31.9309C20.094 31.4777 19.8744 30.5235 20.3276 29.7994C20.7798 29.0733 21.7365 28.8558 22.4586 29.3075L25.5483 31.2391C26.2734 31.6923 26.4929 32.6465 26.0398 33.3706C25.7467 33.8404 25.2431 34.0977 24.7275 34.0977Z" fill="#A04DFE"/>
<path d="M29.6515 29.6437C29.0503 29.6437 28.4793 29.2917 28.2285 28.7046L27.0432 25.9331C26.7068 25.1476 27.0714 24.2387 27.8569 23.9024C28.6455 23.566 29.5518 23.9321 29.8872 24.7166L31.0725 27.4881C31.4089 28.2736 31.0443 29.1825 30.2588 29.5188C30.0604 29.6034 29.854 29.6437 29.6515 29.6437Z" fill="#A04DFE"/>
<path d="M19.6388 52.5919C18.4313 52.5919 17.2158 52.2802 16.1181 51.6412C9.30315 47.696 4.90624 43.2991 0.945392 36.4675C-0.638742 33.7238 -0.198656 30.2629 2.01491 28.0494L15.7203 14.3445C17.3527 12.712 19.6831 11.9789 21.9561 12.3893L32.7641 14.3385C33.604 14.49 34.1629 15.2947 34.0119 16.1351C33.8598 16.9765 33.0592 17.5329 32.2142 17.3829L21.4073 15.4337C20.1333 15.2051 18.8241 15.6154 17.9077 16.5319L4.20231 30.2367C2.9777 31.4618 2.73901 33.3869 3.62324 34.9181C7.33735 41.3247 11.276 45.2639 17.671 48.9654C19.1977 49.8541 21.1253 49.6145 22.365 48.3823L30.054 40.6827C30.6583 40.0774 31.6372 40.0779 32.2414 40.6812C32.8467 41.2849 32.8467 42.2643 32.2434 42.869L24.5504 50.5727C23.2129 51.901 21.4354 52.5919 19.6388 52.5919Z" fill="#A04DFE"/>
<path d="M37.8429 27.8444C37.1087 27.8444 36.4571 27.3197 36.3222 26.5715L35.2043 20.3734C35.0533 19.533 35.6122 18.7283 36.4521 18.5768C37.2971 18.4282 38.0977 18.9831 38.2497 19.8245L39.3676 26.0226C39.5187 26.863 38.9597 27.6677 38.1198 27.8193C38.0262 27.8359 37.9345 27.8444 37.8429 27.8444Z" fill="#A04DFE"/>
<path d="M36.7231 21.6486C36.3273 21.6486 35.9316 21.4976 35.6294 21.1954L31.3926 16.9587C30.7884 16.3549 30.7884 15.3755 31.3926 14.7713L42.8069 3.35602L43.4705 1.58709C43.7636 0.805093 44.4263 0.232059 45.243 0.0548179C46.0587 -0.118906 46.8986 0.125314 47.4898 0.715963L51.8706 5.09776C52.4608 5.68841 52.7085 6.52833 52.5323 7.34456C52.355 8.16079 51.783 8.82345 51.0015 9.11702L49.232 9.78068L37.8168 21.1954C37.5147 21.4976 37.1189 21.6486 36.7231 21.6486ZM34.6737 15.865L36.7231 17.9144L47.2813 7.35614C47.4374 7.20004 47.6248 7.0792 47.8322 7.00165L48.9722 6.57414L46.0144 3.61534L45.5864 4.75536C45.5089 4.96231 45.388 5.15013 45.2319 5.30623L34.6737 15.865Z" fill="#A04DFE"/>
<path d="M41.3755 17.0005C40.9797 17.0005 40.584 16.8495 40.2818 16.5473L36.043 12.3085C35.4388 11.7048 35.4388 10.7249 36.043 10.1212C36.6473 9.51691 37.6262 9.51691 38.2304 10.1212L42.4692 14.36C43.0735 14.9637 43.0735 15.9436 42.4692 16.5473C42.1671 16.8495 41.7713 17.0005 41.3755 17.0005Z" fill="#A04DFE"/>
<path d="M45.9126 12.4639C45.5169 12.4639 45.1211 12.3129 44.8189 12.0107L40.5801 7.77142C39.9759 7.16717 39.9759 6.18779 40.5801 5.58405C41.1844 4.9798 42.1633 4.9798 42.7675 5.58405L47.0063 9.82335C47.6106 10.4276 47.6106 11.407 47.0063 12.0107C46.7042 12.3129 46.3084 12.4639 45.9126 12.4639Z" fill="#A04DFE"/>
<path d="M44.0858 58.7819C35.9858 58.7819 29.3965 52.1921 29.3965 44.0921C29.3965 35.9922 35.9858 29.4023 44.0858 29.4023C52.1857 29.4023 58.776 35.9922 58.776 44.0921C58.776 52.1921 52.1857 58.7819 44.0858 58.7819ZM44.0858 32.4961C37.6918 32.4961 32.4902 37.6982 32.4902 44.0921C32.4902 50.4861 37.6918 55.6881 44.0858 55.6881C50.4797 55.6881 55.6823 50.4861 55.6823 44.0921C55.6823 37.6982 50.4797 32.4961 44.0858 32.4961Z" fill="#A04DFE"/>
<path d="M44.0859 46.1543C45.225 46.1543 46.1484 45.2309 46.1484 44.0918C46.1484 42.9527 45.225 42.0293 44.0859 42.0293C42.9469 42.0293 42.0234 42.9527 42.0234 44.0918C42.0234 45.2309 42.9469 46.1543 44.0859 46.1543Z" fill="#A04DFE"/>
<path d="M44.0859 54.1406C45.225 54.1406 46.1484 53.2172 46.1484 52.0781C46.1484 50.939 45.225 50.0156 44.0859 50.0156C42.9469 50.0156 42.0234 50.939 42.0234 52.0781C42.0234 53.2172 42.9469 54.1406 44.0859 54.1406Z" fill="#A04DFE"/>
<path d="M51.6816 48.6211C52.8207 48.6211 53.7441 47.6977 53.7441 46.5586C53.7441 45.4195 52.8207 44.4961 51.6816 44.4961C50.5426 44.4961 49.6191 45.4195 49.6191 46.5586C49.6191 47.6977 50.5426 48.6211 51.6816 48.6211Z" fill="#A04DFE"/>
<path d="M48.7793 39.6934C49.9184 39.6934 50.8418 38.7699 50.8418 37.6309C50.8418 36.4918 49.9184 35.5684 48.7793 35.5684C47.6402 35.5684 46.7168 36.4918 46.7168 37.6309C46.7168 38.7699 47.6402 39.6934 48.7793 39.6934Z" fill="#A04DFE"/>
<path d="M39.3906 39.6934C40.5297 39.6934 41.4531 38.7699 41.4531 37.6309C41.4531 36.4918 40.5297 35.5684 39.3906 35.5684C38.2515 35.5684 37.3281 36.4918 37.3281 37.6309C37.3281 38.7699 38.2515 39.6934 39.3906 39.6934Z" fill="#A04DFE"/>
<path d="M36.4902 48.6211C37.6293 48.6211 38.5527 47.6977 38.5527 46.5586C38.5527 45.4195 37.6293 44.4961 36.4902 44.4961C35.3511 44.4961 34.4277 45.4195 34.4277 46.5586C34.4277 47.6977 35.3511 48.6211 36.4902 48.6211Z" fill="#A04DFE"/>
</svg>
