<svg width="66" height="66" viewBox="0 0 66 66" fill="none" xmlns="http://www.w3.org/2000/svg">
<path d="M31.0826 42.8564C27.8871 42.8564 24.8125 41.9701 22.176 40.2299C18.5696 37.8623 16.0711 34.0827 15.1435 29.5911C14.0368 24.2324 15.2553 18.346 18.4871 13.4396C21.4499 8.93489 25.7672 5.6941 30.6445 4.3154C35.6004 2.91053 40.5431 3.59433 44.5543 6.23389C51.7479 10.9722 54.044 20.8859 50.0167 29.8076C49.6652 30.5861 48.7498 30.9356 47.9703 30.5811C47.1919 30.2296 46.8454 29.3131 47.1969 28.5347C50.5958 21.0068 48.7689 12.7144 42.8533 8.81806C39.6055 6.68103 35.5681 6.13721 31.4854 7.29233C27.3242 8.4686 23.6262 11.2562 21.0712 15.1405C18.2876 19.3662 17.2312 24.4056 18.1728 28.9657C18.9332 32.6476 20.9594 35.7303 23.8769 37.6457C27.4088 39.9771 31.9467 40.4021 36.3305 38.8149C37.1331 38.5239 38.0214 38.9388 38.3114 39.7425C38.6025 40.5461 38.1865 41.4333 37.3839 41.7234C35.2902 42.4817 33.1602 42.8564 31.0826 42.8564Z" fill="#A2E047"/>
<path d="M12.1013 32.9409C11.7891 32.9409 11.4749 32.8472 11.202 32.6518L4.25619 27.6779C3.5613 27.1804 3.40118 26.2136 3.89867 25.5197C4.39617 24.8238 5.36297 24.6657 6.05684 25.1622L13.0027 30.1362C13.6976 30.6337 13.8577 31.6004 13.3602 32.2943C13.0581 32.7163 12.5827 32.9409 12.1013 32.9409Z" fill="#A2E047"/>
<path d="M8.24926 16.0086C7.93707 16.0086 7.62286 15.915 7.34994 15.7196L4.25619 13.504C3.5613 13.0065 3.40118 12.0398 3.89867 11.3459C4.39617 10.65 5.36297 10.4919 6.05684 10.9884L9.15059 13.2039C9.84548 13.7014 10.0056 14.6682 9.50811 15.3621C9.20598 15.7841 8.73064 16.0086 8.24926 16.0086Z" fill="#A2E047"/>
<path d="M16.3593 28.7714C16.0471 28.7714 15.7329 28.6778 15.46 28.4824L9.12142 23.9435C8.42654 23.446 8.26641 22.4792 8.76391 21.7853C9.26241 21.0894 10.2282 20.9313 10.9221 21.4278L17.2606 25.9667C17.9555 26.4642 18.1156 27.431 17.6181 28.1249C17.316 28.5469 16.8407 28.7714 16.3593 28.7714Z" fill="#A2E047"/>
<path d="M5.97842 21.3387C5.66622 21.3387 5.351 21.2451 5.07808 21.0487L4.2553 20.4585C3.56041 19.961 3.4013 18.9943 3.8998 18.3004C4.39829 17.6065 5.3651 17.4454 6.05797 17.9449L6.88075 18.535C7.57564 19.0325 7.73475 19.9993 7.23625 20.6932C6.93413 21.1142 6.4598 21.3387 5.97842 21.3387Z" fill="#A2E047"/>
<path d="M15.0571 13.7941C14.7449 13.7941 14.4307 13.7004 14.1578 13.5051L4.25619 6.4142C3.5613 5.9167 3.40118 4.94991 3.89867 4.25603C4.39617 3.56014 5.36297 3.40203 6.05684 3.89852L15.9585 10.9894C16.6533 11.4869 16.8135 12.4537 16.316 13.1475C16.0138 13.5695 15.5385 13.7941 15.0571 13.7941Z" fill="#A2E047"/>
<path d="M23.856 11.2311C23.5438 11.2311 23.2296 11.1375 22.9567 10.9421L16.6312 6.41225C15.9363 5.91475 15.7762 4.94795 16.2737 4.25408C16.7712 3.55819 17.738 3.40008 18.4318 3.89656L24.7573 8.42641C25.4522 8.92391 25.6123 9.8907 25.1148 10.5846C24.8127 11.0065 24.3374 11.2311 23.856 11.2311Z" fill="#A2E047"/>
<path d="M11.2763 62.3882C10.2178 62.3882 9.14731 62.0901 8.19964 61.4657C5.61346 59.7618 4.89542 56.2742 6.59637 53.6901L13.8625 42.6515C14.3318 41.9375 15.2935 41.7411 16.0045 42.2094L22.7983 46.6808C23.1417 46.9064 23.3804 47.2589 23.4629 47.6607C23.5465 48.0625 23.466 48.4805 23.2404 48.8229L15.9743 59.8625C14.8967 61.5 13.1031 62.3882 11.2763 62.3882ZM15.5966 45.6435L9.18054 55.391C8.41718 56.5512 8.74044 58.1172 9.9006 58.8816C11.0587 59.6449 12.6258 59.3227 13.3901 58.1615L19.8052 48.415L15.5966 45.6435Z" fill="#A2E047"/>
<path d="M16.0048 45.6072C15.7127 45.6072 15.4177 45.5246 15.1558 45.3524C14.4418 44.8831 14.2444 43.9233 14.7137 43.2103C16.3563 40.7148 17.743 37.3461 15.5768 31.2815C15.2898 30.4768 15.7097 29.5916 16.5134 29.3036C17.321 29.0206 18.2032 29.4365 18.4913 30.2401C20.5497 36.0047 20.1811 40.5295 17.2979 44.9103C17.0008 45.3625 16.5073 45.6072 16.0048 45.6072Z" fill="#A2E047"/>
<path d="M21.0985 48.9593C20.8065 48.9593 20.5114 48.8767 20.2496 48.7045C19.5356 48.2352 19.3382 47.2755 19.8075 46.5625C22.6917 42.1797 26.7019 40.0527 32.8099 39.665C33.675 39.6136 34.397 40.2582 34.4514 41.1111C34.5058 41.9631 33.8582 42.6983 33.0053 42.7527C26.5801 43.1606 24.0342 45.7669 22.3916 48.2624C22.0946 48.7146 21.6011 48.9593 21.0985 48.9593Z" fill="#A2E047"/>
<path d="M23.0224 40.4889C22.7303 40.4889 22.4352 40.4064 22.1734 40.2342C21.4594 39.7649 21.262 38.8051 21.7313 38.0911L42.4117 6.67321C42.882 5.95819 43.8417 5.76281 44.5537 6.23111C45.2678 6.70041 45.4652 7.66015 44.9958 8.37417L24.3155 39.792C24.0184 40.2442 23.5249 40.4889 23.0224 40.4889Z" fill="#A2E047"/>
<path d="M35.6695 36.0358C35.3774 36.0358 35.0823 35.9532 34.8195 35.781L15.7877 23.2539C15.0747 22.7846 14.8773 21.8249 15.3466 21.1118C15.8169 20.3978 16.7746 20.2024 17.4896 20.6697L35.2294 32.3468L47.8199 13.2506C48.2902 12.5366 49.2509 12.3402 49.9619 12.8105C50.6759 13.2808 50.8723 14.2395 50.402 14.9525L36.9615 35.3399C36.6644 35.791 36.172 36.0358 35.6695 36.0358Z" fill="#A2E047"/>
<path d="M17.6161 33.9117C17.3241 33.9117 17.029 33.8291 16.7672 33.6569C16.0531 33.1876 15.8557 32.2278 16.325 31.5148L34.2329 4.30754C34.7033 3.59251 35.663 3.39814 36.375 3.86543C37.089 4.33473 37.2864 5.29447 36.8171 6.00749L18.9092 33.2148C18.6121 33.6669 18.1187 33.9117 17.6161 33.9117Z" fill="#A2E047"/>
<path d="M42.9049 31.061C42.6129 31.061 42.3178 30.9784 42.0549 30.8062L18.9263 15.5822C18.2133 15.1129 18.016 14.1532 18.4853 13.4391C18.9556 12.7261 19.9133 12.5307 20.6283 12.998L43.7569 28.2221C44.4699 28.6914 44.6673 29.6511 44.198 30.3651C43.9009 30.8163 43.4075 31.061 42.9049 31.061Z" fill="#A2E047"/>
<path d="M50.0872 26.0516C49.7952 26.0516 49.5001 25.969 49.2383 25.7968L24.732 9.6664C24.018 9.19709 23.8206 8.23735 24.2899 7.52433C24.7602 6.80931 25.7199 6.61494 26.4319 7.08223L50.9382 23.2126C51.6523 23.6819 51.8496 24.6417 51.3803 25.3557C51.0832 25.8069 50.5898 26.0516 50.0872 26.0516Z" fill="#A2E047"/>
<path d="M47.701 62.3893C39.601 62.3893 33.0117 55.799 33.0117 47.699C33.0117 39.5991 39.601 33.0098 47.701 33.0098C55.8009 33.0098 62.3913 39.5991 62.3913 47.699C62.3913 55.799 55.8009 62.3893 47.701 62.3893ZM47.701 36.1035C41.307 36.1035 36.1055 41.3051 36.1055 47.699C36.1055 54.093 41.307 59.2956 47.701 59.2956C54.0949 59.2956 59.2975 54.093 59.2975 47.699C59.2975 41.3051 54.0949 36.1035 47.701 36.1035Z" fill="#A2E047"/>
<path d="M44.5099 61.9973C44.3477 61.9973 44.1816 61.9722 44.0194 61.9178C43.2087 61.6469 42.7717 60.7697 43.0426 59.96C44.0325 57.0002 43.669 53.9679 42.0455 51.6415C40.4322 49.3111 37.7161 47.9194 34.5901 47.8166C33.7361 47.7884 33.0664 47.0744 33.0946 46.2204C33.1228 45.3664 33.862 44.7088 34.6908 44.7249C38.8068 44.8598 42.4131 46.737 44.5854 49.8761C46.7718 53.0081 47.2803 57.0435 45.9772 60.9409C45.7607 61.5885 45.1574 61.9973 44.5099 61.9973Z" fill="#A2E047"/>
<path d="M60.7634 50.6736C60.7463 50.6736 60.7292 50.6737 60.7121 50.6726C56.5971 50.5397 52.9908 48.6615 50.8175 45.5214C48.6311 42.3904 48.1236 38.356 49.4257 34.4566C49.6966 33.6469 50.5667 33.2058 51.3835 33.4798C52.1932 33.7507 52.6313 34.6268 52.3604 35.4375C51.3704 38.3983 51.734 41.4307 53.3574 43.756C54.9717 46.0874 57.6868 47.4792 60.8128 47.5809C61.6668 47.6081 62.3365 48.3231 62.3083 49.1771C62.2811 50.014 61.5943 50.6736 60.7634 50.6736Z" fill="#A2E047"/>
</svg>
