<?xml version="1.0" encoding="UTF-8"?>
<svg xmlns="http://www.w3.org/2000/svg" xmlns:xlink="http://www.w3.org/1999/xlink" version="1.1" width="512" height="512" x="0" y="0" viewBox="0 0 64 64" style="enable-background:new 0 0 512 512" xml:space="preserve" class="">
  <g>
    <g fill="#293a4c">
      <path d="M29.144 41.56c-3.099 0-6.08-.858-8.637-2.546-3.497-2.296-5.92-5.96-6.82-10.316-1.072-5.196.11-10.904 3.244-15.662 2.872-4.368 7.059-7.51 11.788-8.848 4.808-1.362 9.599-.7 13.489 1.86 6.975 4.596 9.202 14.21 5.296 22.86a1.5 1.5 0 1 1-2.734-1.234c3.295-7.3 1.524-15.34-4.212-19.12-3.15-2.074-7.065-2.598-11.022-1.48-4.036 1.142-7.623 3.845-10.1 7.612-2.699 4.098-3.723 8.984-2.81 13.405.737 3.57 2.702 6.56 5.53 8.417 3.425 2.26 7.826 2.673 12.077 1.133a1.5 1.5 0 1 1 1.021 2.822 17.957 17.957 0 0 1-6.11 1.098zM9.936 60.504a5.408 5.408 0 0 1-2.982-.898 5.45 5.45 0 0 1-1.554-7.54l7.046-10.704a1.5 1.5 0 0 1 2.078-.429l6.587 4.336a1.5 1.5 0 0 1 .428 2.078L14.494 58.05a5.41 5.41 0 0 1-3.448 2.34c-.37.075-.741.113-1.11.113zm4.191-16.24-6.22 9.452a2.446 2.446 0 0 0 .696 3.384c.546.36 1.198.484 1.837.352s1.189-.505 1.548-1.05l6.22-9.452-4.08-2.686z" fill="#555555" opacity="1" data-original="#293a4c" class=""/>
      <path d="M14.52 44.228a1.5 1.5 0 0 1-1.251-2.325c1.594-2.42 2.939-5.687.838-11.566a1.5 1.5 0 0 1 2.826-1.01c1.996 5.59 1.64 9.977-1.158 14.226a1.498 1.498 0 0 1-1.254.675zM19.461 47.48a1.5 1.5 0 0 1-1.251-2.325c2.797-4.249 6.685-6.311 12.608-6.688a1.49 1.49 0 0 1 1.592 1.402 1.5 1.5 0 0 1-1.402 1.593c-6.23.395-8.699 2.922-10.292 5.343a1.498 1.498 0 0 1-1.255.675zM21.327 39.267a1.5 1.5 0 0 1-1.251-2.325L40.129 6.475a1.5 1.5 0 0 1 2.506 1.65L22.58 38.591a1.498 1.498 0 0 1-1.254.675z" fill="#555555" opacity="1" data-original="#293a4c" class=""/>
      <path d="M33.591 34.947c-.283 0-.57-.08-.823-.247L14.313 22.552a1.5 1.5 0 0 1 1.65-2.505L33.164 31.37l12.207-18.518a1.5 1.5 0 0 1 2.505 1.651l-13.032 19.77a1.5 1.5 0 0 1-1.254.674z" fill="#555555" opacity="1" data-original="#293a4c" class=""/>
      <path d="M16.084 32.888a1.5 1.5 0 0 1-1.251-2.325L32.197 4.182a1.5 1.5 0 1 1 2.506 1.65L17.338 32.212a1.498 1.498 0 0 1-1.254.675z" fill="#555555" opacity="1" data-original="#293a4c" class=""/>
      <path d="M40.607 30.124c-.283 0-.569-.08-.823-.247L17.356 15.114a1.5 1.5 0 0 1 1.65-2.506l22.428 14.763a1.5 1.5 0 0 1-.827 2.753zM47.572 25.267c-.283 0-.57-.08-.824-.247L22.984 9.378a1.5 1.5 0 0 1 1.65-2.506l23.764 15.642a1.5 1.5 0 0 1-.826 2.753z" fill="#555555" opacity="1" data-original="#293a4c" class=""/>
    </g>
    <path fill="#fea04d" d="M50.741 42.44c1.428 2.05 3.701 3.346 6.4 3.646.78.087 1.568.08 2.354-.002-.073-5.98-3.849-11.074-9.137-13.11-1.544 3.136-1.532 6.716.383 9.466zM40.977 57.343c.654-2.635.228-5.216-1.2-7.267-1.429-2.05-3.702-3.346-6.4-3.646a11.043 11.043 0 0 0-2.354.003c.073 5.98 3.85 11.074 9.14 13.11.346-.706.625-1.44.814-2.2z" opacity="1" data-original="#ff5f00" class=""/>
    <path fill="#fea04d" d="M58.345 49.153a13.92 13.92 0 0 1-1.536-.085c-3.57-.397-6.6-2.143-8.53-4.914-2.443-3.508-2.608-7.998-.865-11.96a14.22 14.22 0 0 0-2.155-.18c-6.876 0-12.629 4.896-13.956 11.385.802-.05 1.606-.04 2.405.05 3.571.396 6.6 2.142 8.53 4.913 1.93 2.77 2.516 6.217 1.65 9.704-.191.774-.46 1.526-.78 2.256.703.108 1.418.18 2.15.18 6.876 0 12.629-4.896 13.957-11.384-.29.018-.58.035-.87.035z" opacity="1" data-original="#ff5f00" class=""/>
  </g>
</svg>
