<?xml version="1.0" encoding="UTF-8"?>
<svg xmlns="http://www.w3.org/2000/svg" xmlns:xlink="http://www.w3.org/1999/xlink" version="1.1" width="512" height="512" x="0" y="0" viewBox="0 0 511.999 511.999" style="enable-background:new 0 0 512 512" xml:space="preserve" class="">
  <g>
    <path d="m175.127 375.656-38.783-38.783L10 454.86l47.139 47.139z" style="fill-rule:evenodd;clip-rule:evenodd;" fill="#fea04d" data-original="#b278d3" class="" opacity="1"/>
    <path d="m136.344 336.873 38.783 38.783c59.144-59.144 199.436-22.975 284.083-107.622 59.438-59.438 59.099-127.059-14.544-200.701S303.403-6.648 243.965 52.79c-84.646 84.647-48.478 224.939-107.621 284.083zm141.175-41.101c-28.231 4.635-56.104 9.794-81.16 19.869 10.075-25.057 15.233-52.929 19.868-81.161a208.846 208.846 0 0 0 27.445 33.847 208.846 208.846 0 0 0 33.847 27.445z" style="fill-rule:evenodd;clip-rule:evenodd;" fill="#b278d3" data-original="#cbe558" class="" opacity="0"/>
    <path d="m106.057 365.157 30.287-28.284c59.144-59.144 22.975-199.436 107.622-284.083 59.437-59.438 127.057-59.099 200.7 14.543 73.643 73.642 73.982 141.263 14.544 200.701-84.647 84.646-224.939 48.478-284.083 107.622L57.139 501.999 10 454.86l30.283-28.28" style="fill-rule:evenodd;clip-rule:evenodd;stroke-width:20;stroke-linecap:round;stroke-linejoin:round;stroke-miterlimit:22.9256;" fill-rule="evenodd" clip-rule="evenodd" fill="none" stroke="#555555" stroke-width="20" stroke-linecap="round" stroke-linejoin="round" stroke-miterlimit="22.9256" data-original="#000000" class="" opacity="1"/>
    <path d="M196.359 315.641c25.056-10.075 52.929-15.234 81.16-19.869a208.796 208.796 0 0 1-33.846-27.445 208.846 208.846 0 0 1-27.445-33.847c-4.636 28.231-9.794 56.104-19.869 81.161zM139.285 339.814l32.9 32.9M312.613 72.102l.006.006M280.794 103.922l.005.005M248.974 135.742l.005.005M376.253 72.102l.005.006M344.433 103.922l.005.005M312.613 135.742l.006.005M280.794 167.561l.005.006M248.974 199.381l.005.005M408.072 103.922l.005.005M376.253 135.742l.005.005M344.433 167.561l.005.006M312.613 199.381l.006.005M280.794 231.201l.005.005M439.892 135.742l.005.005M408.072 167.561l.005.006M376.253 199.381l.005.005M344.433 231.201l.005.005M312.613 263.02l.006.005M439.892 199.381l.005.005M408.072 231.201l.005.005M376.253 263.02l.005.005" style="fill-rule:evenodd;clip-rule:evenodd;stroke-width:20;stroke-linecap:round;stroke-linejoin:round;stroke-miterlimit:22.9256;" fill-rule="evenodd" clip-rule="evenodd" fill="none" stroke="#555555" stroke-width="20" stroke-linecap="round" stroke-linejoin="round" stroke-miterlimit="22.9256" data-original="#000000" class="" opacity="1"/>
    <path d="M73.164 395.866h.008" style="fill-rule:evenodd;clip-rule:evenodd;stroke-width:20;stroke-linecap:round;stroke-linejoin:round;stroke-miterlimit:2.6131;" fill-rule="evenodd" clip-rule="evenodd" fill="none" stroke="#555555" stroke-width="20" stroke-linecap="round" stroke-linejoin="round" stroke-miterlimit="2.6131" data-original="#000000" class="" opacity="1"/>
  </g>
</svg>
