<svg width="217" height="78" viewBox="0 0 217 78" fill="none" xmlns="http://www.w3.org/2000/svg">
<g filter="url(#filter0_d_1861_5036)">
<path d="M27.28 12.6239H38.928C43.2613 12.6239 46.6586 13.7679 49.12 16.0559C51.616 18.3439 52.864 21.7239 52.864 26.1959C52.864 29.4199 52.448 32.4186 51.616 35.1919C50.784 37.9653 49.5533 40.3746 47.924 42.4199C46.3293 44.4306 44.336 46.0253 41.944 47.2039C39.5866 48.3479 36.8826 48.9199 33.832 48.9199H20L27.28 12.6239ZM34.456 42.2639C36.8133 42.2639 38.824 41.5533 40.488 40.1319C42.152 38.7106 43.2786 36.5093 43.868 33.5279L44.856 28.6399C44.9946 27.9813 45.0813 27.3573 45.116 26.7679C45.1853 26.1786 45.22 25.7279 45.22 25.4159C45.22 23.2319 44.6826 21.6719 43.608 20.7359C42.568 19.7653 41.164 19.2799 39.396 19.2799H33.52L28.892 42.2639H34.456ZM58.4453 48.9199L65.7253 12.6239H89.0733L87.7213 19.2799H71.9653L70.3533 27.2359H84.2893L82.9373 33.8919H69.0013L67.3373 42.2639H83.6653L82.3133 48.9199H58.4453ZM106.12 12.6239L101.752 34.3599C101.648 34.8453 101.561 35.3999 101.492 36.0239C101.422 36.6133 101.388 37.1506 101.388 37.6359C101.388 41.1026 103.156 42.8359 106.692 42.8359C108.772 42.8359 110.418 42.2119 111.632 40.9639C112.845 39.7159 113.729 37.7399 114.284 35.0359L118.808 12.6239H126.244L121.824 34.6199C121.304 37.1853 120.628 39.4039 119.796 41.2759C118.998 43.1479 117.976 44.6906 116.728 45.9039C115.48 47.1173 114.006 48.0359 112.308 48.6599C110.609 49.2493 108.633 49.5439 106.38 49.5439C102.393 49.5439 99.3424 48.5559 97.2278 46.5799C95.1478 44.6039 94.1078 41.6746 94.1078 37.7919C94.1078 37.0986 94.1424 36.3879 94.2118 35.6599C94.2811 34.8973 94.4024 34.0653 94.5758 33.1639L98.6838 12.6239H106.12ZM144.518 49.5439C142.577 49.5439 140.809 49.2319 139.214 48.6079C137.654 47.9839 136.302 47.0653 135.158 45.8519C134.014 44.6039 133.13 43.0613 132.506 41.2239C131.882 39.3866 131.57 37.2373 131.57 34.7759C131.57 31.5866 132.038 28.6053 132.974 25.8319C133.945 23.0586 135.262 20.6493 136.926 18.6039C138.59 16.5586 140.549 14.9466 142.802 13.7679C145.09 12.5893 147.551 11.9999 150.186 11.9999C153.445 11.9999 156.079 12.7799 158.09 14.3399C160.135 15.8653 161.591 18.0319 162.458 20.8399L155.75 23.6479C155.542 22.9546 155.282 22.3133 154.97 21.7239C154.658 21.0999 154.259 20.5799 153.774 20.1639C153.323 19.7133 152.751 19.3666 152.058 19.1239C151.399 18.8466 150.585 18.7079 149.614 18.7079C147.187 18.7079 145.211 19.5399 143.686 21.2039C142.195 22.8679 141.173 25.0693 140.618 27.8079L139.474 33.5279C139.37 34.0479 139.301 34.5333 139.266 34.9839C139.231 35.3999 139.214 35.7813 139.214 36.1279C139.214 40.5999 141.207 42.8359 145.194 42.8359C147.239 42.8359 148.869 42.3333 150.082 41.3279C151.33 40.3226 152.353 39.0226 153.15 37.4279L159.442 40.2879C157.813 43.4426 155.698 45.7826 153.098 47.3079C150.533 48.7986 147.673 49.5439 144.518 49.5439ZM165.758 48.9199L173.038 12.6239H196.386L195.034 19.2799H179.278L177.666 27.2359H191.602L190.25 33.8919H176.314L174.65 42.2639H190.978L189.626 48.9199H165.758Z" fill="url(#paint0_linear_1861_5036)"/>
</g>
<defs>
<filter id="filter0_d_1861_5036" x="0" y="0" width="216.386" height="77.5439" filterUnits="userSpaceOnUse" color-interpolation-filters="sRGB">
<feFlood flood-opacity="0" result="BackgroundImageFix"/>
<feColorMatrix in="SourceAlpha" type="matrix" values="0 0 0 0 0 0 0 0 0 0 0 0 0 0 0 0 0 0 127 0" result="hardAlpha"/>
<feOffset dy="8"/>
<feGaussianBlur stdDeviation="10"/>
<feComposite in2="hardAlpha" operator="out"/>
<feColorMatrix type="matrix" values="0 0 0 0 0 0 0 0 0 0 0 0 0 0 0 0 0 0 0.25 0"/>
<feBlend mode="normal" in2="BackgroundImageFix" result="effect1_dropShadow_1861_5036"/>
<feBlend mode="normal" in="SourceGraphic" in2="effect1_dropShadow_1861_5036" result="shape"/>
</filter>
<linearGradient id="paint0_linear_1861_5036" x1="199.766" y1="29.4199" x2="13.7661" y2="29.4199" gradientUnits="userSpaceOnUse">
<stop stop-color="#FF8E2B"/>
<stop offset="1" stop-color="#FEA04D"/>
</linearGradient>
</defs>
</svg>
