<svg xmlns="http://www.w3.org/2000/svg" version="1.1" xmlns:xlink="http://www.w3.org/1999/xlink" width="512" height="512" x="0" y="0" viewBox="0 0 512 512" style="enable-background:new 0 0 512 512" xml:space="preserve" class=""><g><circle cx="444.498" cy="330.999" r="60" style="fill-rule:evenodd;clip-rule:evenodd;" transform="rotate(-9.39 444.599 331.034)" fill="#7bc1ff" data-original="#97eeba" class="" opacity="1"></circle><path d="M444.498 270.999c-33.137 0-60 26.863-60 60 0 32.949 26.674 60 60 60 3.843 0 7.6-.365 11.242-1.056-27.877-5.281-48.742-29.804-48.742-58.944 0-29.289 20.987-53.672 48.742-58.941a60.147 60.147 0 0 0-11.242-1.059z" style="fill-rule:evenodd;clip-rule:evenodd;" fill="#7bc1ff" data-original="#00e5be" class="" opacity="1"></path><path d="M236.887 200.684c-6.851 6.851-17.959 6.851-24.809 0-6.851-6.851-6.851-17.959 0-24.81 6.851-6.851 17.959-6.851 24.81 0 6.85 6.851 6.85 17.959-.001 24.81zm-60.599 63.782 71.244 71.245c-27.472-1.277-55.171-.731-78.773 7.529 8.259-23.602 8.806-51.302 7.529-78.774zm-58.307 92.339 37.214 37.214c30.376-30.376 100.448-9.655 161.221-18.037 26.312-3.629 49.797-13.724 70.867-26.893a59.933 59.933 0 0 1-2.784-18.09c0-33.137 26.863-60 60-60a59.787 59.787 0 0 1 25.646 5.752c58.785-68.271 37.228-142.163-27.754-207.146-68.51-68.51-146.922-88.767-218.21-17.479-35.862 35.862-79.679 81.934-88.164 143.455-8.381 60.774 12.339 130.847-18.036 161.224zm168.523-131.311c-6.851-6.851-6.851-17.959 0-24.81 6.851-6.851 17.959-6.851 24.81 0 6.851 6.851 6.85 17.959 0 24.81-6.851 6.85-17.959 6.85-24.81 0zm124.045-24.81c-6.85-6.851-6.85-17.959 0-24.81 6.851-6.851 17.959-6.851 24.81 0 6.851 6.851 6.851 17.959 0 24.81-6.851 6.851-17.958 6.851-24.81 0zm-124.044-49.619c-6.851 6.851-17.959 6.851-24.809 0-6.851-6.851-6.851-17.959 0-24.809 6.851-6.851 17.959-6.851 24.81 0 6.85 6.851 6.85 17.959-.001 24.809zm49.618-49.618c-6.851 6.851-17.959 6.851-24.809 0-6.851-6.851-6.851-17.959 0-24.81 6.851-6.851 17.959-6.851 24.809 0 6.851 6.851 6.851 17.959 0 24.81zm-99.237 148.855c-6.851 6.851-6.85 17.959 0 24.81 6.851 6.851 17.959 6.851 24.81 0 6.851-6.851 6.85-17.959 0-24.81-6.851-6.851-17.959-6.851-24.81 0zm99.236-74.427c-6.85-6.851-6.85-17.959 0-24.81 6.851-6.851 17.958-6.851 24.81 0 6.851 6.851 6.851 17.959 0 24.81-6.851 6.851-17.959 6.851-24.81 0zm74.428-49.618c-6.851 6.851-17.959 6.851-24.81 0-6.851-6.851-6.851-17.959 0-24.81 6.851-6.851 17.959-6.851 24.81 0 6.851 6.85 6.851 17.958 0 24.81zm-49.618 124.046c-6.851-6.851-6.851-17.959 0-24.809 6.851-6.851 17.958-6.851 24.809 0 6.851 6.85 6.851 17.959-.001 24.81-6.85 6.85-17.958 6.85-24.808-.001zm-49.619 49.618c-6.851-6.851-6.851-17.959 0-24.81 6.851-6.851 17.958-6.851 24.809 0 6.851 6.851 6.851 17.959 0 24.81-6.85 6.851-17.958 6.851-24.809 0z" style="fill-rule:evenodd;clip-rule:evenodd;" fill="#7bc1ff" data-original="#ffee89" class="" opacity="0"></path><path d="M444.498 248.5c6.185 0 12.211.682 18.009 1.973 46.119-62.491 27.498-129.013-28.211-188.682a327.72 327.72 0 0 1 8.095 7.815c66.008 66.008 85.448 140.136 27.754 207.146A59.772 59.772 0 0 0 444.499 271c-33.137 0-60 26.863-60 60 0 6.295.977 12.373 2.784 18.09-21.662 13.544-45.164 23.349-70.867 26.893-60.773 8.381-130.845-12.34-161.221 18.037l-15.91-15.91c43.528-43.528 105.489-16.197 166.261-24.579 21.063-2.905 39.723-9.186 56.597-17.63a83.819 83.819 0 0 1-.144-4.902c0-45.556 36.944-82.499 82.499-82.499z" style="fill-rule:evenodd;clip-rule:evenodd;" fill="#ffe200" data-original="#ffe200" class="" opacity="0"></path><path d="m155.195 394.019-37.214-37.214-84.9 84.9-15.904 5.302-5.302 5.302c-5.831 5.831-5.832 15.374 0 21.206l26.611 26.611c5.803 5.802 15.403 5.803 21.206 0l5.302-5.302 5.302-15.904 84.899-84.901z" style="fill-rule:evenodd;clip-rule:evenodd;" fill="#a9baca" data-original="#a9baca" class="" opacity="0"></path><path d="m155.195 394.019-15.91-15.91-84.9 84.901-5.302 15.904-5.302 5.302c-5.803 5.803-15.403 5.803-21.206 0l15.91 15.91c5.803 5.802 15.403 5.803 21.206 0l5.302-5.302 5.302-15.904 84.9-84.901z" style="fill-rule:evenodd;clip-rule:evenodd;" fill="#6987a0" data-original="#6987a0" class="" opacity="0"></path><path d="M176.288 264.466c1.277 27.472.731 55.172-7.529 78.774 23.601-8.259 51.301-8.806 78.773-7.529l-71.244-71.245zM117.981 356.805l37.214 37.214M33.08 441.705l37.215 37.215M435.359 175.874c6.851 6.851 6.851 17.959 0 24.81-6.851 6.851-17.958 6.851-24.809 0-6.851-6.851-6.851-17.959 0-24.81 6.851-6.851 17.958-6.851 24.809 0zm-99.236-99.237c6.851 6.851 6.851 17.959 0 24.81-6.851 6.851-17.959 6.851-24.81 0-6.851-6.851-6.851-17.959 0-24.81 6.851-6.851 17.959-6.851 24.81 0zm-49.618 49.619c6.851 6.851 6.851 17.959 0 24.809-6.851 6.851-17.959 6.851-24.809 0-6.851-6.851-6.851-17.959 0-24.809 6.85-6.851 17.958-6.851 24.809 0zm-49.618 49.618c6.851 6.851 6.851 17.959 0 24.81s-17.959 6.851-24.81 0c-6.851-6.851-6.851-17.959 0-24.81 6.851-6.851 17.959-6.851 24.81 0zm24.809 74.428c6.851 6.851 6.851 17.959 0 24.81-6.851 6.851-17.959 6.85-24.81 0-6.851-6.851-6.851-17.959 0-24.81 6.851-6.851 17.959-6.851 24.81 0zM410.55 101.447c6.851 6.851 6.851 17.959 0 24.81-6.851 6.851-17.959 6.851-24.81 0-6.851-6.851-6.851-17.959 0-24.81 6.852-6.851 17.959-6.851 24.81 0zm-49.618 49.618c6.851 6.851 6.851 17.959 0 24.81-6.851 6.851-17.959 6.851-24.81 0-6.851-6.851-6.851-17.959 0-24.81 6.851-6.851 17.959-6.851 24.81 0zm-49.618 49.619c6.851 6.851 6.851 17.959 0 24.81-6.851 6.851-17.959 6.851-24.81 0-6.851-6.851-6.851-17.959 0-24.81 6.851-6.851 17.959-6.851 24.81 0zm74.427 24.809c6.851 6.851 6.851 17.959 0 24.81-6.851 6.851-17.958 6.851-24.809 0-6.851-6.851-6.851-17.959 0-24.81 6.85-6.851 17.958-6.851 24.809 0zm-49.618 49.618c6.851 6.851 6.851 17.959 0 24.81-6.851 6.851-17.959 6.851-24.809 0-6.851-6.851-6.851-17.959 0-24.81 6.85-6.851 17.958-6.851 24.809 0z" style="fill-rule:evenodd;clip-rule:evenodd;stroke-width:15.0001;stroke-miterlimit:22.9256;" fill-rule="evenodd" clip-rule="evenodd" fill="none" stroke="#eef7ff" stroke-width="15.0001" stroke-miterlimit="22.9256" data-original="#000000" class="" opacity="1"></path><path d="M150.967 146.448c-7.199 15.196-12.523 31.531-14.95 49.133-8.381 60.774 12.339 130.847-18.036 161.223l-84.9 84.9-15.904 5.302-5.302 5.302c-5.831 5.831-5.832 15.374 0 21.206l26.611 26.611c5.832 5.832 15.375 5.832 21.206 0l5.302-5.302 5.302-15.904 84.9-84.901c16.007-16.007 43.038-17.824 73.922-17.189m15.003.466 14.992.485m15.004.347c14.196.16 28.488-.24 42.299-2.144 26.31-3.629 49.793-13.723 70.861-26.89m82.872-72.347c58.78-68.27 37.222-142.159-27.758-207.141-68.51-68.51-146.922-88.767-218.21-17.479-22.435 22.435-47.985 48.867-66.047 80.578M59.664 415.122 86.2 463.015m15.876-90.306 26.536 47.893M80.87 393.915l26.536 47.893M293.63 51.126v-15m-30 30v-15" style="fill-rule:evenodd;clip-rule:evenodd;stroke-width:15.0001;stroke-miterlimit:22.9256;" fill-rule="evenodd" clip-rule="evenodd" fill="none" stroke="#eef7ff" stroke-width="15.0001" stroke-miterlimit="22.9256" data-original="#000000" class="" opacity="1"></path><circle cx="444.498" cy="330.999" r="60" style="fill-rule:evenodd;clip-rule:evenodd;stroke-width:15.0001;stroke-miterlimit:22.9256;" transform="rotate(-45.001 444.497 331.006)" fill-rule="evenodd" clip-rule="evenodd" fill="none" stroke="#eef7ff" stroke-width="15.0001" stroke-miterlimit="22.9256" data-original="#000000" class="" opacity="1"></circle><path d="M497.541 302.939h-24.984c-15.433 0-28.06 12.627-28.06 28.06 0 15.433 12.627 28.06 28.06 28.06h24.983" style="fill-rule:evenodd;clip-rule:evenodd;stroke-width:15.0001;stroke-miterlimit:22.9256;" fill-rule="evenodd" clip-rule="evenodd" fill="none" stroke="#eef7ff" stroke-width="15.0001" stroke-miterlimit="22.9256" data-original="#000000" class="" opacity="1"></path></g></svg>