<svg height="512" viewBox="0 0 24 24" width="512" xmlns="http://www.w3.org/2000/svg"><g id="Layer_2" data-name="Layer 2"><path d="m12 22.3a10.62 10.62 0 0 1 -5.16-1.3.26.26 0 0 0 -.2 0l-3.53 1a1.24 1.24 0 0 1 -1.56-1.55l1.06-3.55a.27.27 0 0 0 0-.19 10.75 10.75 0 1 1 11.69 5.35 11.47 11.47 0 0 1 -2.3.24zm-5.29-2.87a1.85 1.85 0 0 1 .85.22 9.25 9.25 0 1 0 2.9-17.23 9.23 9.23 0 0 0 -6.56 13.58 1.77 1.77 0 0 1 .15 1.35l-.93 3.09 3.09-.93a1.73 1.73 0 0 1 .5-.08z"/><circle cx="8" cy="12" r="1.25"/><circle cx="12" cy="12" r="1.25"/><circle cx="16" cy="12" r="1.25"/></g></svg>