<svg id="OBJECT" height="512" viewBox="0 0 32 32" width="512" xmlns="http://www.w3.org/2000/svg"><path d="m26.43 25.02c-.39-.39-1.02-.39-1.41 0s-.39 1.02 0 1.41l1.37 1.37c.2.2.45.29.71.29s.51-.1.71-.29c.39-.39.39-1.02 0-1.41l-1.37-1.37z"/><path d="m30.26 21.49-1.87-.5c-.53-.14-1.08.17-1.22.71-.14.53.17 1.08.71 1.22l1.87.5c.09.02.17.03.26.03.44 0 .85-.29.96-.74.14-.53-.17-1.08-.71-1.22z"/><path d="m22.92 27.87c-.14-.53-.69-.85-1.22-.71s-.85.69-.71 1.22l.5 1.87c.12.45.52.74.96.74.09 0 .17-.01.26-.03.53-.14.85-.69.71-1.22z"/><path d="m5.57 6.98c.2.2.45.29.71.29s.51-.1.71-.29c.39-.39.39-1.02 0-1.41l-1.37-1.37c-.39-.39-1.02-.39-1.41 0s-.39 1.02 0 1.41l1.37 1.37z"/><path d="m9.08 4.13c.12.45.52.74.96.74.09 0 .17-.01.26-.03.53-.14.85-.69.71-1.22l-.5-1.87c-.14-.53-.69-.85-1.22-.71s-.85.69-.71 1.22z"/><path d="m3.61 11.01c.09.02.17.03.26.03.44 0 .85-.29.96-.74.14-.53-.17-1.08-.71-1.22l-1.87-.5c-.53-.14-1.08.17-1.22.71-.14.53.17 1.08.71 1.22z"/><path d="m22 11.22c.2.2.45.29.71.29s.51-.1.71-.29c.39-.39.39-1.02 0-1.41l-.7-.7c-.39-.39-1.02-.39-1.41 0s-.39 1.02 0 1.41l.7.7z"/><path d="m23 19.77 1.82-1.82c.19-.19.29-.44.29-.71s-.11-.52-.29-.71l-.66-.66.73-.11c1.12-.17 2.14-.68 2.94-1.46 1.05-1.02 2.32-2.72 2.43-5.08.02-.38-.19-.74-.53-.92-.14-.08-.29-.12-.45-.12 1.01-1.6 1.65-3.83.78-6.49-.12-.36-.43-.62-.8-.67-.36-.06-.75.1-.97.4-.05.07-1.3 1.73-3.92 1.45-2.77-.32-5.07.51-6.8 2.44-.37.42-.68.91-.92 1.48-.17.41-.28.83-.35 1.25l-.35-.35c-.39-.39-1.02-.39-1.41 0l-1.82 1.82c-.99.99-.99 2.6 0 3.59l.18.18-10.78 13.3c-.88 1.08-.8 2.64.19 3.62.53.53 1.22.8 1.92.8.6 0 1.21-.2 1.71-.61l13.29-10.8.18.18c.5.5 1.15.74 1.8.74s1.3-.25 1.8-.74zm-4.48-12.21c.15-.36.34-.66.56-.91 1.29-1.45 2.96-2.03 5.08-1.79 1.92.22 3.36-.33 4.32-.95.16 3.12-2.38 4.84-2.51 4.92-.33.22-.51.61-.44 1.01.07.39.36.71.75.8.6.15 1.16.15 1.64.08-.37.92-.96 1.65-1.48 2.15-.51.49-1.15.81-1.85.92l-.74.11c-.67.1-1.35 0-1.97-.3l-3.29-3.29c-.41-.87-.45-1.86-.08-2.76zm-13.85 21.28c-.28.23-.69.21-.95-.05s-.28-.66-.05-.95l6.68-8.22 2.54 2.54zm9.78-7.95-2.83-2.83 2.72-3.35 3.46 3.46zm6.37-2.53-6.66-6.66c-.21-.21-.21-.56 0-.77l1.11-1.11 7.43 7.43-1.11 1.11c-.21.21-.56.21-.77 0z"/></svg>