<svg width="37" height="33" viewBox="0 0 37 33" fill="none" xmlns="http://www.w3.org/2000/svg">
<path d="M9.84357 3.84432H6.69108C6.21869 3.84432 5.83594 3.49994 5.83594 3.07548C5.83594 2.65102 6.21869 2.30664 6.69108 2.30664H9.84357C10.316 2.30664 10.6987 2.65102 10.6987 3.07548C10.6987 3.49994 10.316 3.84432 9.84357 3.84432Z" fill="#602E98"/>
<path d="M20.7911 29.2171H2.56542C1.15076 29.2171 0 28.1825 0 26.9106V8.9915C0 8.56704 0.382755 8.22266 0.855139 8.22266H28.2196C28.692 8.22266 29.0747 8.56704 29.0747 8.9915V21.7695C29.0747 23.0414 27.924 24.076 26.5093 24.076H23.3565V26.9106C23.3565 28.1825 22.2058 29.2171 20.7911 29.2171ZM1.71028 9.76034V26.9106C1.71028 27.3345 2.09387 27.6794 2.56542 27.6794H20.7911C21.2627 27.6794 21.6463 27.3345 21.6463 26.9106V23.3071C21.6463 22.8827 22.029 22.5383 22.5014 22.5383H26.5093C26.9809 22.5383 27.3645 22.1934 27.3645 21.7695V9.76034H1.71028Z" fill="#602E98"/>
<path d="M28.221 9.75929C27.7486 9.75929 27.3659 9.41491 27.3659 8.99045V4.61316C27.3659 4.1892 26.9823 3.84432 26.5107 3.84432H25.5075C25.0351 3.84432 24.6523 3.49994 24.6523 3.07548C24.6523 2.65102 25.0351 2.30664 25.5075 2.30664H26.5107C27.9254 2.30664 29.0761 3.34127 29.0761 4.61316V8.99045C29.0761 9.41491 28.6934 9.75929 28.221 9.75929Z" fill="#602E98"/>
<path d="M0.855139 9.75929C0.382755 9.75929 0 9.41491 0 8.99045V4.61316C0 3.34127 1.15076 2.30664 2.56542 2.30664H3.56865C4.04104 2.30664 4.42379 2.65102 4.42379 3.07548C4.42379 3.49994 4.04104 3.84432 3.56865 3.84432H2.56542C2.09387 3.84432 1.71028 4.1892 1.71028 4.61316V8.99045C1.71028 9.41491 1.32752 9.75929 0.855139 9.75929Z" fill="#602E98"/>
<path d="M16.1189 3.84432H12.9606C12.4882 3.84432 12.1055 3.49994 12.1055 3.07548C12.1055 2.65102 12.4882 2.30664 12.9606 2.30664H16.1189C16.5913 2.30664 16.9741 2.65102 16.9741 3.07548C16.9741 3.49994 16.5913 3.84432 16.1189 3.84432Z" fill="#602E98"/>
<path d="M22.3924 3.84432H19.2399C18.7675 3.84432 18.3848 3.49994 18.3848 3.07548C18.3848 2.65102 18.7675 2.30664 19.2399 2.30664H22.3924C22.8648 2.30664 23.2475 2.65102 23.2475 3.07548C23.2475 3.49994 22.8648 3.84432 22.3924 3.84432Z" fill="#602E98"/>
<path d="M5.12883 6.09617C3.79769 6.09617 2.71484 5.12261 2.71484 3.92579V2.17038C2.71484 0.973568 3.79768 0 5.12883 0C6.4597 0 7.54254 0.973562 7.54254 2.17038V3.92579C7.54254 5.1226 6.4597 6.09617 5.12883 6.09617ZM5.12883 1.53769C4.74079 1.53769 4.42512 1.8215 4.42512 2.17038V3.9258C4.42512 4.27468 4.74079 4.55849 5.12883 4.55849C5.5166 4.55849 5.83226 4.27468 5.83226 3.9258V2.17038C5.83226 1.8215 5.5166 1.53769 5.12883 1.53769Z" fill="#602E98"/>
<path d="M11.4 6.09617C10.0692 6.09617 8.98633 5.12261 8.98633 3.92579V2.17038C8.98633 0.973568 10.0692 0 11.4 0C12.7309 0 13.8137 0.973562 13.8137 2.17038V3.92579C13.8137 5.1226 12.7309 6.09617 11.4 6.09617ZM11.4 1.53769C11.0123 1.53769 10.6966 1.8215 10.6966 2.17038V3.9258C10.6966 4.27468 11.0123 4.55849 11.4 4.55849C11.7878 4.55849 12.1035 4.27468 12.1035 3.9258V2.17038C12.1035 1.8215 11.7878 1.53769 11.4 1.53769Z" fill="#602E98"/>
<path d="M17.6793 6.09617C16.3485 6.09617 15.2656 5.12261 15.2656 3.92579V2.17038C15.2656 0.973568 16.3485 0 17.6793 0C19.0102 0 20.093 0.973562 20.093 2.17038V3.92579C20.093 5.1226 19.0102 6.09617 17.6793 6.09617ZM17.6793 1.53769C17.2916 1.53769 16.9759 1.8215 16.9759 2.17038V3.9258C16.9759 4.27468 17.2916 4.55849 17.6793 4.55849C18.0671 4.55849 18.3828 4.27468 18.3828 3.9258V2.17038C18.3828 1.8215 18.0671 1.53769 17.6793 1.53769Z" fill="#602E98"/>
<path d="M23.945 6.09617C22.6141 6.09617 21.5312 5.12261 21.5312 3.92579V2.17038C21.5312 0.973568 22.6141 0 23.945 0C25.2761 0 26.3589 0.973562 26.3589 2.17038V3.92579C26.3589 5.1226 25.2761 6.09617 23.945 6.09617ZM23.945 1.53769C23.5572 1.53769 23.2415 1.8215 23.2415 2.17038V3.9258C23.2415 4.27468 23.5572 4.55849 23.945 4.55849C24.333 4.55849 24.6487 4.27468 24.6487 3.9258V2.17038C24.6487 1.8215 24.333 1.53769 23.945 1.53769Z" fill="#602E98"/>
<path d="M21.5979 29.2165H20.7907C20.3183 29.2165 19.9355 28.8721 19.9355 28.4476C19.9355 28.0232 20.3183 27.6788 20.7907 27.6788H21.5979C23.0474 27.6788 24.4334 27.1928 25.5006 26.3108C26.6848 25.3322 27.364 23.9412 27.364 22.4946V21.7688C27.364 21.3444 27.7468 21 28.2191 21C28.6915 21 29.0743 21.3444 29.0743 21.7688V22.4946C29.0743 24.3702 28.1935 26.1737 26.6581 27.443C25.2746 28.5868 23.4775 29.2165 21.5979 29.2165Z" fill="#602E98"/>
<path d="M14.5383 13C11.4844 13 9 15.4844 9 18.5383C9 21.5922 11.4844 24.0769 14.5383 24.0769C17.5922 24.0769 20.0769 21.5922 20.0769 18.5383C20.0769 15.4844 17.5922 13 14.5383 13ZM11.0968 18.1283C10.8094 17.8091 10.8352 17.3174 11.1544 17.0301C11.4735 16.7427 11.9652 16.7685 12.2526 17.0876C12.54 17.4068 12.5142 17.8985 12.195 18.1858C11.8759 18.4732 11.3842 18.4474 11.0968 18.1283ZM13.0848 21.6849C12.6925 21.8595 12.2328 21.6831 12.0582 21.2907C11.8835 20.8984 12.0599 20.4387 12.4523 20.2641C12.8446 20.0894 13.3043 20.2658 13.479 20.6582C13.6536 21.0505 13.4772 21.5102 13.0848 21.6849ZM15.2119 18.9272C14.9971 19.2992 14.5215 19.4266 14.1496 19.2119C13.7777 18.9971 13.6503 18.5215 13.865 18.1496C14.0797 17.7777 14.5553 17.6503 14.9272 17.865C15.2992 18.0797 15.4266 18.5553 15.2119 18.9272ZM15.2119 15.9162C14.9971 16.2881 14.5215 16.4155 14.1496 16.2008C13.7777 15.986 13.6503 15.5105 13.865 15.1385C14.0797 14.7666 14.5553 14.6392 14.9272 14.8539C15.2992 15.0686 15.4266 15.5442 15.2119 15.9162ZM16.3896 21.7478C15.9625 21.7927 15.5798 21.4829 15.535 21.0557C15.4901 20.6286 15.7999 20.246 16.227 20.2011C16.6541 20.1562 17.0368 20.466 17.0817 20.8932C17.1265 21.3203 16.8167 21.7029 16.3896 21.7478ZM18.1628 17.7696C18.0735 18.1897 17.6605 18.4579 17.2405 18.3686C16.8204 18.2793 16.5522 17.8664 16.6415 17.4463C16.7308 17.0262 17.1437 16.758 17.5638 16.8473C17.9839 16.9366 18.2521 17.3495 18.1628 17.7696Z" fill="#DCBEFD"/>
<circle cx="28.6154" cy="24.6154" r="7.61538" fill="#A04DFE"/>
<g clip-path="url(#clip0_2871_7305)">
<rect width="7" height="7" transform="translate(25 21)" fill="#A04DFE"/>
<path d="M28.5471 27.8202C28.2913 27.8202 28.084 27.6228 28.084 27.3791V21.7692C28.084 21.5256 28.2913 21.3281 28.5471 21.3281C28.803 21.3281 29.0103 21.5256 29.0103 21.7692V27.3791C29.0103 27.6228 28.803 27.8202 28.5471 27.8202Z" fill="#FDFDFD"/>
<path d="M31.4922 25.015H25.6018C25.346 25.015 25.1387 24.8176 25.1387 24.5739C25.1387 24.3302 25.346 24.1328 25.6018 24.1328H31.4922C31.748 24.1328 31.9553 24.3302 31.9553 24.5739C31.9553 24.8176 31.748 25.015 31.4922 25.015Z" fill="#FDFDFD"/>
</g>
<defs>
<clipPath id="clip0_2871_7305">
<rect width="7" height="7" fill="white" transform="translate(25 21)"/>
</clipPath>
</defs>
</svg>
