<svg width="22" height="22" viewBox="0 0 22 22" fill="none" xmlns="http://www.w3.org/2000/svg">
<g clip-path="url(#clip0_4426_11890)">
<path d="M22.062 10.5548C21.9963 7.67676 20.813 4.99473 18.7306 3.00289C16.6511 1.01407 13.9203 -0.0512607 11.0418 0.0019469C8.16234 -0.0519321 5.43252 1.01407 3.3532 3.00289C1.27069 4.99473 0.0875772 7.67676 0.0216525 10.5547L0.0214844 10.5637V10.5728C0.0366201 13.5058 1.29491 16.2944 3.4795 18.2488V20.908C3.4795 21.4241 3.84057 21.8736 4.33787 21.977C4.41153 21.9923 4.48569 22 4.55952 22C4.75965 22 4.95642 21.9441 5.12964 21.8362L7.27101 20.501C8.47868 20.9231 9.73881 21.1369 11.02 21.1369H11.0361C11.1071 21.1383 11.1772 21.139 11.248 21.139C14.051 21.1388 16.7009 20.0772 18.7306 18.136C20.813 16.1442 21.9963 13.4621 22.062 10.5842L22.0624 10.5694L22.062 10.5548ZM17.8361 17.2044C16.0023 18.9585 13.5939 19.8969 11.0546 19.8469L11.0476 19.8467H11.0405C9.84897 19.8494 8.67628 19.6424 7.55674 19.2327C7.27992 19.1315 6.97839 19.1624 6.72932 19.3176L4.77226 20.5377V18.0917C4.77226 17.8188 4.65336 17.5591 4.446 17.3793C2.47146 15.6661 1.33039 13.1863 1.31441 10.5752C1.37462 8.04435 2.41596 5.68643 4.24773 3.93444C6.08134 2.1806 8.49045 1.24251 11.0291 1.29219L11.0418 1.29236L11.0546 1.29219C13.5934 1.24301 16.0023 2.1806 17.8361 3.93444C19.6662 5.68492 20.7075 8.04099 20.7693 10.5694C20.7075 13.0981 19.6662 15.454 17.8361 17.2044Z" fill="#86868B"/>
<path d="M15.7784 7.48828H6.30645C5.94959 7.48828 5.66016 7.77698 5.66016 8.13332C5.66016 8.48966 5.94959 8.77852 6.30645 8.77852H15.7784C16.1354 8.77852 16.4249 8.48966 16.4249 8.13332C16.4249 7.77698 16.1354 7.48828 15.7784 7.48828Z" fill="#86868B"/>
<path d="M15.7784 10.3418H6.30645C5.94959 10.3418 5.66016 10.6307 5.66016 10.9868C5.66016 11.3432 5.94959 11.632 6.30645 11.632H15.7784C16.1354 11.632 16.4249 11.3432 16.4249 10.9868C16.4249 10.6307 16.1354 10.3418 15.7784 10.3418Z" fill="#86868B"/>
<path d="M15.778 13.1953H11.1209C10.764 13.1953 10.4746 13.4842 10.4746 13.8405C10.4746 14.1967 10.764 14.4856 11.1209 14.4856H15.778C16.135 14.4856 16.4245 14.1967 16.4245 13.8405C16.4245 13.4842 16.135 13.1953 15.778 13.1953Z" fill="#86868B"/>
</g>
<defs>
<clipPath id="clip0_4426_11890">
<rect width="22" height="22" fill="white"/>
</clipPath>
</defs>
</svg>
