<svg width="20" height="22" viewBox="0 0 20 22" fill="none" xmlns="http://www.w3.org/2000/svg">
<path d="M14.7897 21.957C14.7888 21.957 13.02 21.9549 12.4497 21.9549C9.50711 21.9549 7.39853 21.6997 5.81415 21.1519C5.47662 21.0337 5.18164 20.9025 4.92148 20.7868C4.46085 20.582 4.09725 20.4204 3.72003 20.4204H2.18308C1.71774 20.4204 1.04386 20.3707 0.568264 19.941C0.0588613 19.481 0 18.8138 0 18.352L0.00033633 11.3391C0.00033633 10.6952 0.198447 10.1515 0.573477 9.767C0.842894 9.49039 1.34103 9.16074 2.18308 9.16074C2.22428 9.16074 2.26986 9.16124 2.3193 9.16174C2.79961 9.16712 3.58987 9.17551 4.10112 8.73256C4.13223 8.67297 4.1625 8.61708 4.18975 8.5669C4.20808 8.53047 4.2254 8.5006 4.23835 8.47794C4.24289 8.47022 4.2476 8.46249 4.25197 8.45393C4.28729 8.37018 4.32916 8.29599 4.37861 8.2302C4.65105 7.77516 4.95763 7.35085 5.22419 7.06064C5.81297 6.41779 6.3587 6.08528 6.84019 5.79172C7.40542 5.44713 7.81392 5.19821 8.16944 4.50534L8.19433 4.45717C8.72661 3.42139 8.94692 2.99271 9.08011 2.47842C9.12518 2.30403 9.14503 2.12074 9.13897 1.93376C9.09071 1.20799 9.4501 0.0939942 10.6445 -0.0389404L10.6801 -0.0429688H10.716C11.443 -0.0429688 12.0516 0.128906 12.5252 0.467621C13.23 0.971832 13.5874 1.79109 13.5874 2.90241C13.5874 4.88467 13.1017 6.47066 12.6826 7.47002L17.6705 8.09508C18.8654 8.1639 19.7883 9.24399 19.7335 10.5174C19.7044 11.1927 19.4239 11.8015 18.9969 12.2266C19.4005 12.6221 19.6151 13.1568 19.5916 13.7722C19.5838 14.3888 19.3943 14.8816 19.0282 15.237C18.8867 15.3743 18.7285 15.4807 18.5612 15.5629C18.8444 15.9365 18.9972 16.3914 18.9972 16.873C18.9972 17.5297 18.7482 18.1291 18.2958 18.5605C17.9271 18.912 17.445 19.1322 16.9339 19.1897C17.0134 19.4095 17.0503 19.6485 17.0403 19.9001C17.0393 20.0003 17.0298 20.1852 17.0153 20.273C16.9494 20.6698 16.7893 20.9842 16.5256 21.2345C16.0279 21.7071 15.4275 21.957 14.7897 21.957ZM2.18308 10.4498C1.55831 10.4498 1.29192 10.7157 1.29192 11.3392L1.29159 18.3522C1.29159 18.582 1.31648 18.8784 1.43487 18.9855C1.49525 19.0399 1.67284 19.1313 2.18308 19.1313H3.72003C4.37188 19.1313 4.89406 19.3636 5.44702 19.6094C5.69626 19.7203 5.9539 19.8348 6.2393 19.9348C7.66156 20.4264 9.69361 20.666 12.4497 20.666C13.0203 20.666 14.7905 20.6681 14.7905 20.6681C15.0941 20.6681 15.3786 20.5444 15.6356 20.3006C15.6682 20.2695 15.7124 20.2275 15.7395 20.0716C15.7432 20.0333 15.7481 19.9362 15.7489 19.8964L15.7483 19.8824L15.7496 19.8526C15.7609 19.6016 15.6369 19.4172 15.3813 19.3039C15.0793 19.1701 14.8976 18.8598 14.9292 18.5313C14.9691 18.1162 15.3408 17.807 15.7572 17.8419L16.6255 17.9153C16.9181 17.9257 17.2013 17.8215 17.4036 17.6286C17.6012 17.4401 17.7058 17.1788 17.7058 16.873C17.7058 16.459 17.4033 15.9903 16.7391 15.9387C16.5503 15.9243 16.3729 15.8321 16.2526 15.6859C16.1324 15.5403 16.0764 15.3491 16.0986 15.1616C16.1411 14.8039 16.4464 14.5387 16.8062 14.5466C17.2028 14.554 17.8664 14.5667 18.1278 14.313C18.1696 14.2725 18.2966 14.1491 18.3001 13.75L18.3007 13.7282C18.325 13.159 17.871 12.937 17.4857 12.8505H17.4853C17.1655 12.7787 16.9455 12.4787 16.9734 12.1529C17.0015 11.8271 17.2694 11.5692 17.5968 11.5529C18.0383 11.5306 18.4182 11.0411 18.4433 10.4621C18.468 9.88818 18.083 9.40344 17.5852 9.38162L17.5331 9.37709L12.4537 8.74062C12.0642 8.69177 11.7287 8.46904 11.5333 8.12949C11.3377 7.78993 11.3138 7.38844 11.4677 7.02808C11.777 6.30382 12.2958 4.80495 12.2958 2.90257C12.2958 1.46127 11.482 1.25348 10.7563 1.24643C10.614 1.26892 10.5417 1.33253 10.4867 1.47873C10.4312 1.62627 10.4253 1.79697 10.428 1.85521L10.4294 1.87065L10.429 1.87619C10.4408 2.19141 10.4077 2.50259 10.3303 2.80103C10.1613 3.45378 9.90501 3.95262 9.34347 5.04547L9.31875 5.09348C8.79758 6.10912 8.14455 6.50708 7.51322 6.89195C7.08522 7.15295 6.64241 7.42268 6.17691 7.93109C5.96315 8.16373 5.69777 8.53551 5.4667 8.92609L5.42617 8.99054C5.40044 9.04677 5.37572 9.08957 5.35856 9.11945C5.35386 9.12784 5.34864 9.13606 5.3441 9.14513L5.33031 9.17215C5.29113 9.24382 5.24538 9.32875 5.20199 9.41519L5.15507 9.50818L5.08124 9.58186C4.19025 10.4711 2.917 10.4574 2.30518 10.4508C2.26095 10.4501 2.22008 10.4498 2.18308 10.4498ZM15.7415 20.0599C15.7412 20.0617 15.7409 20.0637 15.7405 20.0657C15.7407 20.0647 15.7409 20.0636 15.7412 20.0625L15.7415 20.0599ZM15.742 20.0573C15.7419 20.0582 15.7417 20.059 15.7415 20.0599L15.742 20.0573ZM15.7496 19.9076C15.7496 19.9093 15.7498 19.9108 15.7498 19.9122L15.7496 19.9076ZM16.8387 14.6535H16.8397C16.8394 14.6535 16.839 14.6535 16.8387 14.6535ZM17.6629 12.8401C17.6626 12.8401 17.6623 12.8401 17.6618 12.8401H17.6629Z" fill="#86868B"/>
</svg>
