<svg id="Layer" height="512" viewBox="0 0 24 24" width="512" xmlns="http://www.w3.org/2000/svg"><path id="calendar-minus-alt" d="m11 19.25h-6c-1.577 0-2.25-.673-2.25-2.25v-8.25h16.5v2.25a.75.75 0 0 0 1.5 0v-4.5a3.383 3.383 0 0 0 -3.75-3.75h-1.25v-.75a.75.75 0 0 0 -1.5 0v.75h-6.5v-.75a.75.75 0 0 0 -1.5 0v.75h-1.25a3.383 3.383 0 0 0 -3.75 3.75v10.5a3.383 3.383 0 0 0 3.75 3.75h6a.75.75 0 0 0 0-1.5zm-6-15h1.25v.75a.75.75 0 0 0 1.5 0v-.75h6.5v.75a.75.75 0 0 0 1.5 0v-.75h1.25c1.577 0 2.25.673 2.25 2.25v.75h-16.5v-.75c0-1.577.673-2.25 2.25-2.25zm3.02 7.75a1 1 0 1 1 -1.01-1h.01a1 1 0 0 1 1 1zm4 0a1 1 0 1 1 -1.01-1h.01a1 1 0 0 1 1 1zm7.98 6a.75.75 0 0 1 -.75.75h-2.5a.75.75 0 0 1 0-1.5h2.5a.75.75 0 0 1 .75.75zm-2-4.75a4.75 4.75 0 1 0 4.75 4.75 4.756 4.756 0 0 0 -4.75-4.75zm0 8a3.25 3.25 0 1 1 3.25-3.25 3.254 3.254 0 0 1 -3.25 3.25zm-9.98-5.25a1 1 0 1 1 -1.01-1h.01a1 1 0 0 1 1 1z" fill="rgb(0,0,0)"/></svg>