<svg id="Layer" height="512" viewBox="0 0 24 24" width="512" xmlns="http://www.w3.org/2000/svg"><path id="calendar-check" d="m18 3.75h-1.25v-.75a.75.75 0 0 0 -1.5 0v.75h-6.5v-.75a.75.75 0 0 0 -1.5 0v.75h-1.25a3.383 3.383 0 0 0 -3.75 3.75v10.5a3.383 3.383 0 0 0 3.75 3.75h12a3.383 3.383 0 0 0 3.75-3.75v-10.5a3.383 3.383 0 0 0 -3.75-3.75zm-12 1.5h1.25v.75a.75.75 0 0 0 1.5 0v-.75h6.5v.75a.75.75 0 0 0 1.5 0v-.75h1.25c1.577 0 2.25.673 2.25 2.25v.75h-16.5v-.75c0-1.577.673-2.25 2.25-2.25zm12 15h-12c-1.577 0-2.25-.673-2.25-2.25v-8.25h16.5v8.25c0 1.577-.673 2.25-2.25 2.25zm-2.97-7.45a.75.75 0 0 1 0 1.061l-3.33 3.339a.748.748 0 0 1 -1.06 0l-1.67-1.67a.75.75 0 0 1 1.06-1.06l1.137 1.136 2.8-2.8a.749.749 0 0 1 1.063-.006z" fill="rgb(0,0,0)"/></svg>