<svg width="44" height="44" viewBox="0 0 44 44" fill="none" xmlns="http://www.w3.org/2000/svg">
<path d="M16.3349 7.5625H12.5332C11.9635 7.5625 11.502 7.10058 11.502 6.53125C11.502 5.96192 11.9635 5.5 12.5332 5.5H16.3349C16.9046 5.5 17.3662 5.96192 17.3662 6.53125C17.3662 7.10058 16.9046 7.5625 16.3349 7.5625Z" fill="#2E6698"/>
<path d="M29.5417 41.5936H7.5625C5.8565 41.5936 4.46875 40.2058 4.46875 38.4998V14.4648C4.46875 13.8955 4.93033 13.4336 5.5 13.4336H38.5C39.0697 13.4336 39.5312 13.8955 39.5312 14.4648V31.604C39.5312 33.31 38.1435 34.6978 36.4375 34.6978H32.6354V38.4998C32.6354 40.2058 31.2477 41.5936 29.5417 41.5936ZM6.53125 15.4961V38.4998C6.53125 39.0685 6.99383 39.5311 7.5625 39.5311H29.5417C30.1104 39.5311 30.5729 39.0685 30.5729 38.4998V33.6665C30.5729 33.0972 31.0345 32.6353 31.6042 32.6353H36.4375C37.0062 32.6353 37.4688 32.1727 37.4688 31.604V15.4961H6.53125Z" fill="#2E6698"/>
<path d="M38.4999 15.4963C37.9302 15.4963 37.4686 15.0344 37.4686 14.465V8.59375C37.4686 8.02508 37.006 7.5625 36.4374 7.5625H35.2275C34.6579 7.5625 34.1963 7.10058 34.1963 6.53125C34.1963 5.96192 34.6579 5.5 35.2275 5.5H36.4374C38.1434 5.5 39.5311 6.88775 39.5311 8.59375V14.465C39.5311 15.0344 39.0695 15.4963 38.4999 15.4963Z" fill="#2E6698"/>
<path d="M5.5 15.4963C4.93033 15.4963 4.46875 15.0344 4.46875 14.465V8.59375C4.46875 6.88775 5.8565 5.5 7.5625 5.5H8.77234C9.34201 5.5 9.80359 5.96192 9.80359 6.53125C9.80359 7.10058 9.34201 7.5625 8.77234 7.5625H7.5625C6.99383 7.5625 6.53125 8.02508 6.53125 8.59375V14.465C6.53125 15.0344 6.06967 15.4963 5.5 15.4963Z" fill="#2E6698"/>
<path d="M23.9045 7.5625H20.0957C19.526 7.5625 19.0645 7.10058 19.0645 6.53125C19.0645 5.96192 19.526 5.5 20.0957 5.5H23.9045C24.4741 5.5 24.9357 5.96192 24.9357 6.53125C24.9357 7.10058 24.4741 7.5625 23.9045 7.5625Z" fill="#2E6698"/>
<path d="M31.4668 7.5625H27.665C27.0954 7.5625 26.6338 7.10058 26.6338 6.53125C26.6338 5.96192 27.0954 5.5 27.665 5.5H31.4668C32.0364 5.5 32.498 5.96192 32.498 6.53125C32.498 7.10058 32.0364 7.5625 31.4668 7.5625Z" fill="#2E6698"/>
<path d="M18.0398 26.9022C18.0398 29.0266 17.1667 31.0134 15.5717 32.5397C14.238 31.0341 13.4404 29.0609 13.4404 26.9022C13.4404 24.7435 14.238 22.7634 15.5717 21.2578C17.1667 22.7841 18.0398 24.7709 18.0398 26.9022Z" fill="#4DABFE"/>
<path d="M23.8979 26.9022C23.8979 29.5078 24.9773 32.024 26.8885 33.9215C25.5067 34.8909 23.8223 35.4615 22.0004 35.4615C20.1785 35.4615 18.4942 34.8909 17.1123 33.9215C19.0235 32.024 20.1029 29.5078 20.1029 26.9022C20.1029 24.2896 19.0235 21.7734 17.1123 19.8828C18.4942 18.9134 20.1785 18.3428 22.0004 18.3428C23.8223 18.3428 25.5067 18.9134 26.8885 19.8828C24.9773 21.7734 23.8979 24.2896 23.8979 26.9022Z" fill="#4DABFE"/>
<path d="M30.5593 26.9022C30.5593 29.0609 29.7618 31.0341 28.4281 32.5397C26.8331 31.0134 25.96 29.0266 25.96 26.9022C25.96 24.7709 26.8331 22.7841 28.4281 21.2578C29.7618 22.7634 30.5593 24.7434 30.5593 26.9022Z" fill="#4DABFE"/>
<path d="M10.6523 10.5831C9.04706 10.5831 7.74121 9.27723 7.74121 7.67194V5.31739C7.74121 3.7121 9.04706 2.40625 10.6523 2.40625C12.2573 2.40625 13.5631 3.71209 13.5631 5.31739V7.67194C13.5631 9.27722 12.2573 10.5831 10.6523 10.5831ZM10.6523 4.46876C10.1844 4.46876 9.80371 4.84943 9.80371 5.31739V7.67194C9.80371 8.1399 10.1844 8.52058 10.6523 8.52058C11.12 8.52058 11.5006 8.1399 11.5006 7.67194V5.31739C11.5006 4.84944 11.12 4.46876 10.6523 4.46876Z" fill="#2E6698"/>
<path d="M18.2174 10.5831C16.6125 10.5831 15.3066 9.27723 15.3066 7.67194V5.31739C15.3066 3.7121 16.6125 2.40625 18.2174 2.40625C19.8224 2.40625 21.1282 3.71209 21.1282 5.31739V7.67194C21.1282 9.27722 19.8224 10.5831 18.2174 10.5831ZM18.2174 4.46876C17.7498 4.46876 17.3691 4.84943 17.3691 5.31739V7.67194C17.3691 8.1399 17.7498 8.52058 18.2174 8.52058C18.6851 8.52058 19.0657 8.1399 19.0657 7.67194V5.31739C19.0657 4.84944 18.6851 4.46876 18.2174 4.46876Z" fill="#2E6698"/>
<path d="M25.7829 10.5831C24.1779 10.5831 22.8721 9.27723 22.8721 7.67194V5.31739C22.8721 3.7121 24.1779 2.40625 25.7829 2.40625C27.3878 2.40625 28.6937 3.71209 28.6937 5.31739V7.67194C28.6937 9.27722 27.3878 10.5831 25.7829 10.5831ZM25.7829 4.46876C25.3152 4.46876 24.9346 4.84943 24.9346 5.31739V7.67194C24.9346 8.1399 25.3152 8.52058 25.7829 8.52058C26.2505 8.52058 26.6312 8.1399 26.6312 7.67194V5.31739C26.6312 4.84944 26.2505 4.46876 25.7829 4.46876Z" fill="#2E6698"/>
<path d="M33.3473 10.5831C31.7424 10.5831 30.4365 9.27723 30.4365 7.67194V5.31739C30.4365 3.7121 31.7424 2.40625 33.3473 2.40625C34.9526 2.40625 36.2585 3.71209 36.2585 5.31739V7.67194C36.2585 9.27722 34.9526 10.5831 33.3473 10.5831ZM33.3473 4.46876C32.8797 4.46876 32.499 4.84943 32.499 5.31739V7.67194C32.499 8.1399 32.8797 8.52058 33.3473 8.52058C33.8153 8.52058 34.196 8.1399 34.196 7.67194V5.31739C34.196 4.84944 33.8153 4.46876 33.3473 4.46876Z" fill="#2E6698"/>
<path d="M30.5155 41.5941H29.542C28.9723 41.5941 28.5107 41.1321 28.5107 40.5628C28.5107 39.9935 28.9723 39.5316 29.542 39.5316H30.5155C32.2635 39.5316 33.9349 38.8796 35.2219 37.6967C36.65 36.3841 37.4691 34.5183 37.4691 32.578V31.6045C37.4691 31.0352 37.9306 30.5732 38.5003 30.5732C39.07 30.5732 39.5316 31.0352 39.5316 31.6045V32.578C39.5316 35.0937 38.4694 37.5127 36.6177 39.2153C34.9493 40.7495 32.7821 41.5941 30.5155 41.5941Z" fill="#2E6698"/>
</svg>
