<svg width="41" height="35" viewBox="0 0 41 35" fill="none" xmlns="http://www.w3.org/2000/svg">
<path d="M38.0741 35.0019H4.92092C4.67668 35.0019 4.44244 34.9049 4.26973 34.7321C4.09703 34.5594 4 34.3252 4 34.0809V0.926807C4 0.682557 4.09703 0.44831 4.26973 0.275599C4.44244 0.102888 4.67668 0.00585938 4.92092 0.00585938C5.16517 0.00585938 5.39941 0.102888 5.57211 0.275599C5.74482 0.44831 5.84184 0.682557 5.84184 0.926807V33.16H38.0741C38.3184 33.16 38.5526 33.257 38.7253 33.4297C38.898 33.6024 38.995 33.8367 38.995 34.0809C38.995 34.3252 38.898 34.5594 38.7253 34.7321C38.5526 34.9049 38.3184 35.0019 38.0741 35.0019Z" fill="#2E6698"/>
<path d="M28.5959 7.0845C28.5959 8.82349 27.8774 10.4519 26.5511 11.6993C25.4826 10.458 24.8379 8.84807 24.8379 7.0845C24.8379 5.32093 25.4826 3.71098 26.5511 2.46973C27.8774 3.71713 28.5959 5.34551 28.5959 7.0845Z" fill="#4DABFE"/>
<path d="M33.3918 7.085C33.3918 9.26027 34.3067 11.368 35.9094 12.9349C34.7734 13.7153 33.3979 14.17 31.9181 14.17C30.4382 14.17 29.0627 13.7153 27.9268 12.9349C29.5294 11.368 30.4382 9.26027 30.4382 7.085C30.4382 4.90973 29.5294 2.80819 27.9268 1.24126C29.0627 0.454718 30.4382 0 31.9181 0C33.3979 0 34.7734 0.454718 35.9094 1.24126C34.3067 2.80819 33.3918 4.90973 33.3918 7.085Z" fill="#4DABFE"/>
<path d="M38.9975 7.0845C38.9975 8.84807 38.3528 10.458 37.2843 11.6993C35.958 10.458 35.2334 8.82964 35.2334 7.0845C35.2334 5.33937 35.958 3.71098 37.2843 2.46973C38.3916 3.75163 38.9999 5.39008 38.9975 7.0845Z" fill="#4DABFE"/>
<path d="M4.92046 35.0023C4.76564 35.0024 4.6133 34.9634 4.47755 34.889C4.3418 34.8146 4.22703 34.7071 4.14389 34.5765C4.06074 34.4459 4.01191 34.2964 4.00192 34.1419C3.99192 33.9874 4.02109 33.8329 4.08672 33.6927L10.3686 20.2002C10.4387 20.0491 10.5485 19.9198 10.6862 19.8262C10.8239 19.7325 10.9845 19.678 11.1508 19.6685C11.3169 19.661 11.482 19.6977 11.6293 19.7749C11.7765 19.8522 11.9006 19.9671 11.9888 20.1081L15.1507 25.2777L19.6804 12.9284C19.7439 12.7549 19.858 12.6046 20.008 12.4969C20.158 12.3891 20.3369 12.329 20.5215 12.3242C20.9034 12.3254 21.2447 12.5373 21.3921 12.8854L24.9303 21.2015L27.251 15.2356C27.293 15.1204 27.3576 15.0148 27.4409 14.9249C27.5243 14.8349 27.6248 14.7626 27.7365 14.712C27.8482 14.6615 27.9689 14.6337 28.0915 14.6304C28.214 14.6271 28.336 14.6483 28.4503 14.6928C28.5646 14.7373 28.6688 14.8041 28.7569 14.8894C28.845 14.9748 28.9151 15.0768 28.9632 15.1896C29.0114 15.3024 29.0365 15.4236 29.0371 15.5462C29.0378 15.6688 29.0139 15.7904 28.967 15.9036L25.826 23.9779C25.6909 24.3266 25.357 24.5587 24.9824 24.5648H24.9677C24.5993 24.5648 24.2654 24.345 24.1205 24.0043L20.6081 15.7465L16.2226 27.7004C16.1629 27.8627 16.0586 28.005 15.9217 28.1108C15.7849 28.2166 15.621 28.2818 15.4488 28.2987C15.2766 28.3157 15.1031 28.2839 14.9482 28.2068C14.7933 28.1298 14.6633 28.0106 14.573 27.8631L11.3135 22.5338L5.75543 34.4693C5.68166 34.6285 5.56391 34.7632 5.41608 34.8576C5.26824 34.9521 5.09588 35.0022 4.92046 35.0023Z" fill="#2E6698"/>
</svg>
