<svg width="44" height="44" viewBox="0 0 44 44" fill="none" xmlns="http://www.w3.org/2000/svg">
<path d="M33.375 24.75C34.1344 24.75 34.75 24.1344 34.75 23.375C34.75 22.6156 34.1344 22 33.375 22C32.6156 22 32 22.6156 32 23.375C32 24.1344 32.6156 24.75 33.375 24.75Z" fill="#4DABFE"/>
<path d="M22.8267 32.5739C22.7655 32.5739 22.7037 32.5684 22.6411 32.5574L19.7536 32.0349C19.4845 31.9861 19.2457 31.8324 19.0899 31.6076C18.9341 31.3828 18.874 31.1054 18.9228 30.8362C18.9715 30.5671 19.1252 30.3284 19.35 30.1726C19.5748 30.0167 19.8523 29.9566 20.1214 30.0054L23.0089 30.5279C23.2622 30.5737 23.4892 30.7127 23.6452 30.9174C23.8013 31.1221 23.8752 31.3777 23.8524 31.6341C23.8295 31.8905 23.7116 32.1291 23.5219 32.303C23.3321 32.4769 23.0841 32.5735 22.8267 32.5739ZM39.5247 23.1964C39.3208 23.1963 39.1215 23.1359 38.952 23.0226C38.7825 22.9093 38.6503 22.7483 38.5723 22.56C38.4942 22.3716 38.4737 22.1643 38.5134 21.9644C38.5531 21.7644 38.6512 21.5806 38.7953 21.4364C39.6093 20.6217 39.7653 19.3381 39.1741 18.3151C37.9297 16.1543 36.6537 14.4555 35.1598 12.9684C33.6693 11.4711 31.9712 10.1958 29.811 8.95138C28.7867 8.36013 27.5038 8.5155 26.6891 9.3295L26.5014 9.51719C24.8531 11.1664 23.2033 12.8141 21.5521 14.4603C21.4568 14.5586 21.3428 14.637 21.2169 14.6907C21.091 14.7445 20.9556 14.7727 20.8187 14.7736C20.6818 14.7746 20.5461 14.7482 20.4194 14.6961C20.2928 14.644 20.1778 14.5673 20.0812 14.4703C19.9845 14.3732 19.9082 14.258 19.8566 14.1311C19.805 14.0043 19.7791 13.8685 19.7806 13.7316C19.782 13.5947 19.8107 13.4594 19.865 13.3337C19.9192 13.208 19.998 13.0943 20.0967 12.9994C21.8498 11.2531 23.684 9.41751 25.0432 8.05901L25.2309 7.87132C26.7042 6.39801 29.0122 6.10719 30.8416 7.16457C33.1626 8.50244 34.9989 9.88294 36.6187 11.5096C38.2418 13.1266 39.623 14.9622 40.9609 17.2846C42.0176 19.1133 41.7268 21.4206 40.2542 22.8946C40.0527 23.096 39.7887 23.1964 39.5247 23.1964ZM17.1026 29.2189C16.8611 29.2185 16.6273 29.1334 16.4421 28.9784C16.257 28.8233 16.1321 28.6082 16.0892 28.3705L14.7898 21.1655C14.7286 20.8312 14.7074 20.4908 14.7266 20.1514C14.741 19.8783 14.8633 19.6221 15.0666 19.4391C15.27 19.2562 15.5376 19.1615 15.8108 19.1759C16.0839 19.1903 16.3402 19.3126 16.5231 19.5159C16.7061 19.7193 16.8007 19.9869 16.7863 20.2601C16.776 20.4484 16.7863 20.6279 16.818 20.7908L18.1187 28.0048C18.1455 28.1534 18.1393 28.3061 18.1006 28.452C18.0619 28.598 17.9916 28.7337 17.8946 28.8495C17.7977 28.9653 17.6765 29.0584 17.5397 29.1222C17.4028 29.1861 17.2536 29.2191 17.1026 29.2189Z" fill="#2E6698"/>
<path d="M11.0802 41.594C10.8664 41.594 10.6547 41.5517 10.4573 41.4696C10.2599 41.3874 10.0807 41.2671 9.92999 41.1155L7.00949 38.195C6.81606 38.0025 6.67428 37.7643 6.59726 37.5024C6.52023 37.2406 6.51045 36.9636 6.5688 36.697C6.62599 36.4301 6.74951 36.1819 6.92794 35.9753C7.10638 35.7688 7.33398 35.6105 7.58974 35.5152L8.7688 35.0731L16.3794 27.4631C16.7658 27.0761 17.4506 27.0761 17.8369 27.4631L20.6612 30.2874C20.8545 30.4808 20.9631 30.743 20.9631 31.0165C20.9631 31.2899 20.8545 31.5522 20.6612 31.7456L13.0519 39.3562L12.6099 40.5353C12.4941 40.8472 12.2853 41.116 12.0117 41.3054C11.7381 41.4948 11.4129 41.5955 11.0802 41.594ZM8.94205 37.2112L10.9138 39.183L11.1991 38.4226C11.2514 38.2851 11.3318 38.16 11.4356 38.0561L18.4742 31.0161L17.1082 29.6508L10.0696 36.6894C9.96544 36.7935 9.84026 36.8741 9.70243 36.9259L8.94205 37.2112Z" fill="#2E6698"/>
<path d="M10.0711 21.7327C9.96303 21.7327 9.85257 21.7156 9.74412 21.6793C9.20389 21.4987 8.91245 20.9142 9.09275 20.3739C9.75284 18.4 9.51043 16.3784 8.42761 14.8279C7.35186 13.2734 5.54113 12.345 3.45676 12.2768C2.88732 12.2584 2.44076 11.7819 2.45956 11.2125C2.47836 10.6431 2.96017 10.1985 3.5239 10.2153C6.26803 10.3046 8.67271 11.5566 10.1215 13.6504C11.5794 15.7385 11.9185 18.4286 11.0495 21.028C10.9052 21.4598 10.5029 21.7327 10.0711 21.7327Z" fill="#4DABFE"/>
<path d="M20.9087 14.1827C20.8973 14.1827 20.8858 14.1823 20.8741 14.182C18.1303 14.0924 15.7256 12.8403 14.2768 10.7469C12.819 8.65883 12.4799 5.96842 13.3495 3.369C13.5301 2.8291 14.113 2.53834 14.6549 2.7183C15.1951 2.89894 15.4866 3.48349 15.3056 4.02373C14.6455 5.9973 14.8879 8.01854 15.9707 9.5694C17.0465 11.1236 18.8572 12.052 20.9419 12.1205C21.511 12.1389 21.9576 12.6157 21.9388 13.1852C21.9207 13.7428 21.4627 14.1827 20.9087 14.1827Z" fill="#4DABFE"/>
<path d="M12.1993 21.9943C6.79833 21.9943 2.4043 17.6003 2.4043 12.1993C2.4043 6.79834 6.79833 2.4043 12.1993 2.4043C17.6003 2.4043 21.9943 6.79834 21.9943 12.1993C21.9943 17.6003 17.6003 21.9943 12.1993 21.9943ZM12.1993 4.46718C7.93587 4.46718 4.46718 7.93587 4.46718 12.1993C4.46718 16.4627 7.93587 19.9314 12.1993 19.9314C16.4627 19.9314 19.9314 16.4627 19.9314 12.1993C19.9314 7.93587 16.4627 4.46718 12.1993 4.46718Z" fill="#2E6698"/>
<path d="M34.375 19.75C35.1344 19.75 35.75 19.1344 35.75 18.375C35.75 17.6156 35.1344 17 34.375 17C33.6156 17 33 17.6156 33 18.375C33 19.1344 33.6156 19.75 34.375 19.75Z" fill="#4DABFE"/>
<path d="M30.375 15.75C31.1344 15.75 31.75 15.1344 31.75 14.375C31.75 13.6156 31.1344 13 30.375 13C29.6156 13 29 13.6156 29 14.375C29 15.1344 29.6156 15.75 30.375 15.75Z" fill="#4DABFE"/>
<path d="M25.375 16.75C26.1344 16.75 26.75 16.1344 26.75 15.375C26.75 14.6156 26.1344 14 25.375 14C24.6156 14 24 14.6156 24 15.375C24 16.1344 24.6156 16.75 25.375 16.75Z" fill="#4DABFE"/>
<path d="M29.375 20.75C30.1344 20.75 30.75 20.1344 30.75 19.375C30.75 18.6156 30.1344 18 29.375 18C28.6156 18 28 18.6156 28 19.375C28 20.1344 28.6156 20.75 29.375 20.75Z" fill="#4DABFE"/>
<path d="M23.375 21.75C24.1344 21.75 24.75 21.1344 24.75 20.375C24.75 19.6156 24.1344 19 23.375 19C22.6156 19 22 19.6156 22 20.375C22 21.1344 22.6156 21.75 23.375 21.75Z" fill="#4DABFE"/>
<path d="M23.375 21.75C24.1344 21.75 24.75 21.1344 24.75 20.375C24.75 19.6156 24.1344 19 23.375 19C22.6156 19 22 19.6156 22 20.375C22 21.1344 22.6156 21.75 23.375 21.75Z" fill="#4DABFE"/>
<path d="M27.375 25.75C28.1344 25.75 28.75 25.1344 28.75 24.375C28.75 23.6156 28.1344 23 27.375 23C26.6156 23 26 23.6156 26 24.375C26 25.1344 26.6156 25.75 27.375 25.75Z" fill="#4DABFE"/>
<path d="M41.5482 38.1259L39.6658 27.4594C39.5156 26.6022 39.0677 25.8254 38.401 25.2661C37.7343 24.7067 36.8917 24.4004 36.0214 24.4014H26.1413C25.2709 24.4001 24.428 24.7062 23.7611 25.2657C23.0943 25.8251 22.6463 26.602 22.4962 27.4594L20.6138 38.1259C20.5383 38.5508 20.557 38.9871 20.6687 39.404C20.7804 39.8209 20.9823 40.2081 21.2601 40.5384C21.537 40.8691 21.8832 41.135 22.2741 41.3174C22.6651 41.4997 23.0913 41.594 23.5226 41.5937C24.1009 41.5942 24.6666 41.4248 25.1494 41.1065C25.6322 40.7882 26.0108 40.3351 26.2383 39.8034L27.7597 36.2539H34.403L35.9238 39.8034C36.1512 40.3351 36.5298 40.7882 37.0126 41.1065C37.4954 41.4248 38.0611 41.5942 38.6394 41.5937C39.5146 41.5937 40.3396 41.2087 40.9026 40.5384C41.1803 40.2081 41.3821 39.8208 41.4936 39.4039C41.6052 38.9871 41.6238 38.5508 41.5482 38.1259ZM29.2543 31.3589H28.6452V31.9687C28.6452 32.2422 28.5365 32.5045 28.3432 32.6979C28.1498 32.8913 27.8874 32.9999 27.6139 32.9999C27.3404 32.9999 27.0781 32.8913 26.8847 32.6979C26.6913 32.5045 26.5827 32.2422 26.5827 31.9687V31.3589H25.9729C25.6994 31.3589 25.4371 31.2502 25.2437 31.0568C25.0503 30.8634 24.9416 30.6011 24.9416 30.3276C24.9416 30.0541 25.0503 29.7918 25.2437 29.5984C25.4371 29.405 25.6994 29.2964 25.9729 29.2964H26.5827V28.6866C26.5827 28.4131 26.6913 28.1508 26.8847 27.9574C27.0781 27.764 27.3404 27.6553 27.6139 27.6553C27.8874 27.6553 28.1498 27.764 28.3432 27.9574C28.5365 28.1508 28.6452 28.4131 28.6452 28.6866V29.2964H29.2543C29.5278 29.2964 29.7901 29.405 29.9835 29.5984C30.1769 29.7918 30.2856 30.0541 30.2856 30.3276C30.2856 30.6011 30.1769 30.8634 29.9835 31.0568C29.7901 31.2502 29.5278 31.3589 29.2543 31.3589ZM36.1891 31.3589H35.5793V31.9687C35.5793 32.2422 35.4707 32.5045 35.2773 32.6979C35.0839 32.8913 34.8216 32.9999 34.5481 32.9999C34.2746 32.9999 34.0123 32.8913 33.8189 32.6979C33.6255 32.5045 33.5168 32.2422 33.5168 31.9687V31.3589H32.9077C32.6342 31.3589 32.3719 31.2502 32.1785 31.0568C31.9851 30.8634 31.8764 30.6011 31.8764 30.3276C31.8764 30.0541 31.9851 29.7918 32.1785 29.5984C32.3719 29.405 32.6342 29.2964 32.9077 29.2964H33.5168V28.6866C33.5168 28.4131 33.6255 28.1508 33.8189 27.9574C34.0123 27.764 34.2746 27.6553 34.5481 27.6553C34.8216 27.6553 35.0839 27.764 35.2773 27.9574C35.4707 28.1508 35.5793 28.4131 35.5793 28.6866V29.2964H36.1891C36.4626 29.2964 36.7249 29.405 36.9183 29.5984C37.1117 29.7918 37.2204 30.0541 37.2204 30.3276C37.2204 30.6011 37.1117 30.8634 36.9183 31.0568C36.7249 31.2502 36.4626 31.3589 36.1891 31.3589Z" fill="#4DABFE"/>
<path d="M16.8945 34.9087C16.6305 34.9087 16.3665 34.8077 16.1658 34.6062L13.3395 31.7806C13.2393 31.6859 13.1592 31.5721 13.1037 31.4459C13.0483 31.3197 13.0188 31.1837 13.0168 31.0458C13.0149 30.908 13.0406 30.7712 13.0924 30.6435C13.1442 30.5157 13.2211 30.3997 13.3186 30.3022C13.416 30.2047 13.532 30.1278 13.6597 30.0759C13.7874 30.024 13.9242 29.9982 14.0621 30.0001C14.1999 30.002 14.3359 30.0315 14.4622 30.0868C14.5884 30.1422 14.7022 30.2223 14.797 30.3224L17.6233 33.1481C17.7673 33.2923 17.8654 33.4759 17.9051 33.6759C17.9448 33.8758 17.9244 34.083 17.8464 34.2713C17.7685 34.4596 17.6364 34.6206 17.467 34.734C17.2976 34.8473 17.0984 34.9086 16.8945 34.9087ZM13.8695 37.9331C13.6062 37.9331 13.3422 37.8327 13.1408 37.6312L10.3152 34.8056C10.2166 34.7105 10.138 34.5968 10.0839 34.471C10.0298 34.3452 10.0013 34.2099 10 34.073C9.99879 33.936 10.0248 33.8002 10.0766 33.6735C10.1284 33.5467 10.2049 33.4315 10.3017 33.3347C10.3985 33.2378 10.5136 33.1612 10.6403 33.1092C10.767 33.0573 10.9028 33.0312 11.0397 33.0323C11.1767 33.0334 11.312 33.0618 11.4378 33.1158C11.5637 33.1698 11.6775 33.2483 11.7727 33.3467L14.5983 36.1724C14.7426 36.3165 14.8409 36.5003 14.8807 36.7003C14.9206 36.9004 14.9002 37.1077 14.8222 37.2962C14.7442 37.4847 14.612 37.6458 14.4425 37.7591C14.2729 37.8725 14.0735 37.933 13.8695 37.9331Z" fill="#2E6698"/>
</svg>
