<svg width="44" height="44" viewBox="0 0 44 44" fill="none" xmlns="http://www.w3.org/2000/svg">
<path d="M22.8267 32.5739C22.7655 32.5739 22.7037 32.5684 22.6411 32.5574L19.7536 32.0349C19.4845 31.9861 19.2457 31.8324 19.0899 31.6076C18.9341 31.3828 18.874 31.1054 18.9228 30.8362C18.9715 30.5671 19.1252 30.3284 19.35 30.1726C19.5748 30.0167 19.8523 29.9566 20.1214 30.0054L23.0089 30.5279C23.2622 30.5737 23.4892 30.7127 23.6452 30.9174C23.8013 31.1221 23.8752 31.3777 23.8524 31.6341C23.8295 31.8905 23.7116 32.1291 23.5219 32.303C23.3321 32.4769 23.0841 32.5735 22.8267 32.5739ZM39.5247 23.1964C39.3208 23.1963 39.1215 23.1359 38.952 23.0226C38.7825 22.9093 38.6503 22.7483 38.5723 22.56C38.4942 22.3716 38.4737 22.1643 38.5134 21.9644C38.5531 21.7644 38.6512 21.5806 38.7953 21.4364C39.6093 20.6217 39.7653 19.3381 39.1741 18.3151C37.9297 16.1543 36.6537 14.4555 35.1598 12.9684C33.6693 11.4711 31.9712 10.1958 29.811 8.95138C28.7867 8.36013 27.5038 8.5155 26.6891 9.3295L26.5014 9.51719C24.8531 11.1664 23.2033 12.8141 21.5521 14.4603C21.4568 14.5586 21.3428 14.637 21.2169 14.6907C21.091 14.7445 20.9556 14.7727 20.8187 14.7736C20.6818 14.7746 20.5461 14.7482 20.4194 14.6961C20.2928 14.644 20.1778 14.5673 20.0812 14.4703C19.9845 14.3732 19.9082 14.258 19.8566 14.1311C19.805 14.0043 19.7791 13.8685 19.7806 13.7316C19.782 13.5947 19.8107 13.4594 19.865 13.3337C19.9192 13.208 19.998 13.0943 20.0967 12.9994C21.8498 11.2531 23.684 9.41751 25.0432 8.05901L25.2309 7.87132C26.7042 6.39801 29.0122 6.10719 30.8416 7.16457C33.1626 8.50244 34.9989 9.88294 36.6187 11.5096C38.2418 13.1266 39.623 14.9622 40.9609 17.2846C42.0176 19.1133 41.7268 21.4206 40.2542 22.8946C40.0527 23.096 39.7887 23.1964 39.5247 23.1964ZM17.1026 29.2189C16.8611 29.2185 16.6273 29.1334 16.4421 28.9784C16.257 28.8233 16.1321 28.6082 16.0892 28.3705L14.7898 21.1655C14.7286 20.8312 14.7074 20.4908 14.7266 20.1514C14.741 19.8783 14.8633 19.6221 15.0666 19.4391C15.27 19.2562 15.5376 19.1615 15.8108 19.1759C16.0839 19.1903 16.3402 19.3126 16.5231 19.5159C16.7061 19.7193 16.8008 19.9869 16.7863 20.2601C16.776 20.4484 16.7863 20.6279 16.818 20.7908L18.1187 28.0048C18.1455 28.1534 18.1393 28.3061 18.1006 28.452C18.0619 28.598 17.9916 28.7337 17.8946 28.8495C17.7977 28.9653 17.6765 29.0584 17.5397 29.1222C17.4028 29.1861 17.2536 29.2191 17.1026 29.2189Z" fill="#602E98"/>
<path d="M31.8043 17.5381H24.7395C24.466 17.5381 24.2037 17.4294 24.0103 17.236C23.8169 17.0426 23.7083 16.7803 23.7083 16.5068C23.7083 16.2333 23.8169 15.971 24.0103 15.7776C24.2037 15.5842 24.466 15.4756 24.7395 15.4756H31.8036C32.0771 15.4756 32.3394 15.5842 32.5328 15.7776C32.7262 15.971 32.8348 16.2333 32.8348 16.5068C32.8348 16.7803 32.7262 17.0426 32.5328 17.236C32.3394 17.4294 32.0778 17.5381 31.8043 17.5381ZM34.1597 21.9924L21.9998 21.9917C21.7263 21.9917 21.464 21.8831 21.2706 21.6897C21.0772 21.4963 20.9686 21.234 20.9686 20.9605C20.9686 20.687 21.0772 20.4247 21.2706 20.2313C21.464 20.0379 21.7263 19.9292 21.9998 19.9292L34.1597 19.9299C34.4332 19.9299 34.6955 20.0385 34.8889 20.2319C35.0823 20.4253 35.1909 20.6876 35.1909 20.9611C35.1909 21.2347 35.0823 21.497 34.8889 21.6904C34.6955 21.8837 34.4332 21.9924 34.1597 21.9924ZM17.1035 29.2256C16.8619 29.2252 16.6282 29.1401 16.443 28.9851C16.2578 28.83 16.1329 28.6149 16.0901 28.3772L15.3448 24.2453C15.3182 24.111 15.3187 23.9728 15.3461 23.8386C15.3735 23.7045 15.4273 23.5771 15.5044 23.464C15.5816 23.3509 15.6805 23.2542 15.7953 23.1797C15.9102 23.1052 16.0388 23.0544 16.1735 23.0301C16.3083 23.0058 16.4465 23.0086 16.5802 23.0383C16.7138 23.068 16.8403 23.124 16.952 23.2031C17.0638 23.2822 17.1587 23.3827 17.2312 23.4989C17.3037 23.615 17.3524 23.7444 17.3743 23.8796L18.1196 28.0115C18.1464 28.1601 18.1402 28.3128 18.1015 28.4587C18.0628 28.6047 17.9924 28.7404 17.8955 28.8562C17.7986 28.972 17.6774 29.0651 17.5406 29.1289C17.4037 29.1928 17.2545 29.2258 17.1035 29.2256Z" fill="#602E98"/>
<path d="M11.0802 41.594C10.8664 41.594 10.6547 41.5517 10.4573 41.4696C10.2599 41.3874 10.0807 41.2671 9.92999 41.1155L7.00949 38.195C6.81606 38.0025 6.67428 37.7643 6.59726 37.5024C6.52023 37.2406 6.51045 36.9636 6.5688 36.697C6.62599 36.4301 6.74951 36.1819 6.92794 35.9753C7.10638 35.7688 7.33398 35.6105 7.58974 35.5152L8.7688 35.0731L16.3794 27.4631C16.7658 27.0761 17.4506 27.0761 17.8369 27.4631L20.6612 30.2874C20.8545 30.4808 20.9631 30.743 20.9631 31.0165C20.9631 31.2899 20.8545 31.5522 20.6612 31.7456L13.0519 39.3562L12.6099 40.5353C12.4941 40.8472 12.2853 41.116 12.0117 41.3054C11.7381 41.4948 11.4129 41.5955 11.0802 41.594ZM8.94205 37.2112L10.9138 39.183L11.1991 38.4226C11.2514 38.2851 11.3318 38.16 11.4356 38.0561L18.4742 31.0161L17.1082 29.6508L10.0696 36.6894C9.96544 36.7935 9.84026 36.8741 9.70243 36.9259L8.94205 37.2112Z" fill="#602E98"/>
<path d="M16.8328 35.1491C16.5688 35.1491 16.3048 35.0481 16.104 34.8466L13.2777 32.021C13.1775 31.9263 13.0974 31.8125 13.0419 31.6863C12.9865 31.5601 12.957 31.424 12.955 31.2862C12.9531 31.1484 12.9788 31.0116 13.0306 30.8839C13.0824 30.7561 13.1593 30.6401 13.2568 30.5426C13.3542 30.4451 13.4702 30.3681 13.5979 30.3163C13.7256 30.2644 13.8624 30.2386 14.0003 30.2405C14.1381 30.2424 14.2741 30.2719 14.4004 30.3272C14.5266 30.3826 14.6404 30.4627 14.7352 30.5628L17.5615 33.3884C17.7055 33.5327 17.8036 33.7163 17.8433 33.9163C17.883 34.1162 17.8626 34.3234 17.7846 34.5117C17.7067 34.7 17.5746 34.861 17.4052 34.9743C17.2358 35.0877 17.0366 35.1489 16.8328 35.1491ZM13.8078 38.1734C13.5444 38.1734 13.2804 38.0731 13.079 37.8716L10.2534 35.046C10.1548 34.9509 10.0762 34.8372 10.0221 34.7114C9.96801 34.5856 9.9395 34.4503 9.93825 34.3133C9.93699 34.1764 9.96302 34.0406 10.0148 33.9138C10.0666 33.7871 10.1431 33.6719 10.2399 33.575C10.3367 33.4782 10.4518 33.4015 10.5785 33.3496C10.7052 33.2977 10.841 33.2716 10.9779 33.2727C11.1149 33.2738 11.2502 33.3022 11.376 33.3562C11.5019 33.4102 11.6157 33.4887 11.7109 33.5871L14.5365 36.4128C14.6808 36.5569 14.7791 36.7407 14.8189 36.9407C14.8588 37.1407 14.8384 37.3481 14.7604 37.5366C14.6824 37.725 14.5502 37.8861 14.3807 37.9995C14.2111 38.1129 14.0117 38.1734 13.8078 38.1734ZM12.1997 21.9924C6.79938 21.9924 2.40625 17.5993 2.40625 12.199C2.40625 6.79869 6.79938 2.40625 12.1997 2.40625C17.6 2.40625 21.9924 6.79938 21.9924 12.1997C21.9924 17.6 17.5993 21.9924 12.1997 21.9924ZM12.1997 4.46875C7.93719 4.46875 4.46875 7.9365 4.46875 12.1997C4.46875 16.4629 7.9365 19.9299 12.1997 19.9299C16.4629 19.9299 19.9299 16.4622 19.9299 12.199C19.9299 7.93581 16.4622 4.46875 12.1997 4.46875Z" fill="#602E98"/>
<path d="M12.1992 13.5742C12.9586 13.5742 13.5742 12.9586 13.5742 12.1992C13.5742 11.4398 12.9586 10.8242 12.1992 10.8242C11.4398 10.8242 10.8242 11.4398 10.8242 12.1992C10.8242 12.9586 11.4398 13.5742 12.1992 13.5742Z" fill="#A04DFE"/>
<path d="M12.1992 8.25C12.9586 8.25 13.5742 7.63439 13.5742 6.875C13.5742 6.11561 12.9586 5.5 12.1992 5.5C11.4398 5.5 10.8242 6.11561 10.8242 6.875C10.8242 7.63439 11.4398 8.25 12.1992 8.25Z" fill="#A04DFE"/>
<path d="M7.13574 11.9287C7.89513 11.9287 8.51074 11.3131 8.51074 10.5537C8.51074 9.79432 7.89513 9.17871 7.13574 9.17871C6.37635 9.17871 5.76074 9.79432 5.76074 10.5537C5.76074 11.3131 6.37635 11.9287 7.13574 11.9287Z" fill="#A04DFE"/>
<path d="M9.07031 17.8818C9.8297 17.8818 10.4453 17.2662 10.4453 16.5068C10.4453 15.7474 9.8297 15.1318 9.07031 15.1318C8.31092 15.1318 7.69531 15.7474 7.69531 16.5068C7.69531 17.2662 8.31092 17.8818 9.07031 17.8818Z" fill="#A04DFE"/>
<path d="M15.3291 17.8818C16.0885 17.8818 16.7041 17.2662 16.7041 16.5068C16.7041 15.7474 16.0885 15.1318 15.3291 15.1318C14.5697 15.1318 13.9541 15.7474 13.9541 16.5068C13.9541 17.2662 14.5697 17.8818 15.3291 17.8818Z" fill="#A04DFE"/>
<path d="M17.2627 11.9287C18.0221 11.9287 18.6377 11.3131 18.6377 10.5537C18.6377 9.79432 18.0221 9.17871 17.2627 9.17871C16.5033 9.17871 15.8877 9.79432 15.8877 10.5537C15.8877 11.3131 16.5033 11.9287 17.2627 11.9287Z" fill="#A04DFE"/>
<path d="M41.5482 38.1259L39.6658 27.4594C39.5156 26.6022 39.0677 25.8254 38.401 25.2661C37.7343 24.7067 36.8917 24.4004 36.0214 24.4014H26.1413C25.2709 24.4001 24.428 24.7062 23.7611 25.2657C23.0943 25.8251 22.6463 26.602 22.4962 27.4594L20.6138 38.1259C20.5383 38.5508 20.557 38.9871 20.6687 39.404C20.7804 39.8209 20.9823 40.2081 21.2601 40.5384C21.537 40.8691 21.8832 41.135 22.2741 41.3174C22.6651 41.4997 23.0913 41.594 23.5226 41.5937C24.1009 41.5942 24.6666 41.4248 25.1494 41.1065C25.6322 40.7882 26.0108 40.3351 26.2383 39.8034L27.7597 36.2539H34.403L35.9238 39.8034C36.1512 40.3351 36.5298 40.7882 37.0126 41.1065C37.4954 41.4248 38.0611 41.5942 38.6394 41.5937C39.5146 41.5937 40.3396 41.2087 40.9026 40.5384C41.1803 40.2081 41.3821 39.8208 41.4936 39.4039C41.6052 38.9871 41.6238 38.5508 41.5482 38.1259ZM29.2543 31.3589H28.6452V31.9687C28.6452 32.2422 28.5365 32.5045 28.3432 32.6979C28.1498 32.8913 27.8874 32.9999 27.6139 32.9999C27.3404 32.9999 27.0781 32.8913 26.8847 32.6979C26.6913 32.5045 26.5827 32.2422 26.5827 31.9687V31.3589H25.9729C25.6994 31.3589 25.4371 31.2502 25.2437 31.0568C25.0503 30.8634 24.9416 30.6011 24.9416 30.3276C24.9416 30.0541 25.0503 29.7918 25.2437 29.5984C25.4371 29.405 25.6994 29.2964 25.9729 29.2964H26.5827V28.6866C26.5827 28.4131 26.6913 28.1508 26.8847 27.9574C27.0781 27.764 27.3404 27.6553 27.6139 27.6553C27.8874 27.6553 28.1498 27.764 28.3432 27.9574C28.5365 28.1508 28.6452 28.4131 28.6452 28.6866V29.2964H29.2543C29.5278 29.2964 29.7901 29.405 29.9835 29.5984C30.1769 29.7918 30.2856 30.0541 30.2856 30.3276C30.2856 30.6011 30.1769 30.8634 29.9835 31.0568C29.7901 31.2502 29.5278 31.3589 29.2543 31.3589ZM36.1891 31.3589H35.5793V31.9687C35.5793 32.2422 35.4707 32.5045 35.2773 32.6979C35.0839 32.8913 34.8216 32.9999 34.5481 32.9999C34.2746 32.9999 34.0123 32.8913 33.8189 32.6979C33.6255 32.5045 33.5168 32.2422 33.5168 31.9687V31.3589H32.9077C32.6342 31.3589 32.3719 31.2502 32.1785 31.0568C31.9851 30.8634 31.8764 30.6011 31.8764 30.3276C31.8764 30.0541 31.9851 29.7918 32.1785 29.5984C32.3719 29.405 32.6342 29.2964 32.9077 29.2964H33.5168V28.6866C33.5168 28.4131 33.6255 28.1508 33.8189 27.9574C34.0123 27.764 34.2746 27.6553 34.5481 27.6553C34.8216 27.6553 35.0839 27.764 35.2773 27.9574C35.4707 28.1508 35.5793 28.4131 35.5793 28.6866V29.2964H36.1891C36.4626 29.2964 36.7249 29.405 36.9183 29.5984C37.1117 29.7918 37.2204 30.0541 37.2204 30.3276C37.2204 30.6011 37.1117 30.8634 36.9183 31.0568C36.7249 31.2502 36.4626 31.3589 36.1891 31.3589Z" fill="#A04DFE"/>
</svg>
