<svg width="44" height="44" viewBox="0 0 44 44" fill="none" xmlns="http://www.w3.org/2000/svg">
<path d="M22 41.5938C11.1959 41.5938 2.40625 32.8041 2.40625 22C2.40625 11.1959 11.1959 2.40625 22 2.40625C32.8041 2.40625 41.5938 11.1959 41.5938 22C41.5938 32.8041 32.8041 41.5938 22 41.5938ZM22 4.46875C12.3331 4.46875 4.46875 12.3331 4.46875 22C4.46875 31.6669 12.3331 39.5312 22 39.5312C31.6669 39.5312 39.5312 31.6669 39.5312 22C39.5312 12.3331 31.6669 4.46875 22 4.46875Z" fill="#602E98"/>
<path d="M19.8413 16.8025C18.6932 16.8025 17.7582 17.7375 17.7582 18.8857C17.7582 20.0338 18.6932 20.9688 19.8413 20.9688H20.9688V16.8025H19.8413ZM19.8413 16.8025C18.6932 16.8025 17.7582 17.7375 17.7582 18.8857C17.7582 20.0338 18.6932 20.9688 19.8413 20.9688H20.9688V16.8025H19.8413ZM24.1588 23.0313H23.0313V27.2182H24.1588C25.3069 27.2182 26.2419 26.2832 26.2419 25.135C26.2419 23.9663 25.3069 23.0313 24.1588 23.0313ZM24.1588 23.0313H23.0313V27.2182H24.1588C25.3069 27.2182 26.2419 26.2832 26.2419 25.135C26.2419 23.9663 25.3069 23.0313 24.1588 23.0313ZM17.7582 18.8857C17.7582 20.0338 18.6932 20.9688 19.8413 20.9688H20.9688V16.8025H19.8413C18.6932 16.8025 17.7582 17.7375 17.7582 18.8857ZM22 8.41504C14.5063 8.41504 8.41504 14.5063 8.41504 22C8.41504 29.4938 14.5063 35.585 22 35.585C29.4938 35.585 35.585 29.4938 35.585 22C35.585 14.5063 29.4938 8.41504 22 8.41504ZM24.1588 29.2807H23.0313V30.7932C23.0313 31.3638 22.5707 31.8244 22 31.8244C21.4294 31.8244 20.9688 31.3638 20.9688 30.7932V29.2807H17.71C17.1394 29.2807 16.6788 28.82 16.6788 28.2494C16.6788 27.6788 17.1394 27.2182 17.71 27.2182H20.9688V23.0313H19.8413C17.5519 23.0313 15.6957 21.1682 15.6957 18.8857C15.6957 16.6032 17.5519 14.74 19.8413 14.74H20.9688V13.2069C20.9688 12.6363 21.4294 12.1757 22 12.1757C22.5707 12.1757 23.0313 12.6363 23.0313 13.2069V14.74H26.29C26.8607 14.74 27.3213 15.2007 27.3213 15.7713C27.3213 16.3419 26.8607 16.8025 26.29 16.8025H23.0313V20.9688H24.1588C26.4482 20.9688 28.3044 22.8319 28.3044 25.1144C28.3044 27.4175 26.4482 29.2807 24.1588 29.2807ZM24.1588 23.0313H23.0313V27.2182H24.1588C25.3069 27.2182 26.2419 26.2832 26.2419 25.135C26.2419 23.9663 25.3069 23.0313 24.1588 23.0313ZM17.7582 18.8857C17.7582 20.0338 18.6932 20.9688 19.8413 20.9688H20.9688V16.8025H19.8413C18.6932 16.8025 17.7582 17.7375 17.7582 18.8857ZM19.8413 16.8025C18.6932 16.8025 17.7582 17.7375 17.7582 18.8857C17.7582 20.0338 18.6932 20.9688 19.8413 20.9688H20.9688V16.8025H19.8413ZM24.1588 23.0313H23.0313V27.2182H24.1588C25.3069 27.2182 26.2419 26.2832 26.2419 25.135C26.2419 23.9663 25.3069 23.0313 24.1588 23.0313ZM24.1588 23.0313H23.0313V27.2182H24.1588C25.3069 27.2182 26.2419 26.2832 26.2419 25.135C26.2419 23.9663 25.3069 23.0313 24.1588 23.0313Z" fill="#A04DFE"/>
</svg>
