<svg width="44" height="44" viewBox="0 0 44 44" fill="none" xmlns="http://www.w3.org/2000/svg">
<path d="M16.3349 7.5625H12.5332C11.9635 7.5625 11.502 7.10058 11.502 6.53125C11.502 5.96192 11.9635 5.5 12.5332 5.5H16.3349C16.9046 5.5 17.3662 5.96192 17.3662 6.53125C17.3662 7.10058 16.9046 7.5625 16.3349 7.5625Z" fill="#602E98"/>
<path d="M29.5417 41.5936H7.5625C5.8565 41.5936 4.46875 40.2058 4.46875 38.4998V14.4648C4.46875 13.8955 4.93033 13.4336 5.5 13.4336H38.5C39.0697 13.4336 39.5312 13.8955 39.5312 14.4648V31.604C39.5312 33.31 38.1435 34.6978 36.4375 34.6978H32.6354V38.4998C32.6354 40.2058 31.2477 41.5936 29.5417 41.5936ZM6.53125 15.4961V38.4998C6.53125 39.0685 6.99383 39.5311 7.5625 39.5311H29.5417C30.1104 39.5311 30.5729 39.0685 30.5729 38.4998V33.6665C30.5729 33.0972 31.0345 32.6353 31.6042 32.6353H36.4375C37.0062 32.6353 37.4688 32.1727 37.4688 31.604V15.4961H6.53125Z" fill="#602E98"/>
<path d="M38.4999 15.4963C37.9302 15.4963 37.4686 15.0344 37.4686 14.465V8.59375C37.4686 8.02508 37.006 7.5625 36.4374 7.5625H35.2275C34.6579 7.5625 34.1963 7.10058 34.1963 6.53125C34.1963 5.96192 34.6579 5.5 35.2275 5.5H36.4374C38.1434 5.5 39.5311 6.88775 39.5311 8.59375V14.465C39.5311 15.0344 39.0695 15.4963 38.4999 15.4963Z" fill="#602E98"/>
<path d="M5.5 15.4963C4.93033 15.4963 4.46875 15.0344 4.46875 14.465V8.59375C4.46875 6.88775 5.8565 5.5 7.5625 5.5H8.77234C9.34201 5.5 9.80359 5.96192 9.80359 6.53125C9.80359 7.10058 9.34201 7.5625 8.77234 7.5625H7.5625C6.99383 7.5625 6.53125 8.02508 6.53125 8.59375V14.465C6.53125 15.0344 6.06967 15.4963 5.5 15.4963Z" fill="#602E98"/>
<path d="M23.9045 7.5625H20.0957C19.526 7.5625 19.0645 7.10058 19.0645 6.53125C19.0645 5.96192 19.526 5.5 20.0957 5.5H23.9045C24.4741 5.5 24.9357 5.96192 24.9357 6.53125C24.9357 7.10058 24.4741 7.5625 23.9045 7.5625Z" fill="#602E98"/>
<path d="M31.4668 7.5625H27.665C27.0954 7.5625 26.6338 7.10058 26.6338 6.53125C26.6338 5.96192 27.0954 5.5 27.665 5.5H31.4668C32.0364 5.5 32.498 5.96192 32.498 6.53125C32.498 7.10058 32.0364 7.5625 31.4668 7.5625Z" fill="#602E98"/>
<path d="M10.6523 10.5831C9.04706 10.5831 7.74121 9.27723 7.74121 7.67194V5.31739C7.74121 3.7121 9.04706 2.40625 10.6523 2.40625C12.2573 2.40625 13.5631 3.71209 13.5631 5.31739V7.67194C13.5631 9.27722 12.2573 10.5831 10.6523 10.5831ZM10.6523 4.46876C10.1844 4.46876 9.80371 4.84943 9.80371 5.31739V7.67194C9.80371 8.1399 10.1844 8.52058 10.6523 8.52058C11.12 8.52058 11.5006 8.1399 11.5006 7.67194V5.31739C11.5006 4.84944 11.12 4.46876 10.6523 4.46876Z" fill="#602E98"/>
<path d="M18.2174 10.5831C16.6125 10.5831 15.3066 9.27723 15.3066 7.67194V5.31739C15.3066 3.7121 16.6125 2.40625 18.2174 2.40625C19.8224 2.40625 21.1282 3.71209 21.1282 5.31739V7.67194C21.1282 9.27722 19.8224 10.5831 18.2174 10.5831ZM18.2174 4.46876C17.7498 4.46876 17.3691 4.84943 17.3691 5.31739V7.67194C17.3691 8.1399 17.7498 8.52058 18.2174 8.52058C18.6851 8.52058 19.0657 8.1399 19.0657 7.67194V5.31739C19.0657 4.84944 18.6851 4.46876 18.2174 4.46876Z" fill="#602E98"/>
<path d="M25.7829 10.5831C24.1779 10.5831 22.8721 9.27723 22.8721 7.67194V5.31739C22.8721 3.7121 24.1779 2.40625 25.7829 2.40625C27.3878 2.40625 28.6937 3.71209 28.6937 5.31739V7.67194C28.6937 9.27722 27.3878 10.5831 25.7829 10.5831ZM25.7829 4.46876C25.3152 4.46876 24.9346 4.84943 24.9346 5.31739V7.67194C24.9346 8.1399 25.3152 8.52058 25.7829 8.52058C26.2505 8.52058 26.6312 8.1399 26.6312 7.67194V5.31739C26.6312 4.84944 26.2505 4.46876 25.7829 4.46876Z" fill="#602E98"/>
<path d="M33.3473 10.5831C31.7424 10.5831 30.4365 9.27723 30.4365 7.67194V5.31739C30.4365 3.7121 31.7424 2.40625 33.3473 2.40625C34.9526 2.40625 36.2585 3.71209 36.2585 5.31739V7.67194C36.2585 9.27722 34.9526 10.5831 33.3473 10.5831ZM33.3473 4.46876C32.8797 4.46876 32.499 4.84943 32.499 5.31739V7.67194C32.499 8.1399 32.8797 8.52058 33.3473 8.52058C33.8153 8.52058 34.196 8.1399 34.196 7.67194V5.31739C34.196 4.84944 33.8153 4.46876 33.3473 4.46876Z" fill="#602E98"/>
<path d="M30.5155 41.5941H29.542C28.9723 41.5941 28.5107 41.1321 28.5107 40.5628C28.5107 39.9935 28.9723 39.5316 29.542 39.5316H30.5155C32.2635 39.5316 33.9349 38.8796 35.2219 37.6967C36.65 36.3841 37.4691 34.5183 37.4691 32.578V31.6045C37.4691 31.0352 37.9306 30.5732 38.5003 30.5732C39.07 30.5732 39.5316 31.0352 39.5316 31.6045V32.578C39.5316 35.0937 38.4694 37.5127 36.6177 39.2153C34.9493 40.7495 32.7821 41.5941 30.5155 41.5941Z" fill="#602E98"/>
<path d="M22.2093 17.6094C17.4725 17.6094 13.6191 21.4628 13.6191 26.1996C13.6191 30.9363 17.4725 34.7903 22.2093 34.7903C26.9461 34.7903 30.8001 30.9364 30.8001 26.1996C30.8001 21.4628 26.9461 17.6094 22.2093 17.6094ZM16.8714 25.5636C16.4257 25.0686 16.4657 24.306 16.9607 23.8602C17.4557 23.4145 18.2184 23.4545 18.6641 23.9495C19.1098 24.4445 19.0699 25.2072 18.5748 25.6529C18.0798 26.0986 17.3172 26.0587 16.8714 25.5636ZM19.955 31.0801C19.3464 31.351 18.6335 31.0773 18.3625 30.4688C18.0916 29.8603 18.3653 29.1473 18.9738 28.8764C19.5823 28.6054 20.2953 28.8791 20.5663 29.4876C20.8372 30.0962 20.5635 30.8091 19.955 31.0801ZM23.2541 26.8029C22.921 27.3797 22.1834 27.5774 21.6065 27.2444C21.0296 26.9113 20.832 26.1736 21.165 25.5967C21.4981 25.0199 22.2357 24.8222 22.8126 25.1553C23.3895 25.4883 23.5872 26.226 23.2541 26.8029ZM23.2541 22.1325C22.921 22.7094 22.1834 22.907 21.6065 22.574C21.0296 22.2409 20.832 21.5033 21.165 20.9264C21.4981 20.3495 22.2357 20.1518 22.8126 20.4849C23.3895 20.818 23.5872 21.5556 23.2541 22.1325ZM25.0808 31.1777C24.4183 31.2474 23.8248 30.7668 23.7552 30.1043C23.6856 29.4418 24.1662 28.8483 24.8287 28.7787C25.4911 28.709 26.0846 29.1897 26.1543 29.8521C26.2239 30.5146 25.7433 31.1081 25.0808 31.1777ZM27.8311 25.0073C27.6927 25.6589 27.0522 26.0749 26.4006 25.9363C25.749 25.7979 25.3331 25.1574 25.4716 24.5058C25.6101 23.8543 26.2505 23.4383 26.9021 23.5768C27.5537 23.7153 27.9696 24.3558 27.8311 25.0073Z" fill="#A04DFE"/>
</svg>
