<svg width="44" height="44" viewBox="0 0 44 44" fill="none" xmlns="http://www.w3.org/2000/svg">
<path d="M21.4569 16.2448C21.3242 16.2448 21.1895 16.2187 21.0582 16.1637L18.4477 15.0671C18.1897 14.9587 17.9166 14.8903 17.6379 14.8643L14.3427 14.5577C13.7755 14.5054 13.3582 14.0029 13.4118 13.435C13.4654 12.8671 13.9749 12.4539 14.5331 12.5041L17.8283 12.8108C18.3164 12.8561 18.7935 12.9758 19.2466 13.1662L21.8577 14.2628C22.0781 14.3544 22.2598 14.5197 22.3718 14.7304C22.4839 14.9412 22.5193 15.1843 22.4721 15.4182C22.4248 15.6521 22.2979 15.8624 22.1129 16.0132C21.9279 16.1639 21.6956 16.2458 21.4569 16.2448ZM21.9994 36.7811C17.6544 36.7811 10.1111 27.5755 9.26479 26.525C9.09692 26.3117 9.01992 26.0408 9.05052 25.771C9.08111 25.5013 9.21683 25.2545 9.42822 25.0842C9.63961 24.9139 9.90962 24.8338 10.1797 24.8613C10.4497 24.8888 10.6981 25.0217 10.8708 25.2311C13.8277 28.8989 19.4645 34.7186 21.9994 34.7186C25.078 34.7186 31.3026 32.6266 32.2431 30.485C32.3916 30.1481 32.4604 29.7129 31.8457 29.044C31.7541 28.9442 31.683 28.8274 31.6365 28.7002C31.59 28.5729 31.5691 28.4378 31.5748 28.3024C31.5806 28.1671 31.6129 28.0342 31.67 27.9114C31.7271 27.7885 31.8078 27.6781 31.9076 27.5865C32.0074 27.4949 32.1242 27.4238 32.2514 27.3773C32.3787 27.3308 32.5138 27.3098 32.6492 27.3156C32.7845 27.3213 32.9174 27.3537 33.0402 27.4108C33.1631 27.4679 33.2735 27.5486 33.3651 27.6484C34.4019 28.7779 34.6741 30.0794 34.1317 31.3148C32.6652 34.6526 25.3406 36.7811 21.9994 36.7811Z" fill="#A2E047"/>
<path d="M31.7249 33.6009C31.4368 33.6009 31.1515 33.482 30.948 33.2482L23.8743 25.146C23.6945 24.94 23.6038 24.6709 23.6223 24.398C23.6408 24.1252 23.7669 23.8708 23.973 23.6909C24.179 23.511 24.4481 23.4204 24.721 23.4389C24.9938 23.4574 25.2482 23.5835 25.4281 23.7896L32.5004 31.8918C32.6305 32.0409 32.7149 32.2243 32.7436 32.4201C32.7723 32.6159 32.744 32.8159 32.6622 32.9961C32.5804 33.1763 32.4484 33.3291 32.2821 33.4363C32.1158 33.5436 31.9228 33.6007 31.7249 33.6009ZM28.5562 35.2935C28.2812 35.2935 28.0076 35.1842 27.8048 34.9683L21.2488 27.995C21.0614 27.7957 20.9609 27.5302 20.9694 27.2568C20.9778 26.9834 21.0945 26.7245 21.2938 26.5372C21.4931 26.3498 21.7586 26.2493 22.032 26.2578C22.3054 26.2662 22.5643 26.3829 22.7516 26.5822L29.3076 33.5562C29.4454 33.7028 29.5372 33.8866 29.5719 34.0848C29.6065 34.283 29.5824 34.487 29.5025 34.6717C29.4226 34.8563 29.2905 35.0136 29.1223 35.1241C28.9542 35.2346 28.7574 35.2935 28.5562 35.2935ZM25.0823 36.3653C24.8341 36.3653 24.5859 36.276 24.3879 36.0965L18.6541 30.8715C18.554 30.7803 18.4728 30.6702 18.4153 30.5476C18.3577 30.425 18.3248 30.2923 18.3185 30.157C18.3122 30.0217 18.3326 29.8864 18.3786 29.759C18.4246 29.6316 18.4952 29.5145 18.5864 29.4144C18.6777 29.3142 18.7877 29.2331 18.9103 29.1755C19.0329 29.1179 19.1657 29.085 19.301 29.0787C19.4363 29.0724 19.5715 29.0928 19.6989 29.1388C19.8263 29.1848 19.9435 29.2554 20.0436 29.3466L25.7773 34.5716C25.9312 34.7117 26.039 34.8951 26.0867 35.0976C26.1344 35.3001 26.1198 35.5123 26.0447 35.7064C25.9695 35.9004 25.8375 36.0672 25.6658 36.1848C25.4942 36.3024 25.2903 36.3653 25.0823 36.3653Z" fill="#A2E047"/>
<path d="M32.606 29.3763C32.2918 29.3763 31.9934 29.2333 31.7975 28.9858L25.214 20.6698L22.6929 22.6299C21.1013 23.8701 18.9096 23.8213 17.3627 22.5116L17.1496 22.3288C16.9004 22.1161 16.6965 21.8555 16.5499 21.5625C16.4034 21.2695 16.3171 20.95 16.2964 20.6231C16.2728 20.2929 16.3149 19.9612 16.4201 19.6474C16.5254 19.3335 16.6918 19.0436 16.9097 18.7943L20.7322 14.4768C21.2105 13.9325 21.8705 13.5809 22.5891 13.4875L32.8823 12.195L39.2995 7.62588C39.4417 7.52457 39.6073 7.46103 39.7808 7.44123C39.9543 7.42142 40.13 7.44599 40.2914 7.51264C40.4528 7.57929 40.5946 7.68583 40.7036 7.82228C40.8126 7.95873 40.8851 8.12061 40.9144 8.29276C41.826 13.6333 41.8233 18.2938 40.9055 22.5405C40.8739 22.6863 40.8111 22.8235 40.7214 22.9427C40.6316 23.0619 40.5171 23.1601 40.3857 23.2308L35.323 25.9519L33.4798 28.893C33.387 29.041 33.2581 29.163 33.1053 29.2477C32.9525 29.3323 32.7807 29.3761 32.606 29.3763ZM25.3872 18.1976C25.6911 18.1976 25.9922 18.3316 26.1957 18.5888L32.5077 26.5603L33.7204 24.625C33.8153 24.4738 33.9487 24.3486 34.1061 24.2641L38.9853 21.6419C39.6618 18.2182 39.7113 14.4809 39.1338 10.2762L33.8668 14.0244C33.7278 14.1237 33.5662 14.1868 33.3966 14.208L22.8462 15.5342C22.6331 15.561 22.4303 15.6717 22.2763 15.8449L18.4538 20.1611C18.4171 20.2046 18.3895 20.255 18.3724 20.3092C18.3553 20.3635 18.349 20.4206 18.3541 20.4773C18.3589 20.544 18.3823 20.6698 18.4868 20.7592L18.6985 20.94C19.5015 21.6206 20.5988 21.6468 21.4258 21.0026L24.7547 18.4148C24.9424 18.2684 25.1652 18.1976 25.3872 18.1976Z" fill="#587A27"/>
<path d="M34.5954 26.2047C34.4491 26.2048 34.3043 26.1738 34.1709 26.1137C34.0374 26.0536 33.9182 25.9658 33.8213 25.8561C33.7244 25.7464 33.652 25.6173 33.6088 25.4774C33.5657 25.3375 33.5528 25.1901 33.5711 25.0448C33.9932 21.6795 33.5587 17.7883 32.2799 13.479C32.2022 13.2167 32.2318 12.9343 32.3623 12.6938C32.4927 12.4534 32.7134 12.2746 32.9757 12.1968C33.238 12.1191 33.5204 12.1487 33.7609 12.2792C34.0013 12.4096 34.1801 12.6303 34.2579 12.8926C35.6178 17.4762 36.0749 21.6513 35.6171 25.302C35.5858 25.551 35.4648 25.78 35.2767 25.9462C35.0886 26.1124 34.8464 26.2043 34.5954 26.2047ZM30.4478 23.0862C28.3371 23.0862 26.3503 22.1058 24.9973 20.3973C24.9115 20.2913 24.8475 20.1694 24.8092 20.0385C24.7708 19.9077 24.7588 19.7705 24.7739 19.635C24.7889 19.4994 24.8306 19.3682 24.8967 19.2489C24.9627 19.1296 25.0518 19.0246 25.1587 18.94C25.2656 18.8553 25.3883 18.7928 25.5196 18.7558C25.6508 18.7189 25.7881 18.7084 25.9235 18.7248C26.0588 18.7413 26.1896 18.7845 26.3082 18.8518C26.4267 18.9192 26.5308 19.0094 26.6142 19.1172C27.5733 20.3279 28.9703 21.023 30.4478 21.023C30.7213 21.023 30.9836 21.1316 31.177 21.325C31.3704 21.5184 31.479 21.7807 31.479 22.0542C31.479 22.3277 31.3704 22.59 31.177 22.7834C30.9836 22.9768 30.7213 23.0862 30.4478 23.0862ZM11.3469 12.3591L4.71806 7.42284C4.57489 7.31624 4.4065 7.24863 4.22936 7.22662C4.05222 7.20461 3.87241 7.22896 3.7075 7.29727C3.54259 7.36559 3.39824 7.47555 3.28857 7.61638C3.17889 7.75721 3.10765 7.9241 3.08181 8.10072C2.17294 14.3205 2.17981 18.9199 3.10244 22.5753C3.16981 22.8407 3.33894 23.0683 3.57475 23.2085L9.54087 26.7643C9.70669 26.8633 9.89703 26.9136 10.0901 26.9095C10.2832 26.9053 10.4712 26.8469 10.6326 26.7409C10.9626 26.5257 11.1407 26.1407 11.0919 25.7502C10.4896 20.9453 10.6945 16.9317 11.7203 13.479C11.7803 13.2765 11.7767 13.0604 11.7099 12.86C11.6432 12.6596 11.5165 12.4852 11.3469 12.3591Z" fill="#587A27"/>
</svg>
