<svg width="44" height="44" viewBox="0 0 44 44" fill="none" xmlns="http://www.w3.org/2000/svg">
<path d="M13.5923 28.3798C13.2371 28.3798 12.8914 28.1958 12.7 27.8661L2.54595 10.39C2.33245 10.0227 2.36602 9.56213 2.63055 9.2298L7.75256 2.79489C7.96337 2.5307 8.29034 2.38232 8.6267 2.40817C8.96441 2.43 9.26922 2.61597 9.44311 2.90567L20.7526 21.7156C21.0467 22.2037 20.8882 22.8375 20.4001 23.1309C19.9147 23.4239 19.2789 23.2675 18.9855 22.7784L8.4414 5.24176L4.68297 9.96295L14.4832 26.8302C14.7692 27.3227 14.602 27.9538 14.1099 28.2398C13.9468 28.3344 13.7682 28.3798 13.5923 28.3798Z" fill="#587A27"/>
<path d="M35.4347 4.46875H8.56445C7.99512 4.46875 7.5332 4.00717 7.5332 3.4375C7.5332 2.86783 7.99512 2.40625 8.56445 2.40625H35.4347C36.004 2.40625 36.4659 2.86783 36.4659 3.4375C36.4659 4.00717 36.004 4.46875 35.4347 4.46875Z" fill="#587A27"/>
<path d="M30.5806 12.5469H13.4199C12.8506 12.5469 12.3887 12.0853 12.3887 11.5156C12.3887 10.946 12.8506 10.4844 13.4199 10.4844H30.5806C31.1499 10.4844 31.6118 10.946 31.6118 11.5156C31.6118 12.0853 31.1499 12.5469 30.5806 12.5469Z" fill="#587A27"/>
<path d="M32.5106 24.7602C32.3347 24.7602 32.1561 24.7149 31.9929 24.6202C31.5008 24.3342 31.3336 23.7031 31.6197 23.2106L39.3171 9.96283L35.5587 5.24163L25.0145 22.7782C24.7205 23.267 24.0854 23.4231 23.5999 23.1307C23.1118 22.8373 22.9534 22.2035 23.2475 21.7155L34.557 2.90554C34.7309 2.61584 35.0357 2.42987 35.3734 2.40805C35.707 2.38287 36.0367 2.53057 36.2475 2.79476L41.3695 9.22967C41.6341 9.56201 41.6676 10.0226 41.4541 10.3898L33.4029 24.2466C33.2115 24.5762 32.8657 24.7598 32.5106 24.7602Z" fill="#587A27"/>
<path d="M22 41.5931C16.3134 41.5931 11.6875 36.9672 11.6875 31.2809C11.6875 25.5946 16.3134 20.9688 22 20.9688C27.6866 20.9688 32.3125 25.5946 32.3125 31.2809C32.3125 36.9672 27.6866 41.5931 22 41.5931ZM22 23.0312C17.4507 23.0312 13.75 26.7319 13.75 31.2809C13.75 35.8299 17.4507 39.5306 22 39.5306C26.5493 39.5306 30.25 35.8299 30.25 31.2809C30.25 26.7319 26.5493 23.0312 22 23.0312Z" fill="#A2E047"/>
<path d="M20.9916 31.909C23.1719 31.4256 24.7324 29.648 25.0562 27.564C24.225 26.8798 23.1606 26.4688 22 26.4688C19.3421 26.4688 17.1875 28.6234 17.1875 31.2812C17.1875 31.2919 17.189 31.3023 17.1891 31.313C18.3391 31.9856 19.6919 32.198 20.9916 31.909Z" fill="#A2E047"/>
<path d="M21.4384 33.9229C20.91 34.0401 20.3763 34.0982 19.8445 34.0982C19.1973 34.0982 18.5542 34.0117 17.9307 33.8422C18.7828 35.1936 20.2847 36.0942 22.0004 36.0942C24.6582 36.0942 26.8129 33.9395 26.8129 31.2817C26.8129 30.7352 26.7174 30.2122 26.5497 29.7227C25.6366 31.781 23.8004 33.3994 21.4384 33.9229Z" fill="#A2E047"/>
</svg>
