<svg width="44" height="44" viewBox="0 0 44 44" fill="none" xmlns="http://www.w3.org/2000/svg">
<path d="M14.6593 26.9941C14.4649 26.9941 14.2678 26.9394 14.0933 26.8243C13.6176 26.5111 13.4857 25.8716 13.7989 25.3959L27.5855 4.44965C27.8987 3.97431 28.5388 3.84205 29.0139 4.15525C29.4895 4.46846 29.6215 5.10795 29.3083 5.58363L15.5217 26.5299C15.3236 26.831 14.9946 26.9941 14.6593 26.9941Z" fill="#A2E047"/>
<path d="M23.0913 24.024C22.8966 24.024 22.6999 23.9693 22.5253 23.8542L9.83743 15.5025C9.36176 15.1893 9.22983 14.5498 9.54303 14.0741C9.8559 13.5977 10.4961 13.4658 10.9714 13.7797L22.7986 21.5648L31.1909 8.83325C31.5051 8.35858 32.1443 8.22732 32.6196 8.53986C33.0949 8.85339 33.2265 9.49289 32.913 9.96856L23.9533 23.5605C23.7549 23.8609 23.4263 24.024 23.0913 24.024Z" fill="#A2E047"/>
<path d="M11.0548 22.609C10.8604 22.609 10.6634 22.5543 10.4888 22.4391C10.0131 22.1259 9.8812 21.4865 10.1944 21.0108L22.133 2.87259C22.4462 2.39692 23.0864 2.26498 23.5614 2.57819C24.037 2.89139 24.169 3.53088 23.8558 4.00657L11.9172 22.1447C11.7191 22.4459 11.3901 22.609 11.0548 22.609Z" fill="#A2E047"/>
<path d="M27.9146 20.708C27.7199 20.708 27.5232 20.6533 27.3486 20.5382L11.9292 10.3885C11.4536 10.0753 11.3216 9.4358 11.6348 8.96012C11.9477 8.48377 12.5879 8.35151 13.0632 8.66572L28.4826 18.8154C28.9583 19.1286 29.0902 19.7681 28.777 20.2438C28.5789 20.5449 28.25 20.708 27.9146 20.708Z" fill="#A2E047"/>
<path d="M32.7032 17.3692C32.5088 17.3692 32.3118 17.3145 32.1372 17.1994L15.7993 6.44541C15.3237 6.13221 15.1917 5.49272 15.5049 5.01704C15.8182 4.54169 16.4583 4.40943 16.9333 4.72264L33.2712 15.4766C33.7469 15.7898 33.8788 16.4293 33.5656 16.9049C33.3675 17.2061 33.0385 17.3692 32.7032 17.3692Z" fill="#A2E047"/>
<path d="M20.0337 28.5709C17.9034 28.5709 15.854 27.9804 14.096 26.82C11.6917 25.2415 10.026 22.7221 9.40767 19.7278C8.67016 16.1557 9.48254 12.2311 11.6373 8.9604C13.6116 5.95729 16.4901 3.79643 19.7413 2.87697C23.0476 1.94105 26.3404 2.39625 29.0152 4.15596C33.8106 7.3155 35.3413 13.925 32.6561 19.8721C32.4215 20.3914 31.8098 20.6214 31.2919 20.3877C30.7725 20.1534 30.5419 19.5425 30.7762 19.0235C33.0422 14.0052 31.8246 8.477 27.8809 5.87839C25.7146 4.45304 23.0234 4.0925 20.3029 4.86158C17.5284 5.64643 15.0628 7.50449 13.3601 10.0944C11.5041 12.9118 10.7998 16.2708 11.4275 19.3108C11.9344 21.7651 13.2849 23.8199 15.2299 25.0972C17.5845 26.6508 20.6094 26.9348 23.5323 25.8763C24.0694 25.682 24.6592 25.9596 24.8533 26.495C25.047 27.0308 24.77 27.6219 24.2346 27.816C22.8391 28.3212 21.4191 28.5709 20.0337 28.5709Z" fill="#587A27"/>
<path d="M6.82819 41.5949C6.10477 41.5949 5.39646 41.384 4.77811 40.9772C3.05466 39.8429 2.57563 37.5175 3.70994 35.7937L8.55399 28.4343C8.70438 28.2057 8.93937 28.0466 9.20726 27.9912C9.4738 27.9355 9.75343 27.9892 9.98237 28.1399L14.5112 31.1209C14.9869 31.4341 15.1188 32.0736 14.8056 32.5493L9.96155 39.9087C9.41202 40.7435 8.5701 41.3146 7.59123 41.5166C7.33711 41.569 7.08164 41.5949 6.82819 41.5949ZM9.70978 30.4297L5.43271 36.9277C4.92346 37.7015 5.13865 38.7452 5.91208 39.2544C6.28705 39.5015 6.73487 39.5871 7.17496 39.4964C7.61438 39.4058 7.99204 39.1497 8.23877 38.7747L12.5158 32.2767L9.70978 30.4297Z" fill="#587A27"/>
<path d="M9.98056 30.4045C9.78586 30.4045 9.58914 30.3498 9.41458 30.2347C8.93891 29.9215 8.80698 29.282 9.12018 28.8063C10.2155 27.1423 11.1404 24.8965 9.69623 20.8544C9.50455 20.318 9.78418 19.7278 10.3203 19.5361C10.8571 19.3441 11.4469 19.6241 11.6385 20.1602C13.0112 24.0025 12.7658 27.0191 10.843 29.9403C10.6449 30.2414 10.3159 30.4045 9.98056 30.4045Z" fill="#587A27"/>
<path d="M13.377 32.6402C13.1823 32.6402 12.9856 32.5855 12.8111 32.4704C12.3354 32.1572 12.2035 31.5177 12.5167 31.042C14.4395 28.1208 17.113 26.7028 21.1846 26.444C21.7563 26.4037 22.2427 26.8394 22.2793 27.4078C22.3152 27.9761 21.8839 28.4662 21.3155 28.5025C17.0317 28.7744 15.3348 30.5119 14.2394 32.176C14.0414 32.4771 13.7124 32.6402 13.377 32.6402Z" fill="#587A27"/>
<path d="M42.2992 35.7314L40.4168 25.0648C40.2666 24.2076 39.8187 23.4309 39.152 22.8715C38.4853 22.3121 37.6426 22.0059 36.7724 22.0068H26.8923C26.0219 22.0056 25.1789 22.3117 24.5121 22.8711C23.8453 23.4306 23.3973 24.2075 23.2472 25.0648L21.3648 35.7314C21.2893 36.1563 21.308 36.5926 21.4197 37.0095C21.5314 37.4263 21.7332 37.8136 22.011 38.1438C22.288 38.4746 22.6342 38.7405 23.0251 38.9228C23.416 39.1052 23.8422 39.1995 24.2736 39.1992C24.8519 39.1997 25.4176 39.0303 25.9004 38.712C26.3832 38.3937 26.7618 37.9406 26.9892 37.4089L28.5107 33.8593H35.154L36.6747 37.4089C36.9022 37.9406 37.2808 38.3937 37.7636 38.712C38.2464 39.0303 38.8121 39.1997 39.3904 39.1992C40.2655 39.1992 41.0905 38.8142 41.6536 38.1438C41.9313 37.8135 42.133 37.4263 42.2446 37.0094C42.3561 36.5925 42.3748 36.1563 42.2992 35.7314ZM30.0053 28.9643H29.3962V29.5742C29.3962 29.8477 29.2875 30.11 29.0941 30.3034C28.9007 30.4968 28.6384 30.6054 28.3649 30.6054C28.0914 30.6054 27.8291 30.4968 27.6357 30.3034C27.4423 30.11 27.3337 29.8477 27.3337 29.5742V28.9643H26.7239C26.4504 28.9643 26.1881 28.8557 25.9947 28.6623C25.8013 28.4689 25.6926 28.2066 25.6926 27.9331C25.6926 27.6596 25.8013 27.3973 25.9947 27.2039C26.1881 27.0105 26.4504 26.9018 26.7239 26.9018H27.3337V26.292C27.3337 26.0185 27.4423 25.7562 27.6357 25.5628C27.8291 25.3694 28.0914 25.2608 28.3649 25.2608C28.6384 25.2608 28.9007 25.3694 29.0941 25.5628C29.2875 25.7562 29.3962 26.0185 29.3962 26.292V26.9018H30.0053C30.2788 26.9018 30.5411 27.0105 30.7345 27.2039C30.9279 27.3973 31.0365 27.6596 31.0365 27.9331C31.0365 28.2066 30.9279 28.4689 30.7345 28.6623C30.5411 28.8557 30.2788 28.9643 30.0053 28.9643ZM36.9401 28.9643H36.3303V29.5742C36.3303 29.8477 36.2216 30.11 36.0282 30.3034C35.8349 30.4968 35.5725 30.6054 35.299 30.6054C35.0255 30.6054 34.7632 30.4968 34.5698 30.3034C34.3764 30.11 34.2678 29.8477 34.2678 29.5742V28.9643H33.6587C33.3852 28.9643 33.1229 28.8557 32.9295 28.6623C32.7361 28.4689 32.6274 28.2066 32.6274 27.9331C32.6274 27.6596 32.7361 27.3973 32.9295 27.2039C33.1229 27.0105 33.3852 26.9018 33.6587 26.9018H34.2678V26.292C34.2678 26.0185 34.3764 25.7562 34.5698 25.5628C34.7632 25.3694 35.0255 25.2608 35.299 25.2608C35.5725 25.2608 35.8349 25.3694 36.0282 25.5628C36.2216 25.7562 36.3303 26.0185 36.3303 26.292V26.9018H36.9401C37.2136 26.9018 37.4759 27.0105 37.6693 27.2039C37.8627 27.3973 37.9714 27.6596 37.9714 27.9331C37.9714 28.2066 37.8627 28.4689 37.6693 28.6623C37.4759 28.8557 37.2136 28.9643 36.9401 28.9643Z" fill="#A2E047"/>
</svg>
