<svg xmlns="http://www.w3.org/2000/svg" version="1.1" xmlns:xlink="http://www.w3.org/1999/xlink" width="512" height="512" x="0" y="0" viewBox="0 0 64 64" style="enable-background:new 0 0 512 512" xml:space="preserve"><g><path d="M31.997 40.272c-.333 0-.667-.111-.941-.332-2.695-2.173-4.333-3.736-5.479-5.229-1.478-1.921-1.737-4.5-.66-6.568.742-1.431 1.932-2.296 3.441-2.5 1.625-.224 2.817.228 3.643.882.827-.654 2.015-1.102 3.646-.882 1.508.204 2.698 1.069 3.441 2.502 1.075 2.066.816 4.645-.662 6.567-1.137 1.48-2.778 3.044-5.486 5.227a1.493 1.493 0 0 1-.941.333zm-2.846-11.684c-.121 0-.251.009-.392.028-.355.048-.811.195-1.181.91-.542 1.041-.393 2.357.376 3.358.862 1.123 2.098 2.334 4.042 3.951 1.956-1.626 3.194-2.836 4.049-3.95.769-1 .917-2.317.377-3.355-.372-.717-.827-.864-1.181-.912-1.31-.173-1.706.54-1.815.855a1.547 1.547 0 0 1-1.462 1.028 1.492 1.492 0 0 1-1.409-1.063c-.088-.253-.41-.848-1.405-.848zM57.01 60.5H46a1.5 1.5 0 0 1-1.5-1.5v-.542c0-2.1-.79-4.101-2.224-5.634l-5.891-6.299a3.653 3.653 0 0 1-.388-4.509 3.639 3.639 0 0 1 2.336-1.582c.965-.195 1.949 0 2.768.549l.658.442v-7.081c0-1.763 1.207-3.25 2.869-3.538.42-.073.844-.068 1.252.01a3.461 3.461 0 0 1 3.867-2.313 3.375 3.375 0 0 1 1.924 1.066 3.492 3.492 0 0 1 1.993-.261c1.538.247 2.725 1.572 2.885 3.158a3.474 3.474 0 0 1 3.949 3.437v11.864c0 1.707-.397 3.418-1.148 4.951a8.298 8.298 0 0 0-.842 3.63v2.649a1.5 1.5 0 0 1-1.5 1.5zm-9.55-3h8.05v-1.149c0-1.706.397-3.417 1.148-4.951a8.293 8.293 0 0 0 .842-3.631V35.905a.477.477 0 0 0-.47-.47.47.47 0 0 0-.46.47 1.5 1.5 0 1 1-3 0v-3.07c0-.271-.173-.529-.379-.562a.47.47 0 0 0-.561.462 1.5 1.5 0 1 1-3 0v-.694c0-.278-.174-.542-.381-.578a.452.452 0 0 0-.381.1.47.47 0 0 0-.167.362v2.3a1.5 1.5 0 1 1-3 0 .466.466 0 0 0-.169-.359.468.468 0 0 0-.391-.103c-.206.036-.38.302-.38.582v9.896a1.502 1.502 0 0 1-2.336 1.245l-2.995-2.011a.66.66 0 0 0-.922.187.66.66 0 0 0 .07.815l5.891 6.298a11.208 11.208 0 0 1 2.993 6.725z" fill="#555555" opacity="1" data-original="#000000"></path><path d="M47.2 43.5a1.5 1.5 0 0 1-1.5-1.5v-7.775a1.5 1.5 0 1 1 3 0V42a1.5 1.5 0 0 1-1.5 1.5zM51.13 43.5a1.5 1.5 0 0 1-1.5-1.5v-9.265a1.5 1.5 0 1 1 3 0V42a1.5 1.5 0 0 1-1.5 1.5zM55.07 43.5a1.5 1.5 0 0 1-1.5-1.5v-6.095a1.5 1.5 0 1 1 3 0V42a1.5 1.5 0 0 1-1.5 1.5zM44.058 28.594a3.659 3.659 0 0 1-2.008-.601c-.824-.541-1.386-1.37-1.582-2.336s0-1.95.549-2.769l.442-.659h-7.082c-1.762 0-3.25-1.206-3.538-2.868a3.515 3.515 0 0 1 .01-1.253 3.46 3.46 0 0 1-2.312-3.867 3.37 3.37 0 0 1 1.067-1.925 3.51 3.51 0 0 1-.261-1.993c.247-1.539 1.572-2.726 3.158-2.886a3.474 3.474 0 0 1 3.437-3.949h11.864c1.706 0 3.418.397 4.951 1.147a8.293 8.293 0 0 0 3.631.842h2.649a1.5 1.5 0 0 1 1.5 1.5v11.01a1.5 1.5 0 0 1-1.5 1.5h-.542c-2.101 0-4.102.79-5.634 2.224l-6.299 5.891c-.7.654-1.597.99-2.5.99zm-8.3-11.805a1.5 1.5 0 0 1-1.5 1.5.466.466 0 0 0-.359.169.469.469 0 0 0-.103.392c.036.205.302.379.582.379h9.896a1.5 1.5 0 0 1 1.245 2.336l-2.011 2.995a.66.66 0 0 0 .187.923.662.662 0 0 0 .815-.07l6.298-5.89a11.208 11.208 0 0 1 6.725-2.993V8.479h-1.149a11.31 11.31 0 0 1-4.951-1.148 8.306 8.306 0 0 0-3.631-.841H35.938a.477.477 0 0 0-.47.47c0 .25.215.46.47.46a1.5 1.5 0 1 1 0 3h-3.07c-.271 0-.529.174-.562.379a.472.472 0 0 0 .463.561 1.5 1.5 0 1 1 0 3h-.694c-.278 0-.543.175-.578.381a.453.453 0 0 0 .1.381.47.47 0 0 0 .362.167h2.3a1.5 1.5 0 0 1 1.5 1.5z" fill="#555555" opacity="1" data-original="#000000"></path><path d="M42.033 18.289h-7.775a1.5 1.5 0 1 1 0-3h7.775a1.5 1.5 0 1 1 0 3zM42.033 14.359h-9.265a1.5 1.5 0 1 1 0-3h9.265a1.5 1.5 0 1 1 0 3zM42.033 10.419h-6.095a1.5 1.5 0 1 1 0-3h6.095a1.5 1.5 0 1 1 0 3zM14.858 35.501a3.375 3.375 0 0 1-2.509-1.115 3.51 3.51 0 0 1-1.993.261c-1.538-.247-2.725-1.572-2.885-3.158a3.474 3.474 0 0 1-3.949-3.437V16.188c0-1.707.397-3.418 1.147-4.951a8.292 8.292 0 0 0 .842-3.63V4.958a1.5 1.5 0 0 1 1.5-1.5h11.01a1.5 1.5 0 0 1 1.5 1.5V5.5c0 2.1.79 4.101 2.224 5.635l5.891 6.298a3.655 3.655 0 0 1 .389 4.509 3.636 3.636 0 0 1-2.337 1.582 3.64 3.64 0 0 1-2.768-.549l-.659-.442v7.081c0 1.763-1.207 3.25-2.869 3.538a3.51 3.51 0 0 1-1.252-.01 3.461 3.461 0 0 1-3.283 2.362zm-.466-4.279v.694c0 .278.174.542.381.578a.442.442 0 0 0 .382-.1.47.47 0 0 0 .167-.362v-2.3a1.5 1.5 0 1 1 3 0c0 .188.106.306.169.359a.47.47 0 0 0 .391.103c.206-.036.38-.302.38-.582v-9.896a1.5 1.5 0 0 1 2.336-1.245l2.995 2.011a.664.664 0 0 0 .923-.187.66.66 0 0 0-.071-.815l-5.891-6.298a11.201 11.201 0 0 1-2.992-6.725H8.511v1.149a11.31 11.31 0 0 1-1.148 4.951 8.306 8.306 0 0 0-.841 3.631v11.864c0 .254.215.47.47.47a.47.47 0 0 0 .46-.47 1.5 1.5 0 1 1 3 0v3.07c0 .271.173.529.379.562a.486.486 0 0 0 .396-.104.46.46 0 0 0 .165-.358 1.5 1.5 0 1 1 3 0z" fill="#555555" opacity="1" data-original="#000000"></path><path d="M16.822 31.231a1.5 1.5 0 0 1-1.5-1.5v-7.775a1.5 1.5 0 1 1 3 0v7.775a1.5 1.5 0 0 1-1.5 1.5zM12.892 32.722a1.5 1.5 0 0 1-1.5-1.5v-9.265a1.5 1.5 0 1 1 3 0v9.265a1.5 1.5 0 0 1-1.5 1.5zM8.952 29.552a1.5 1.5 0 0 1-1.5-1.5v-6.095a1.5 1.5 0 1 1 3 0v6.095a1.5 1.5 0 0 1-1.5 1.5zM27.624 60.5H15.76a11.31 11.31 0 0 1-4.951-1.148 8.298 8.298 0 0 0-3.63-.842H4.53a1.5 1.5 0 0 1-1.5-1.5V46a1.5 1.5 0 0 1 1.5-1.5h.542c2.1 0 4.101-.79 5.634-2.224l6.299-5.891a3.653 3.653 0 0 1 4.509-.388 3.639 3.639 0 0 1 1.582 2.336c.195.966 0 1.949-.549 2.768l-.442.658h7.081c1.762 0 3.25 1.206 3.538 2.868.073.421.068.845-.01 1.253a3.462 3.462 0 0 1 2.313 3.867 3.375 3.375 0 0 1-1.066 1.924 3.51 3.51 0 0 1 .261 1.993c-.247 1.538-1.572 2.725-3.158 2.885a3.474 3.474 0 0 1-3.437 3.949zM6.029 55.51h1.149c1.706 0 3.417.397 4.951 1.148a8.292 8.292 0 0 0 3.63.842h11.864c.255 0 .47-.215.47-.47a.47.47 0 0 0-.47-.46 1.5 1.5 0 1 1 0-3h3.071c.271 0 .529-.173.562-.379a.476.476 0 0 0-.104-.396.46.46 0 0 0-.358-.165 1.5 1.5 0 1 1 0-3h.694c.278 0 .542-.174.578-.381a.449.449 0 0 0-.1-.381.47.47 0 0 0-.363-.167h-2.3a1.5 1.5 0 1 1 0-3 .466.466 0 0 0 .359-.169.464.464 0 0 0 .103-.391c-.036-.206-.302-.38-.582-.38h-9.896a1.5 1.5 0 0 1-1.245-2.336l2.011-2.995a.66.66 0 0 0-.187-.922.66.66 0 0 0-.815.069l-6.299 5.891a11.208 11.208 0 0 1-6.725 2.993v8.05z" fill="#555555" opacity="1" data-original="#000000"></path><path d="M29.304 48.7h-7.775a1.5 1.5 0 1 1 0-3h7.775a1.5 1.5 0 1 1 0 3zM30.794 52.63h-9.265a1.5 1.5 0 1 1 0-3h9.265a1.5 1.5 0 1 1 0 3zM27.624 56.57h-6.095a1.5 1.5 0 1 1 0-3h6.095a1.5 1.5 0 1 1 0 3z" fill="#555555" opacity="1" data-original="#000000"></path></g></svg>