<svg xmlns="http://www.w3.org/2000/svg" version="1.1" xmlns:xlink="http://www.w3.org/1999/xlink" width="512" height="512" x="0" y="0" viewBox="0 0 64 64" style="enable-background:new 0 0 512 512" xml:space="preserve" class=""><g><path d="M14.742 23.5a1.5 1.5 0 0 1-1.498-1.61l1.26-17a1.505 1.505 0 0 1 1.607-1.386 1.5 1.5 0 0 1 1.385 1.607l-1.26 17a1.5 1.5 0 0 1-1.494 1.389zM12.001 60.5a1.5 1.5 0 0 1-1.498-1.61l2.15-29a1.501 1.501 0 0 1 2.993.22l-2.15 29a1.5 1.5 0 0 1-1.495 1.39z" fill="#555555" opacity="1" data-original="#000000" class=""></path><path d="M48.814 17.5H15.185a1.5 1.5 0 1 1 0-3h33.63a1.5 1.5 0 0 1 0 3z" fill="#555555" opacity="1" data-original="#000000" class=""></path><path d="M49.258 23.5a1.5 1.5 0 0 1-1.494-1.39l-1.26-17a1.5 1.5 0 0 1 1.385-1.606c.838-.048 1.546.559 1.607 1.385l1.26 17a1.5 1.5 0 0 1-1.498 1.611zM51.998 60.5a1.5 1.5 0 0 1-1.494-1.39l-2.15-29a1.5 1.5 0 0 1 1.384-1.606c.842-.047 1.547.559 1.608 1.385l2.15 29a1.5 1.5 0 0 1-1.498 1.611z" fill="#555555" opacity="1" data-original="#000000" class=""></path><path d="M50.81 44.5H13.19a1.5 1.5 0 1 1 0-3h37.62a1.5 1.5 0 0 1 0 3zM54.888 23.5a1.501 1.501 0 0 1-1.49-1.334L51.658 6.5H12.341l-1.185 10.666a1.5 1.5 0 1 1-2.981-.331l1.333-12A1.5 1.5 0 0 1 11 3.5h42a1.5 1.5 0 0 1 1.491 1.334l1.89 17a1.5 1.5 0 0 1-1.493 1.666z" fill="#555555" opacity="1" data-original="#000000" class=""></path><path d="M59 60.5H5a1.5 1.5 0 0 1-1.49-1.666l3.22-29a1.5 1.5 0 0 1 2.981.331L6.676 57.5h50.648l-2.369-21.334a1.5 1.5 0 0 1 2.983-.332l2.553 23A1.5 1.5 0 0 1 59 60.5z" fill="#555555" opacity="1" data-original="#000000" class=""></path><path d="M32 44.499a1.5 1.5 0 0 1-1.5-1.5v-13a1.5 1.5 0 1 1 3 0v13a1.5 1.5 0 0 1-1.5 1.5zM32 23.5a1.5 1.5 0 0 1-1.5-1.5v-6a1.5 1.5 0 1 1 3 0v6a1.5 1.5 0 0 1-1.5 1.5z" fill="#555555" opacity="1" data-original="#000000" class=""></path><path d="M59 31.5H5A1.5 1.5 0 0 1 3.5 30v-8A1.5 1.5 0 0 1 5 20.5h54a1.5 1.5 0 0 1 1.5 1.5v8a1.5 1.5 0 0 1-1.5 1.5zm-52.5-3h51v-5h-51z" fill="#555555" opacity="1" data-original="#000000" class=""></path></g></svg>