<svg xmlns="http://www.w3.org/2000/svg" version="1.1" xmlns:xlink="http://www.w3.org/1999/xlink" width="512" height="512" x="0" y="0" viewBox="0 0 64 64" style="enable-background:new 0 0 512 512" xml:space="preserve"><g><path d="M59 60.5c-13.26 0-23.71-2.38-31.08-7.08-.7-.45-.9-1.37-.46-2.07.45-.7 1.37-.9 2.07-.46 5.6 3.57 13.53 5.76 23.17 6.41-2.25-1.87-3.43-4.02-3.6-5.82v-.14c0-.48.23-.95.62-1.23 4.88-3.51 7.79-9.19 7.79-15.19 0-8.92-6.35-16.65-15.09-18.36-.81-.16-1.34-.95-1.18-1.76s.95-1.34 1.76-1.18c10.15 1.99 17.51 10.95 17.51 21.3 0 6.63-3.06 12.92-8.24 17.03.62 1.7 2.79 4.16 7.21 5.64.7.23 1.12.94 1.01 1.66s-.75 1.26-1.48 1.26z" fill="#555555" opacity="1" data-original="#000000"></path><path d="M5 50.8c-.74 0-1.36-.53-1.48-1.26s.31-1.43 1.01-1.66c4.42-1.48 6.6-3.94 7.21-5.64A21.762 21.762 0 0 1 3.5 25.21C3.5 13.24 13.24 3.5 25.21 3.5s21.72 9.74 21.72 21.71c0 7.09-3.31 13.19-9.58 17.64C29.96 48.12 19.07 50.8 5 50.8zM25.21 6.5C14.89 6.5 6.5 14.89 6.5 25.21c0 6 2.91 11.68 7.79 15.19.39.28.62.74.62 1.22v.15c-.17 1.8-1.35 3.95-3.61 5.82 10.32-.69 18.64-3.14 24.31-7.19 5.44-3.87 8.32-9.12 8.32-15.2 0-10.32-8.4-18.71-18.72-18.71z" fill="#555555" opacity="1" data-original="#000000"></path><path d="M15.56 28.67c-2.25 0-4.09-1.83-4.09-4.09s1.83-4.09 4.09-4.09 4.09 1.83 4.09 4.09-1.83 4.09-4.09 4.09zm0-5.17c-.6 0-1.09.49-1.09 1.09s.49 1.09 1.09 1.09 1.09-.49 1.09-1.09-.49-1.09-1.09-1.09zM25.21 28.67c-2.25 0-4.09-1.83-4.09-4.09s1.83-4.09 4.09-4.09 4.09 1.83 4.09 4.09-1.83 4.09-4.09 4.09zm0-5.17c-.6 0-1.09.49-1.09 1.09s.49 1.09 1.09 1.09 1.09-.49 1.09-1.09-.49-1.09-1.09-1.09zM34.87 28.67c-2.25 0-4.09-1.83-4.09-4.09s1.83-4.09 4.09-4.09 4.09 1.83 4.09 4.09-1.83 4.09-4.09 4.09zm0-5.17c-.6 0-1.09.49-1.09 1.09s.49 1.09 1.09 1.09 1.09-.49 1.09-1.09-.49-1.09-1.09-1.09z" fill="#555555" opacity="1" data-original="#000000"></path></g></svg>