<svg xmlns="http://www.w3.org/2000/svg" version="1.1" xmlns:xlink="http://www.w3.org/1999/xlink" width="512" height="512" x="0" y="0" viewBox="0 0 64 64" style="enable-background:new 0 0 512 512" xml:space="preserve" class=""><g><path d="M32 43.237a37.09 37.09 0 0 1-6.746-.627c-2.486-.458-4.137-2.859-3.678-5.354.387-2.008 2.059-3.541 4.068-3.74a5.07 5.07 0 0 1 1.282.06c3.392.627 6.8.628 10.138.002a5.19 5.19 0 0 1 1.236-.066c2.064.204 3.736 1.737 4.121 3.732.461 2.506-1.189 4.907-3.676 5.366a37.081 37.081 0 0 1-6.746.627zm-5.948-6.736c-.053 0-.109 0-.166.005-.644.065-1.226.604-1.361 1.307a1.594 1.594 0 0 0 1.275 1.848c4.128.766 8.274.765 12.399 0h.001a1.595 1.595 0 0 0 1.273-1.86 1.624 1.624 0 0 0-1.415-1.299c-.131-.004-.303 0-.452.028-3.693.689-7.47.691-11.22-.002a1.907 1.907 0 0 0-.335-.026z" fill="#555555" opacity="1" data-original="#000000"></path><path d="M32.02 37.047c-1.875 0-3.757-.173-5.633-.52a2.102 2.102 0 0 0-.501-.021c-.453.034-.887-.147-1.193-.477s-.448-.779-.386-1.226l1.035-7.507c.282-2.136 2.13-3.753 4.297-3.753h4.722a4.346 4.346 0 0 1 4.299 3.762l1.033 7.498a1.5 1.5 0 0 1-.386 1.226 1.473 1.473 0 0 1-1.193.477 1.922 1.922 0 0 0-.507.023 30.385 30.385 0 0 1-5.587.518zm-4.529-3.372c3.016.495 6.043.495 9.018.002l-.823-5.97a1.338 1.338 0 0 0-1.326-1.163h-4.722c-.668 0-1.238.496-1.324 1.154l-.824 5.977zM14 43.237a37.09 37.09 0 0 1-6.746-.627c-2.486-.458-4.137-2.859-3.678-5.354.387-2.008 2.059-3.541 4.068-3.74a5.07 5.07 0 0 1 1.282.06c3.392.627 6.801.628 10.138.002a5.195 5.195 0 0 1 1.236-.066c2.064.204 3.736 1.737 4.121 3.732.461 2.506-1.189 4.907-3.676 5.366a37.081 37.081 0 0 1-6.746.627zm-5.948-6.736c-.053 0-.109 0-.166.005-.644.065-1.226.604-1.361 1.307A1.594 1.594 0 0 0 7.8 39.661c4.128.766 8.274.765 12.399 0h.001a1.595 1.595 0 0 0 1.273-1.86 1.624 1.624 0 0 0-1.415-1.299c-.131-.004-.302 0-.452.028-3.693.689-7.47.691-11.22-.002a1.907 1.907 0 0 0-.335-.026z" fill="#555555" opacity="1" data-original="#000000"></path><path d="M14.02 37.047c-1.875 0-3.757-.173-5.633-.52a2.102 2.102 0 0 0-.501-.021c-.452.034-.887-.147-1.193-.477s-.448-.779-.386-1.226l1.035-7.507c.282-2.136 2.13-3.753 4.297-3.753h4.722a4.346 4.346 0 0 1 4.299 3.762l1.033 7.498a1.5 1.5 0 0 1-.386 1.226 1.472 1.472 0 0 1-1.193.477 1.922 1.922 0 0 0-.507.023 30.385 30.385 0 0 1-5.587.518zm-4.529-3.372c3.016.495 6.043.495 9.018.002l-.823-5.97a1.338 1.338 0 0 0-1.326-1.163h-4.722c-.668 0-1.238.496-1.324 1.154l-.824 5.977zM50 43.237a37.09 37.09 0 0 1-6.746-.627c-2.486-.458-4.137-2.859-3.678-5.354.387-2.008 2.059-3.541 4.068-3.74a5.07 5.07 0 0 1 1.282.06c3.392.627 6.8.628 10.138.002a5.195 5.195 0 0 1 1.236-.066c2.064.204 3.736 1.737 4.121 3.732.461 2.506-1.189 4.907-3.676 5.366a37.081 37.081 0 0 1-6.746.627zm-5.948-6.736c-.053 0-.109 0-.166.005-.644.065-1.226.604-1.361 1.307a1.594 1.594 0 0 0 1.275 1.848c4.128.766 8.274.765 12.399 0h.001a1.595 1.595 0 0 0 1.273-1.86 1.624 1.624 0 0 0-1.415-1.299c-.132-.004-.302 0-.452.028-3.693.689-7.47.691-11.22-.002a1.907 1.907 0 0 0-.335-.026z" fill="#555555" opacity="1" data-original="#000000"></path><path d="M50.02 37.047c-1.875 0-3.757-.173-5.633-.52a2.104 2.104 0 0 0-.501-.021c-.454.034-.887-.147-1.193-.477s-.448-.779-.386-1.226l1.035-7.507c.282-2.136 2.13-3.753 4.297-3.753h4.722a4.346 4.346 0 0 1 4.299 3.762l1.033 7.498a1.5 1.5 0 0 1-.386 1.226 1.465 1.465 0 0 1-1.193.477 1.922 1.922 0 0 0-.507.023 30.385 30.385 0 0 1-5.587.518zm-4.529-3.372c3.016.495 6.043.495 9.018.002l-.823-5.97a1.338 1.338 0 0 0-1.326-1.163h-4.722c-.668 0-1.238.496-1.324 1.154l-.824 5.977zM59 51.308H5a1.5 1.5 0 1 1 0-3h54a1.5 1.5 0 1 1 0 3zM59 60.5H5a1.5 1.5 0 1 1 0-3h54a1.5 1.5 0 1 1 0 3zM59 12.854H5a1.5 1.5 0 0 1-1.5-1.5V8.782A5.287 5.287 0 0 1 8.782 3.5h46.437a5.287 5.287 0 0 1 5.282 5.282v2.572a1.5 1.5 0 0 1-1.5 1.5zm-52.5-3h51V8.782A2.284 2.284 0 0 0 55.218 6.5H8.782A2.284 2.284 0 0 0 6.5 8.782z" fill="#555555" opacity="1" data-original="#000000"></path><path d="M49.803 51.308H14.197a1.5 1.5 0 0 1-1.5-1.5v-8.07a1.5 1.5 0 1 1 3 0v6.57h32.606v-6.57a1.5 1.5 0 1 1 3 0v8.07a1.5 1.5 0 0 1-1.5 1.5zM49.803 26.544a1.5 1.5 0 0 1-1.5-1.5v-7.856a1.5 1.5 0 1 1 3 0v7.856a1.5 1.5 0 0 1-1.5 1.5zM14.197 26.544a1.5 1.5 0 0 1-1.5-1.5v-7.856a1.5 1.5 0 1 1 3 0v7.856a1.5 1.5 0 0 1-1.5 1.5z" fill="#555555" opacity="1" data-original="#000000"></path></g></svg>