<svg xmlns="http://www.w3.org/2000/svg" version="1.1" xmlns:xlink="http://www.w3.org/1999/xlink" width="512" height="512" x="0" y="0" viewBox="0 0 64 64" style="enable-background:new 0 0 512 512" xml:space="preserve" class=""><g><path d="M24.4 49.59c-.25 0-.5-.06-.73-.19-.72-.4-.98-1.32-.58-2.04l2.13-3.8a8.601 8.601 0 0 0 1.09-4.18v-4.37c0-.83.67-1.5 1.5-1.5s1.5.67 1.5 1.5v4.37c0 1.97-.51 3.92-1.47 5.64l-2.13 3.8c-.27.49-.79.77-1.31.77zM37.07 44.91c-.58 0-1.13-.34-1.38-.9-.64-1.47-.97-3.03-.97-4.63v-4.36c0-.83.67-1.5 1.5-1.5s1.5.67 1.5 1.5v4.35c0 1.19.24 2.34.72 3.43a1.507 1.507 0 0 1-1.37 2.11z" fill="#555555" opacity="1" data-original="#000000" class=""></path><path d="M32.02 37.18c-8.32 0-15.1-6.77-15.1-15.1V5c0-.83.67-1.5 1.5-1.5h27.19c.83 0 1.5.67 1.5 1.5v17.08c0 8.32-6.77 15.1-15.1 15.1zM19.93 6.5v15.58c0 6.67 5.43 12.1 12.1 12.1s12.1-5.43 12.1-12.1V6.5H19.94z" fill="#555555" opacity="1" data-original="#000000" class=""></path><path d="M23.26 33.98h-5.89c-7.65 0-13.87-6.22-13.87-13.87V9.98c0-2.21 1.79-4 4-4h10.93c.83 0 1.5.67 1.5 1.5s-.67 1.5-1.5 1.5H7.5c-.55 0-1 .45-1 1v10.13c0 5.99 4.88 10.87 10.87 10.87h5.89c.83 0 1.5.67 1.5 1.5s-.67 1.5-1.5 1.5z" fill="#555555" opacity="1" data-original="#000000" class=""></path><path d="M19.55 28.98h-2.18c-4.89 0-8.87-3.98-8.87-8.87v-7.63c0-.83.67-1.5 1.5-1.5h8.43c.83 0 1.5.67 1.5 1.5s-.67 1.5-1.5 1.5H11.5v6.13c0 3.24 2.63 5.87 5.87 5.87h2.18c.83 0 1.5.67 1.5 1.5s-.67 1.5-1.5 1.5zM46.63 33.98h-5.89c-.83 0-1.5-.67-1.5-1.5s.67-1.5 1.5-1.5h5.89c5.99 0 10.87-4.88 10.87-10.87V9.98c0-.55-.45-1-1-1H45.57c-.83 0-1.5-.67-1.5-1.5s.67-1.5 1.5-1.5H56.5c2.21 0 4 1.79 4 4v10.13c0 7.65-6.22 13.87-13.87 13.87z" fill="#555555" opacity="1" data-original="#000000" class=""></path><path d="M46.63 28.98h-2.18c-.83 0-1.5-.67-1.5-1.5s.67-1.5 1.5-1.5h2.18c3.24 0 5.87-2.63 5.87-5.87v-6.13h-6.93c-.83 0-1.5-.67-1.5-1.5s.67-1.5 1.5-1.5H54c.83 0 1.5.67 1.5 1.5v7.63c0 4.89-3.98 8.87-8.87 8.87zM27.79 26.29a1.502 1.502 0 0 1-1.49-1.65l.39-3.95-2.64-2.96c-.35-.4-.47-.95-.31-1.46s.59-.89 1.11-1l3.87-.85 2-3.42c.27-.46.76-.74 1.29-.74s1.03.28 1.29.74l2 3.42 3.87.85c.52.11.94.5 1.11 1 .16.51.05 1.06-.31 1.46l-2.64 2.96.39 3.95c.05.53-.18 1.05-.61 1.36s-1 .37-1.48.16L32 24.57l-3.63 1.59c-.19.08-.4.13-.6.13zm.2-8.64 1.37 1.54c.28.31.41.73.37 1.15l-.2 2.05 1.89-.83c.38-.17.82-.17 1.2 0l1.89.83-.2-2.05c-.04-.42.09-.83.37-1.15l1.37-1.54-2.01-.44c-.41-.09-.76-.35-.97-.71l-1.04-1.78-1.04 1.78c-.21.36-.56.62-.97.71l-2.01.44zM44.7 60.5H19.3c-.83 0-1.5-.67-1.5-1.5v-7.92c0-2.48 2.02-4.5 4.5-4.5h19.4c2.48 0 4.5 2.02 4.5 4.5V59c0 .83-.67 1.5-1.5 1.5zm-23.9-3h22.4v-6.42c0-.83-.67-1.5-1.5-1.5H22.3c-.83 0-1.5.67-1.5 1.5z" fill="#555555" opacity="1" data-original="#000000" class=""></path><path d="M36.62 55.04h-9.23c-.83 0-1.5-.67-1.5-1.5s.67-1.5 1.5-1.5h9.23c.83 0 1.5.67 1.5 1.5s-.67 1.5-1.5 1.5z" fill="#555555" opacity="1" data-original="#000000" class=""></path></g></svg>