<svg width="12" height="19" viewBox="0 0 12 19" fill="none" xmlns="http://www.w3.org/2000/svg">
<path d="M1.42019 0.195052C1.14539 0.189957 0.875805 0.270399 0.648731 0.425248C0.421657 0.580097 0.248328 0.801697 0.152726 1.05938C0.057125 1.31707 0.0439791 1.59809 0.115109 1.86358C0.186238 2.12906 0.338127 2.36587 0.549754 2.54124L8.64886 9.47476L0.544751 16.4083C0.396696 16.5162 0.272622 16.6537 0.180358 16.8119C0.0880932 16.9702 0.0296424 17.1459 0.0086938 17.3279C-0.0122548 17.51 0.00475402 17.6943 0.0586464 17.8695C0.112539 18.0446 0.202145 18.2066 0.321809 18.3454C0.441474 18.4841 0.588599 18.5965 0.753899 18.6756C0.919199 18.7546 1.09908 18.7985 1.2822 18.8045C1.46532 18.8105 1.6477 18.7785 1.81782 18.7105C1.98795 18.6424 2.14213 18.5399 2.27063 18.4093L11.5353 10.4903C11.681 10.3658 11.798 10.2113 11.8782 10.0372C11.9585 9.86322 12 9.67388 12 9.48226C12 9.29064 11.9585 9.1013 11.8782 8.92728C11.798 8.75326 11.681 8.5987 11.5353 8.47425L2.27063 0.530222C2.03585 0.321207 1.73444 0.202418 1.42019 0.195052Z" fill="black"/>
</svg>
