<svg width="12" height="19" viewBox="0 0 12 19" fill="none" xmlns="http://www.w3.org/2000/svg">
<path d="M10.5798 18.9998C10.8546 19.005 11.1242 18.9228 11.3513 18.7648C11.5783 18.6067 11.7517 18.3804 11.8473 18.1173C11.9429 17.8543 11.956 17.5674 11.8849 17.2963C11.8138 17.0253 11.6619 16.7835 11.4502 16.6045L3.35114 9.52578L11.4552 2.4471C11.6033 2.33691 11.7274 2.19659 11.8196 2.03498C11.9119 1.87338 11.9704 1.694 11.9913 1.50817C12.0123 1.32235 11.9952 1.1341 11.9414 0.955324C11.8875 0.776545 11.7979 0.611113 11.6782 0.469467C11.5585 0.32782 11.4114 0.213036 11.2461 0.132357C11.0808 0.0516796 10.9009 0.00686073 10.7178 0.0007267C10.5347 -0.00540543 10.3523 0.0272789 10.1822 0.0967216C10.0121 0.166164 9.85787 0.270859 9.72937 0.404192L0.464673 8.489C0.318971 8.61606 0.20198 8.77386 0.12176 8.95152C0.0415411 9.12918 0 9.32249 0 9.51812C0 9.71375 0.0415411 9.90705 0.12176 10.0847C0.20198 10.2624 0.318971 10.4202 0.464673 10.5472L9.72937 18.6576C9.96415 18.871 10.2656 18.9922 10.5798 18.9998Z" fill="#212427"/>
</svg>
