<svg width="10" height="11" viewBox="0 0 10 11" fill="none" xmlns="http://www.w3.org/2000/svg">
<path d="M7 1V3M3 1V3M1 5H9M1 3C1 2.73478 1.10536 2.48043 1.29289 2.29289C1.48043 2.10536 1.73478 2 2 2H8C8.26522 2 8.51957 2.10536 8.70711 2.29289C8.89464 2.48043 9 2.73478 9 3V9C9 9.26522 8.89464 9.51957 8.70711 9.70711C8.51957 9.89464 8.26522 10 8 10H2C1.73478 10 1.48043 9.89464 1.29289 9.70711C1.10536 9.51957 1 9.26522 1 9V3ZM4.5 7.5C4.5 7.63261 4.55268 7.75979 4.64645 7.85355C4.74021 7.94732 4.86739 8 5 8C5.13261 8 5.25979 7.94732 5.35355 7.85355C5.44732 7.75979 5.5 7.63261 5.5 7.5C5.5 7.36739 5.44732 7.24022 5.35355 7.14645C5.25979 7.05268 5.13261 7 5 7C4.86739 7 4.74021 7.05268 4.64645 7.14645C4.55268 7.24022 4.5 7.36739 4.5 7.5Z" stroke="#868686" stroke-width="1.3" stroke-linecap="round" stroke-linejoin="round"/>
</svg>
