<svg width="12" height="13" viewBox="0 0 12 13" fill="none" xmlns="http://www.w3.org/2000/svg">
<path d="M6 1.33301C8.7615 1.33301 11 3.57151 11 6.33301C11 9.09451 8.7615 11.333 6 11.333C3.2385 11.333 1 9.09451 1 6.33301C1 3.57151 3.2385 1.33301 6 1.33301ZM6 2.33301C4.93913 2.33301 3.92172 2.75444 3.17157 3.50458C2.42143 4.25473 2 5.27214 2 6.33301C2 7.39387 2.42143 8.41129 3.17157 9.16144C3.92172 9.91158 4.93913 10.333 6 10.333C7.06087 10.333 8.07828 9.91158 8.82843 9.16144C9.57857 8.41129 10 7.39387 10 6.33301C10 5.27214 9.57857 4.25473 8.82843 3.50458C8.07828 2.75444 7.06087 2.33301 6 2.33301ZM6 3.33301C6.12247 3.33302 6.24067 3.37799 6.33219 3.45937C6.4237 3.54075 6.48217 3.65288 6.4965 3.77451L6.5 3.83301V6.12601L7.8535 7.47951C7.94317 7.56949 7.99524 7.69023 7.99911 7.8172C8.00299 7.94417 7.95839 8.06786 7.87438 8.16315C7.79036 8.25843 7.67322 8.31816 7.54676 8.33021C7.4203 8.34225 7.294 8.30571 7.1935 8.22801L7.1465 8.18651L5.6465 6.68651C5.56879 6.60873 5.51888 6.50751 5.5045 6.39851L5.5 6.33301V3.83301C5.5 3.7004 5.55268 3.57322 5.64645 3.47945C5.74021 3.38569 5.86739 3.33301 6 3.33301Z" fill="#868686"/>
</svg>
