<svg width="12" height="13" viewBox="0 0 12 13" fill="none" xmlns="http://www.w3.org/2000/svg">
<path d="M3.5 8.16699H4.5C4.5 8.70699 5.185 9.16699 6 9.16699C6.815 9.16699 7.5 8.70699 7.5 8.16699C7.5 7.61699 6.98 7.41699 5.88 7.15199C4.82 6.88699 3.5 6.55699 3.5 5.16699C3.5 4.27199 4.235 3.51199 5.25 3.25699V2.16699H6.75V3.25699C7.765 3.51199 8.5 4.27199 8.5 5.16699H7.5C7.5 4.62699 6.815 4.16699 6 4.16699C5.185 4.16699 4.5 4.62699 4.5 5.16699C4.5 5.71699 5.02 5.91699 6.12 6.18199C7.18 6.44699 8.5 6.77699 8.5 8.16699C8.5 9.06199 7.765 9.82199 6.75 10.077V11.167H5.25V10.077C4.235 9.82199 3.5 9.06199 3.5 8.16699Z" fill="#868686"/>
</svg>
