<svg width="82" height="46" viewBox="0 0 82 46" fill="none" xmlns="http://www.w3.org/2000/svg">
<path d="M63.7162 44.8523C73.3809 44.8523 81.2156 37.0176 81.2156 27.3529C81.2156 17.6883 73.3809 9.85352 63.7162 9.85352C54.0515 9.85352 46.2168 17.6883 46.2168 27.3529C46.2168 37.0176 54.0515 44.8523 63.7162 44.8523Z" fill="#FC657E"/>
<path d="M68.8638 43.6673C68.0889 43.2851 67.5981 42.4961 67.5981 41.6318V39.1562C66.4415 39.7866 65.1183 40.1454 63.7151 40.1454C62.3118 40.1454 60.9886 39.7866 59.832 39.1562V41.6318C59.832 42.4961 59.3413 43.2851 58.5663 43.6673L58.0654 43.9143C59.8385 44.5189 61.7373 44.8518 63.7151 44.8518C65.6928 44.8518 67.5916 44.5189 69.3647 43.9143L68.8638 43.6673Z" fill="#F9C1A8"/>
<path d="M55.5723 32.5291C54.8523 32.6449 54.1896 32.5364 53.5836 32.252C53.3 33.6591 53.3707 35.6152 54.6595 37.9774C55.3504 39.2442 54.3382 40.4127 53.8877 41.832C55.1686 42.703 56.573 43.4049 58.0664 43.9143C58.3528 43.7728 58.5583 43.671 58.5665 43.6671C59.3417 43.2848 59.8322 42.4958 59.8322 41.6315V39.156C57.4398 37.852 55.764 35.3852 55.5723 32.5291Z" fill="#5B5D60"/>
<path d="M72.7716 37.9774C74.0601 35.6149 74.1311 33.6591 73.8473 32.252C73.2195 32.5465 72.5554 32.641 71.8585 32.5291C71.6669 35.3854 69.991 37.852 67.5986 39.156V41.6315C67.5986 42.4958 68.0894 43.2848 68.8643 43.6671C69.058 43.7626 69.2212 43.843 69.3652 43.914C70.8584 43.4046 72.2625 42.703 73.5431 41.832C73.0929 40.4127 72.0807 39.2442 72.7716 37.9774Z" fill="#5B5D60"/>
<path d="M63.7156 23.5488C55.9978 23.5488 51.8633 26.028 51.8633 26.028C51.8633 26.028 53.9287 30.0968 55.9978 29.2509C59.0298 28.0114 63.7156 28.0114 63.7156 28.0114C63.7156 28.0114 68.4014 28.0114 71.4334 29.2509C73.5028 30.0968 75.5679 26.028 75.5679 26.028C75.5679 26.028 71.4334 23.5488 63.7156 23.5488Z" fill="#EDF4FC"/>
<path d="M74.4587 20.8158C74.3051 20.0113 73.5076 19.4219 72.5728 19.4219H54.8586C53.9242 19.4219 53.1264 20.0113 52.9728 20.8158L51.8633 26.0274C51.8633 26.0274 55.9978 23.5482 63.7156 23.5482C71.4334 23.5482 75.5679 26.0274 75.5679 26.0274L74.4587 20.8158Z" fill="#DAE6F1"/>
<path d="M75.007 26.9717C74.333 27.9963 73.1341 29.4703 71.878 29.3573V31.9803C71.878 32.1644 71.8695 32.3465 71.8574 32.5277C72.035 32.5562 72.216 32.5754 72.4018 32.5754C74.2842 32.5754 75.8101 31.0495 75.8101 29.167C75.8101 28.3301 75.5073 27.5648 75.007 26.9717Z" fill="#F9C1A8"/>
<path d="M71.4331 29.2502C68.4011 28.0107 63.7153 28.0107 63.7153 28.0107C63.7153 28.0107 59.0294 28.0107 55.9974 29.2502C55.8486 29.3111 55.6997 29.3438 55.5518 29.3573V31.9803C55.5518 36.4702 59.2253 40.1438 63.7153 40.1438C68.2052 40.1438 71.8788 36.4702 71.8788 31.9803V29.3573C71.7305 29.3438 71.582 29.3111 71.4331 29.2502Z" fill="#F9C1A8"/>
<path d="M55.5512 31.9811V29.3581C54.2962 29.4712 53.0985 28 52.4242 26.9756C51.9233 27.5678 51.6191 28.3312 51.6191 29.1678C51.6191 31.0503 53.145 32.5762 55.0275 32.5762C55.2132 32.5762 55.3942 32.5573 55.5718 32.5288C55.5597 32.3473 55.5512 32.1652 55.5512 31.9811Z" fill="#F9C1A8"/>
<path d="M63.7158 13.6621C59.4463 13.6621 55.7223 16.1064 53.8672 19.6635C54.1581 19.5093 54.4978 19.4205 54.8589 19.4205H72.5731C72.9339 19.4205 73.2739 19.5093 73.5648 19.6635C71.7094 16.1067 67.9853 13.6621 63.7158 13.6621Z" fill="#5B5D60"/>
<path d="M63.7158 9.14746C53.6781 9.14746 45.5117 17.3138 45.5117 27.3516C45.5117 37.3894 53.6781 45.5557 63.7158 45.5557C73.7536 45.5557 81.92 37.3894 81.92 27.3516C81.92 17.3138 73.7536 9.14746 63.7158 9.14746ZM63.7158 44.146C54.4552 44.146 46.9212 36.6119 46.9212 27.3513C46.9212 18.0907 54.4552 10.5569 63.7158 10.5569C72.9765 10.5569 80.5105 18.091 80.5105 27.3516C80.5105 36.6122 72.9765 44.146 63.7158 44.146Z" fill="black"/>
<path d="M59.8332 38.6611C59.4439 38.6611 59.1285 38.9766 59.1285 39.3659V41.6314C59.1285 42.2315 58.7939 42.7694 58.2558 43.0349L58.0142 43.1542C57.6652 43.3264 57.5217 43.749 57.694 44.0979C57.8659 44.4463 58.2879 44.5907 58.6377 44.4182L58.8793 44.2989C59.9023 43.7943 60.538 42.7722 60.538 41.6314V39.3659C60.538 38.9766 60.2225 38.6611 59.8332 38.6611Z" fill="black"/>
<path d="M69.3529 43.1219L69.1748 43.034C68.6363 42.7685 68.302 42.2306 68.302 41.6305V39.3883C68.302 38.999 67.9866 38.6836 67.5973 38.6836C67.208 38.6836 66.8926 38.999 66.8926 39.3883V41.6305C66.8926 42.7713 67.5282 43.7934 68.5512 44.298L68.7291 44.3859C69.0778 44.5582 69.5009 44.415 69.6729 44.066C69.8454 43.7167 69.7019 43.2942 69.3529 43.1219Z" fill="black"/>
<path d="M75.8711 25.4534C75.5275 25.2715 75.101 25.4029 74.9189 25.7471C74.1905 27.1244 72.7317 29.0198 71.6995 28.5987C68.575 27.3214 63.912 27.3068 63.715 27.3068C63.5179 27.3068 58.8546 27.3214 55.7304 28.5987C54.6934 29.0229 53.2346 27.1216 52.5073 25.7398C52.3258 25.3956 51.8998 25.2634 51.5554 25.4443C51.2109 25.6256 51.0787 26.0518 51.26 26.3963C51.6146 27.0697 53.3149 30.0747 55.4102 30.0747C55.6884 30.0747 55.974 30.0217 56.2641 29.903C59.1297 28.7315 63.6696 28.716 63.7152 28.716C63.7609 28.716 68.2957 28.7295 71.1664 29.903C73.6327 30.9124 75.7629 27.1664 76.1652 26.4056C76.3467 26.0617 76.2151 25.6352 75.8711 25.4534Z" fill="black"/>
<path d="M76.257 25.8824L75.1506 20.6852C74.933 19.5458 73.8485 18.7188 72.5724 18.7188H54.8582C53.5821 18.7188 52.4979 19.5458 52.2831 20.6706L51.1736 25.8821C51.1153 26.1558 51.2255 26.438 51.4527 26.6009C51.6802 26.7642 51.9835 26.7768 52.2239 26.6339C52.264 26.6102 56.3159 24.2545 63.7152 24.2545C71.1021 24.2545 75.1528 26.6023 75.2061 26.6339C75.3177 26.7004 75.4426 26.7337 75.5675 26.7337C75.7113 26.7337 75.855 26.6897 75.9771 26.6023C76.2057 26.4397 76.3153 26.157 76.257 25.8824ZM63.7155 22.8453C58.3519 22.8453 54.6837 24.0084 52.8509 24.7735L53.6647 20.9496C53.754 20.4814 54.2671 20.1282 54.8582 20.1282H72.5724C73.1635 20.1282 73.6766 20.4814 73.769 20.964L74.5797 24.7732C72.7472 24.0084 69.0787 22.8453 63.7155 22.8453Z" fill="black"/>
<path d="M75.7118 26.7273C75.4806 26.4144 75.0389 26.3481 74.7263 26.5793C74.4134 26.8104 74.3469 27.2516 74.5783 27.5648C74.9236 28.0321 75.106 28.5863 75.106 29.1673C75.106 30.6582 73.8933 31.8709 72.4024 31.8709C72.3187 31.8709 72.2319 31.8658 72.1371 31.8551C71.7507 31.8117 71.402 32.0908 71.3588 32.4778C71.316 32.8646 71.5945 33.213 71.9815 33.2561C72.1284 33.2725 72.2662 33.2804 72.4024 33.2804C74.6702 33.2804 76.5154 31.4354 76.5154 29.1673C76.5152 28.2825 76.2372 27.4391 75.7118 26.7273Z" fill="black"/>
<path d="M71.8782 28.8617C71.4889 28.8617 71.1734 29.1771 71.1734 29.5664V31.9802C71.1734 36.093 67.8274 39.439 63.7149 39.439C59.6024 39.439 56.2561 36.093 56.2561 31.9802V29.5309C56.2561 29.1416 55.9407 28.8262 55.5514 28.8262C55.1621 28.8262 54.8467 29.1416 54.8467 29.5309V31.9802C54.8467 36.8702 58.825 40.8485 63.7149 40.8485C68.6049 40.8485 72.5829 36.8702 72.5829 31.9802V29.5664C72.5829 29.1771 72.2674 28.8617 71.8782 28.8617Z" fill="black"/>
<path d="M56.0716 32.4787C56.0288 32.0919 55.6809 31.8131 55.2933 31.856C55.1983 31.8667 55.1115 31.8718 55.0278 31.8718C53.5369 31.8718 52.3242 30.6591 52.3242 29.1682C52.3242 28.5779 52.5136 28.0164 52.8722 27.5439C53.1076 27.2339 53.047 26.7919 52.7372 26.5565C52.4271 26.3211 51.9851 26.382 51.7497 26.6915C51.2034 27.4109 50.915 28.2673 50.915 29.1679C50.915 31.4357 52.76 33.2809 55.0281 33.2809C55.1642 33.2809 55.3021 33.2731 55.4492 33.2567C55.8357 33.2139 56.1145 32.8654 56.0716 32.4787Z" fill="black"/>
<path d="M74.0484 19.0795C71.9582 15.3036 67.9983 12.958 63.7138 12.958C59.4294 12.958 55.4694 15.3036 53.3792 19.0795C53.1909 19.42 53.3141 19.8488 53.6546 20.0374C53.9951 20.2254 54.4239 20.1025 54.6125 19.762C56.4543 16.4343 59.9419 14.3672 63.7138 14.3672C67.4858 14.3672 70.9733 16.4343 72.8152 19.762C72.944 19.9942 73.1845 20.1256 73.4325 20.1256C73.5478 20.1256 73.6651 20.0971 73.773 20.0374C74.1138 19.8491 74.237 19.42 74.0484 19.0795Z" fill="black"/>
<path d="M55.2784 37.6393C54.3312 35.9032 53.9786 34.2206 54.23 32.6386C54.2909 32.2541 54.029 31.893 53.6445 31.8318C53.26 31.7718 52.8989 32.0328 52.8378 32.4173C52.5364 34.3142 52.9412 36.2984 54.0409 38.3144C54.3566 38.8929 54.1302 39.4581 53.7034 40.4072C53.5571 40.7325 53.4058 41.0688 53.2784 41.4321C53.1495 41.7994 53.3429 42.2014 53.7099 42.3305C54.0758 42.4591 54.4789 42.2674 54.6083 41.8989C54.716 41.5923 54.8547 41.2839 54.9889 40.9856C55.4368 39.9894 55.9448 38.8607 55.2784 37.6393Z" fill="black"/>
<path d="M73.7279 40.4078C73.3008 39.4586 73.0748 38.8935 73.3905 38.315C74.5206 36.2431 74.9169 34.2085 74.5679 32.2679C74.4991 31.8846 74.1313 31.6297 73.7499 31.6988C73.3668 31.7676 73.112 32.1337 73.1808 32.5168C73.4711 34.1332 73.1255 35.8569 72.153 37.6396C71.4869 38.861 71.9946 39.9894 72.4425 40.9856C72.5578 41.2422 72.677 41.5071 72.776 41.7701C72.9138 42.136 73.3209 42.3176 73.6839 42.1814C74.0481 42.0444 74.2322 41.6379 74.0952 41.2734C73.9805 40.9696 73.8519 40.684 73.7279 40.4078Z" fill="black"/>
<path d="M66.364 33.6617C66.0655 33.4117 65.6213 33.4509 65.3712 33.7491C65.0093 34.181 64.39 34.4386 63.7143 34.4386C63.0386 34.4386 62.419 34.1807 62.0573 33.7491C61.8073 33.4511 61.363 33.4117 61.0645 33.6617C60.7663 33.9118 60.7271 34.3563 60.9771 34.6545C61.6035 35.4018 62.627 35.848 63.7143 35.848C64.8015 35.848 65.8251 35.4018 66.4514 34.6545C66.7015 34.3563 66.6623 33.9118 66.364 33.6617Z" fill="black"/>
<path d="M67.3737 30.7317C67.9754 30.7317 68.4632 30.244 68.4632 29.6422C68.4632 29.0405 67.9754 28.5527 67.3737 28.5527C66.772 28.5527 66.2842 29.0405 66.2842 29.6422C66.2842 30.244 66.772 30.7317 67.3737 30.7317Z" fill="black"/>
<path d="M60.0583 30.7317C60.66 30.7317 61.1478 30.244 61.1478 29.6422C61.1478 29.0405 60.66 28.5527 60.0583 28.5527C59.4565 28.5527 58.9688 29.0405 58.9688 29.6422C58.9688 30.244 59.4565 30.7317 60.0583 30.7317Z" fill="black"/>
<path d="M18.6259 33.5595C28.3895 33.5595 36.3045 26.2158 36.3045 17.1567C36.3045 8.0977 28.3895 0.753906 18.6259 0.753906C8.86226 0.753906 0.947266 8.0977 0.947266 17.1567C0.947266 26.2158 8.86226 33.5595 18.6259 33.5595Z" fill="#F5C84C"/>
<path d="M22.6992 30.7063V29.3096C21.4472 29.942 20.0146 30.302 18.496 30.302C17.08 30.302 15.7398 29.987 14.55 29.4323V30.7063C14.55 31.5437 14.1488 32.3217 13.4834 32.8526C15.1108 33.3107 16.8363 33.5596 18.6248 33.5596C20.4132 33.5596 22.1391 33.311 23.7662 32.8526C23.1 32.3214 22.6992 31.5437 22.6992 30.7063Z" fill="#F9C1A8"/>
<path d="M18.6259 0C8.35564 0 0 7.7246 0 17.2192C0 26.7135 8.35564 34.4381 18.6259 34.4381C28.8962 34.4381 37.2518 26.7135 37.2518 17.2192C37.2518 7.7246 28.8962 0 18.6259 0ZM18.6259 32.6866C9.40028 32.6866 1.89453 25.7477 1.89453 17.2192C1.89453 8.69035 9.40028 1.75145 18.6259 1.75145C27.8515 1.75145 35.3573 8.69035 35.3573 17.2192C35.3573 25.7481 27.8515 32.6866 18.6259 32.6866Z" fill="black"/>
<path d="M25.4185 5.95215C24.4761 5.95215 23.5948 6.19929 22.8378 6.62047C21.9534 5.25078 20.3419 4.32617 18.5053 4.32617H15.911C11.0382 4.32617 7.026 7.91597 6.79297 12.3861H30.4708V10.6395C30.4708 8.06152 28.1974 5.95215 25.4185 5.95215Z" fill="#5B5D60"/>
<path d="M30.6392 12.3867H6.61047C6.36759 12.3867 6.16639 12.5678 6.16602 12.7931V16.0113C6.16602 16.2391 6.36494 16.4237 6.61047 16.4237H30.6392C30.8847 16.4237 31.0836 16.2391 31.0836 16.0113V12.7991C31.0836 12.5713 30.8843 12.3867 30.6392 12.3867Z" fill="#DAE6F1"/>
<path d="M29.9686 16.4229H27.3417V22.0946C27.3417 22.2799 27.3326 22.4627 27.3193 22.6448C27.5118 22.6736 27.7081 22.6926 27.9093 22.6926C29.9486 22.6926 31.6017 21.1587 31.6017 19.2663C31.6017 18.0822 30.9538 17.0381 29.9686 16.4229Z" fill="#F9C1A8"/>
<path d="M9.65234 16.4229V22.0946C9.65234 26.608 13.6324 30.3008 18.4968 30.3008C23.3612 30.3008 27.3412 26.608 27.3412 22.0946V16.4229H9.65234Z" fill="#F9C1A8"/>
<path d="M9.65262 22.0946V16.4229H7.02566C6.04051 17.0381 5.39258 18.0822 5.39258 19.2666C5.39258 21.1587 7.04575 22.693 9.08502 22.693C9.28622 22.693 9.48249 22.674 9.67498 22.6451C9.66171 22.4627 9.65262 22.2799 9.65262 22.0946Z" fill="#F9C1A8"/>
<path d="M24.2198 32.0406C23.85 31.6757 23.6465 31.2018 23.6465 30.7061V29.5674C23.6465 29.0819 23.2225 28.6885 22.6992 28.6885C22.1759 28.6885 21.752 29.0819 21.752 29.5674V30.7061C21.752 31.6507 22.1381 32.5521 22.8387 33.2444C23.0251 33.4282 23.2771 33.5214 23.5294 33.5214C23.7621 33.5214 23.9951 33.4423 24.1777 33.283C24.5593 32.9508 24.5778 32.3946 24.2198 32.0406Z" fill="black"/>
<path d="M14.5504 28.8057C14.0272 28.8057 13.6032 29.1991 13.6032 29.6846V30.7055C13.6032 31.2012 13.3997 31.6751 13.0303 32.0397C12.6722 32.3934 12.6908 32.9495 13.072 33.2817C13.2546 33.4414 13.488 33.5205 13.7203 33.5205C13.9726 33.5205 14.2242 33.4273 14.4106 33.2434C15.1116 32.5516 15.4973 31.6505 15.4973 30.7055V29.6846C15.4977 29.1991 15.0733 28.8057 14.5504 28.8057Z" fill="black"/>
<path d="M30.6408 11.5078H6.61205C5.84476 11.5078 5.2207 12.0847 5.2207 12.7973V16.0117C5.2207 16.7236 5.84476 17.303 6.61205 17.303H30.6408C31.4081 17.303 32.0321 16.7239 32.0321 16.0117V12.7991C32.0321 12.0868 31.4081 11.5078 30.6408 11.5078ZM30.1376 15.5448H7.11523V13.2656H30.1376V15.5448Z" fill="black"/>
<path d="M25.4175 5.07324C24.6361 5.07324 23.862 5.21843 23.1395 5.49722C22.0065 4.21648 20.2988 3.44727 18.5043 3.44727H15.9099C10.747 3.44727 6.33876 7.18472 5.87498 11.9554C5.828 12.4388 6.21221 12.8663 6.73321 12.9099C7.25079 12.9517 7.71457 12.5967 7.76156 12.1133C8.13857 8.23941 11.7173 5.20507 15.9099 5.20507H18.5043C19.932 5.20507 21.2806 5.9205 22.0243 7.07257C22.1536 7.27226 22.3631 7.41675 22.6071 7.47335C22.8507 7.53066 23.1088 7.4948 23.3244 7.37456C23.9628 7.01913 24.6865 6.8314 25.4178 6.8314C27.6814 6.8314 29.5225 8.53964 29.5225 10.6399V12.1576C29.5225 12.6431 29.9465 13.0365 30.4698 13.0365C30.9931 13.0365 31.4171 12.6431 31.4171 12.1576V10.6399C31.4171 7.57038 28.7257 5.07324 25.4175 5.07324Z" fill="black"/>
<path d="M30.7918 15.8945C30.3826 15.5929 29.7862 15.6565 29.4611 16.0362C29.1356 16.4163 29.2038 16.9689 29.6138 17.2713C30.2746 17.7582 30.6535 18.4852 30.6535 19.2667C30.6535 20.6712 29.4221 21.8138 27.9079 21.8138C27.8178 21.8138 27.7295 21.8085 27.642 21.7994C27.1221 21.7421 26.6526 22.0901 26.5931 22.5725C26.5337 23.0548 26.9069 23.4904 27.4267 23.5456C27.5889 23.5632 27.7507 23.5716 27.9083 23.5716C30.4667 23.5716 32.5484 21.6405 32.5484 19.2667C32.5477 17.9459 31.9077 16.7172 30.7918 15.8945Z" fill="black"/>
<path d="M27.3412 15.8566C26.8179 15.8566 26.3939 16.25 26.3939 16.7355V22.0958C26.3939 26.1363 22.8512 29.4234 18.4968 29.4234C14.142 29.4234 10.5996 26.1363 10.5996 22.0958V16.7285C10.5996 16.243 10.1756 15.8496 9.65234 15.8496C9.12907 15.8496 8.70508 16.243 8.70508 16.7285V22.0958C8.70508 27.1056 13.0977 31.1812 18.4968 31.1812C23.8958 31.1812 28.2885 27.1056 28.2885 22.0958V16.7355C28.2885 16.25 27.8645 15.8566 27.3412 15.8566Z" fill="black"/>
<path d="M9.2847 21.8062C9.21915 21.8115 9.15246 21.8143 9.0854 21.8143C7.57167 21.8143 6.33984 20.6717 6.33984 19.2673C6.33984 18.49 6.71572 17.765 7.37123 17.2778C7.77969 16.9747 7.84562 16.421 7.51862 16.0424C7.19125 15.6634 6.59485 15.6026 6.18714 15.9056C5.08036 16.7279 4.44531 17.9531 4.44531 19.2673C4.44531 21.641 6.52664 23.5721 9.0854 23.5721C9.20854 23.5721 9.33017 23.5669 9.44991 23.557C9.9709 23.5148 10.3566 23.0884 10.3108 22.6046C10.2649 22.1209 9.8057 21.7626 9.2847 21.8062Z" fill="black"/>
<path d="M21.6188 24.3313C21.2176 24.0195 20.6204 24.0683 20.2843 24.4403C19.9388 24.8231 19.3162 25.0608 18.66 25.0608C18.0037 25.0608 17.3811 24.8231 17.0356 24.4403C16.6999 24.0683 16.1023 24.0198 15.7011 24.3313C15.3002 24.6431 15.2475 25.1976 15.5836 25.5695C16.2903 26.3514 17.4403 26.8183 18.66 26.8183C19.8797 26.8183 21.0296 26.3514 21.7363 25.5695C22.0724 25.1972 22.0197 24.6428 21.6188 24.3313Z" fill="black"/>
<path d="M22.5747 19.3936C21.9309 19.3936 21.4092 19.8777 21.4092 20.475C21.4092 21.0723 21.9309 21.5564 22.5747 21.5564C23.2185 21.5564 23.7402 21.0723 23.7402 20.475C23.7402 19.878 23.2185 19.3936 22.5747 19.3936Z" fill="black"/>
<path d="M14.7475 19.3936C14.1038 19.3936 13.582 19.8777 13.582 20.475C13.582 21.0723 14.1038 21.5564 14.7475 21.5564C15.3913 21.5564 15.9131 21.0723 15.9131 20.475C15.9131 19.878 15.3913 19.3936 14.7475 19.3936Z" fill="black"/>
</svg>
