<svg width="12" height="13" viewBox="0 0 12 13" fill="none" xmlns="http://www.w3.org/2000/svg">
<path d="M4.125 5.6875C5.5725 5.6875 6.75 6.96313 6.75 8.53125C6.75 10.0994 5.5725 11.375 4.125 11.375C2.6775 11.375 1.5 10.0994 1.5 8.53125C1.5 6.96313 2.6775 5.6875 4.125 5.6875ZM4.125 4.0625C1.845 4.0625 0 6.06125 0 8.53125C0 11.0013 1.845 13 4.125 13C6.405 13 8.25 11.0013 8.25 8.53125C8.25 7.58875 7.98 6.71938 7.5225 5.99625L10.5 2.77875V4.875H12V0H7.5V1.625H9.435L6.4575 4.85063C5.7975 4.355 4.995 4.0625 4.125 4.0625Z" fill="#165E99"/>
</svg>
