<svg width="9" height="14" viewBox="0 0 9 14" fill="none" xmlns="http://www.w3.org/2000/svg">
<path d="M0 4.52941C0 2.02588 2.01273 0 4.5 0C6.98727 0 9 2.02588 9 4.52941C9 6.75294 7.41273 8.58941 5.31818 8.97647V10.7059H6.95455V12.3529H5.31818V14H3.68182V12.3529H2.04545V10.7059H3.68182V8.97647C1.58727 8.58941 0 6.75294 0 4.52941ZM7.36364 4.52941C7.36364 2.94 6.07909 1.64706 4.5 1.64706C2.92091 1.64706 1.63636 2.94 1.63636 4.52941C1.63636 6.11882 2.92091 7.41176 4.5 7.41176C6.07909 7.41176 7.36364 6.11882 7.36364 4.52941Z" fill="#4DABFE"/>
</svg>
