<svg width="41" height="35" viewBox="0 0 41 35" fill="none" xmlns="http://www.w3.org/2000/svg">
<path d="M38.0741 34.9999H4.92092C4.67668 34.9999 4.44244 34.9029 4.26973 34.7302C4.09703 34.5575 4 34.3232 4 34.079V0.924854C4 0.680604 4.09703 0.446357 4.26973 0.273646C4.44244 0.100934 4.67668 0.00390625 4.92092 0.00390625C5.16517 0.00390625 5.39941 0.100934 5.57211 0.273646C5.74482 0.446357 5.84184 0.680604 5.84184 0.924854V33.158H38.0741C38.3184 33.158 38.5526 33.2551 38.7253 33.4278C38.898 33.6005 38.995 33.8347 38.995 34.079C38.995 34.3232 38.898 34.5575 38.7253 34.7302C38.5526 34.9029 38.3184 34.9999 38.0741 34.9999Z" fill="#602E98"/>
<path d="M31.9171 0C28.0119 0 24.835 3.17699 24.835 7.08232C24.835 10.9876 28.0119 14.1651 31.9171 14.1651C35.8223 14.1651 38.9997 10.9876 38.9997 7.08232C38.9997 3.17699 35.8223 0 31.9171 0ZM27.5163 6.55801C27.1488 6.1499 27.1818 5.5211 27.5899 5.15363C27.998 4.78616 28.6268 4.81908 28.9943 5.22722C29.3617 5.63536 29.3288 6.26413 28.9206 6.63163C28.5125 6.9991 27.8838 6.96615 27.5163 6.55801ZM30.0585 11.1062C29.5568 11.3295 28.969 11.1039 28.7456 10.6022C28.5223 10.1004 28.7479 9.51262 29.2496 9.28926C29.7513 9.06588 30.3391 9.29151 30.5625 9.79324C30.7858 10.2949 30.5602 10.8828 30.0585 11.1062ZM32.7785 7.57974C32.5039 8.05534 31.8957 8.2183 31.4201 7.94373C30.9445 7.66911 30.7815 7.06093 31.0561 6.58532C31.3307 6.10969 31.9389 5.94673 32.4145 6.22133C32.8901 6.49592 33.053 7.1041 32.7785 7.57974ZM32.7785 3.72916C32.5039 4.20479 31.8957 4.36773 31.4201 4.09315C30.9445 3.81854 30.7815 3.21038 31.0561 2.73474C31.3307 2.25911 31.9389 2.09615 32.4145 2.37076C32.8901 2.64537 33.053 3.25353 32.7785 3.72916ZM34.2845 11.1867C33.7383 11.2441 33.249 10.8478 33.1916 10.3016C33.1342 9.75546 33.5304 9.26614 34.0766 9.20872C34.6228 9.1513 35.1121 9.54755 35.1695 10.0937C35.2269 10.64 34.8306 11.1292 34.2845 11.1867ZM36.5519 6.09937C36.4378 6.63658 35.9097 6.9795 35.3726 6.86531C34.8354 6.75115 34.4925 6.22307 34.6066 5.6859C34.7208 5.14869 35.2488 4.80577 35.786 4.91993C36.3232 5.03413 36.6661 5.56217 36.5519 6.09937Z" fill="#A04DFE"/>
<path d="M4.92046 35.0003C4.76564 35.0004 4.6133 34.9615 4.47755 34.887C4.3418 34.8126 4.22703 34.7051 4.14389 34.5745C4.06074 34.4439 4.01191 34.2944 4.00192 34.14C3.99192 33.9855 4.02109 33.8309 4.08672 33.6907L10.3686 20.1982C10.4387 20.0471 10.5485 19.9178 10.6862 19.8242C10.8239 19.7306 10.9845 19.6761 11.1508 19.6665C11.3169 19.659 11.482 19.6957 11.6293 19.773C11.7765 19.8502 11.9006 19.9652 11.9888 20.1061L15.1507 25.2757L19.6804 12.9264C19.7439 12.753 19.858 12.6026 20.008 12.4949C20.158 12.3872 20.3369 12.327 20.5215 12.3223C20.9034 12.3235 21.2447 12.5353 21.3921 12.8834L24.9303 21.1996L27.251 15.2337C27.293 15.1185 27.3576 15.0128 27.4409 14.9229C27.5243 14.833 27.6248 14.7606 27.7365 14.7101C27.8482 14.6595 27.9689 14.6318 28.0915 14.6285C28.214 14.6252 28.336 14.6464 28.4503 14.6909C28.5646 14.7353 28.6688 14.8022 28.7569 14.8875C28.845 14.9728 28.9151 15.0748 28.9632 15.1876C29.0114 15.3004 29.0365 15.4217 29.0371 15.5443C29.0378 15.6669 29.0139 15.7884 28.967 15.9017L25.826 23.9759C25.6909 24.3247 25.357 24.5568 24.9824 24.5629H24.9677C24.5993 24.5629 24.2654 24.3431 24.1205 24.0023L20.6081 15.7445L16.2226 27.6984C16.1629 27.8608 16.0586 28.003 15.9217 28.1088C15.7849 28.2147 15.621 28.2798 15.4488 28.2968C15.2766 28.3138 15.1031 28.2819 14.9482 28.2049C14.7933 28.1278 14.6633 28.0087 14.573 27.8611L11.3135 22.5319L5.75543 34.4674C5.68166 34.6265 5.56391 34.7613 5.41608 34.8557C5.26824 34.9501 5.09588 35.0003 4.92046 35.0003Z" fill="#602E98"/>
</svg>
