<svg width="43" height="43" viewBox="0 0 43 43" fill="none" xmlns="http://www.w3.org/2000/svg">
<path d="M16.2478 28.065C17.4715 28.065 18.4635 27.0731 18.4635 25.8494C18.4635 24.6258 17.4715 23.6338 16.2478 23.6338C15.0242 23.6338 14.0322 24.6258 14.0322 25.8494C14.0322 27.0731 15.0242 28.065 16.2478 28.065Z" fill="#747477" fill-opacity="0.8"/>
<path d="M16.2478 19.2025C17.4715 19.2025 18.4635 18.3758 18.4635 17.3561C18.4635 16.3364 17.4715 15.5098 16.2478 15.5098C15.0242 15.5098 14.0322 16.3364 14.0322 17.3561C14.0322 18.3758 15.0242 19.2025 16.2478 19.2025Z" fill="#747477" fill-opacity="0.8"/>
<path d="M8.12382 25.1099C9.34747 25.1099 10.3394 24.118 10.3394 22.8943C10.3394 21.6707 9.34747 20.6787 8.12382 20.6787C6.90017 20.6787 5.9082 21.6707 5.9082 22.8943C5.9082 24.118 6.90017 25.1099 8.12382 25.1099Z" fill="#747477" fill-opacity="0.8"/>
<path d="M10.7089 35.4498C12.1365 35.4498 13.2938 34.4578 13.2938 33.2342C13.2938 32.0105 12.1365 31.0186 10.7089 31.0186C9.28132 31.0186 8.12402 32.0105 8.12402 33.2342C8.12402 34.4578 9.28132 35.4498 10.7089 35.4498Z" fill="#747477" fill-opacity="0.8"/>
<path d="M21.787 35.4498C23.2146 35.4498 24.3719 34.4578 24.3719 33.2342C24.3719 32.0105 23.2146 31.0186 21.787 31.0186C20.3594 31.0186 19.2021 32.0105 19.2021 33.2342C19.2021 34.4578 20.3594 35.4498 21.787 35.4498Z" fill="#747477" fill-opacity="0.8"/>
<path d="M24.3728 25.1099C25.5965 25.1099 26.5885 24.118 26.5885 22.8943C26.5885 21.6707 25.5965 20.6787 24.3728 20.6787C23.1492 20.6787 22.1572 21.6707 22.1572 22.8943C22.1572 24.118 23.1492 25.1099 24.3728 25.1099Z" fill="#747477" fill-opacity="0.8"/>
<path d="M16.2848 42.1046C12.3336 42.1046 8.52275 40.6718 5.55382 38.0648C2.0236 34.9777 0 30.5169 0 25.8198C0 21.1227 2.0236 16.662 5.55382 13.5675C8.95849 10.5764 13.5005 9.12888 18.0573 9.6237C18.6629 9.69017 19.106 10.2367 19.0396 10.8423C18.9731 11.4479 18.4192 11.8836 17.821 11.8245C13.8845 11.3962 9.9629 12.6443 7.01613 15.2292C3.96596 17.9027 2.21562 21.7653 2.21562 25.8124C2.21562 29.8596 3.96596 33.7222 7.01613 36.3883C9.57886 38.6408 12.8727 39.8816 16.2848 39.8816C19.6968 39.8816 22.9907 38.6408 25.5535 36.3883C28.611 33.7222 30.3614 29.867 30.3614 25.8124C30.3614 23.7889 29.9404 21.8317 29.0985 20.0002C28.8474 19.4463 29.0911 18.789 29.645 18.5305C30.1989 18.2794 30.8562 18.5305 31.1147 19.077C32.0822 21.204 32.577 23.4639 32.577 25.8051C32.577 30.5022 30.546 34.9629 27.0158 38.05C24.0542 40.657 20.2434 42.0898 16.2848 42.0898V42.1046Z" fill="#747477"/>
<path d="M24.0033 21.5284C23.7448 21.5284 23.4937 21.4397 23.2869 21.2699C22.9989 21.0262 22.8512 20.6569 22.9029 20.2802L23.3755 16.6245C22.0388 14.8372 21.3076 12.6438 21.3076 10.3986C21.3076 4.66756 25.9678 0 31.7063 0C37.4447 0 42.1049 4.66017 42.1049 10.3986C42.1049 16.137 37.4447 20.7898 31.7063 20.7898C30.5689 20.7898 29.4463 20.5978 28.3533 20.2285L24.3356 21.4767C24.2248 21.5062 24.1141 21.5284 24.0033 21.5284ZM31.6989 2.223C27.1864 2.223 23.5159 5.89353 23.5159 10.406C23.5159 12.2966 24.1805 14.1504 25.3844 15.6053C25.5764 15.8416 25.665 16.1518 25.6281 16.4546L25.3179 18.8622L28.0431 18.0129C28.2794 17.9391 28.5379 17.9465 28.7669 18.0351C29.7196 18.397 30.7018 18.5816 31.6989 18.5816C36.2113 18.5816 39.8819 14.9111 39.8819 10.406C39.8819 5.90092 36.2113 2.223 31.6989 2.223Z" fill="#FEA04D"/>
<path d="M31.6993 13.3898C31.0864 13.3898 30.5915 12.895 30.5915 12.282V11.6174C30.5915 10.5391 31.2341 9.57161 32.2311 9.15803C32.7555 8.94385 33.2355 8.33825 33.0509 7.52586C32.9401 7.03104 32.5339 6.62484 32.0391 6.51406C31.596 6.41067 31.1676 6.51406 30.8279 6.77994C30.4955 7.04581 30.3035 7.44462 30.3035 7.87297C30.3035 8.48596 29.8087 8.98078 29.1957 8.98078C28.5827 8.98078 28.0879 8.48596 28.0879 7.87297C28.0879 6.76517 28.5827 5.7386 29.4468 5.05176C30.3109 4.36492 31.4335 4.11382 32.5339 4.35753C33.8559 4.66033 34.912 5.70906 35.2148 7.03843C35.6136 8.78137 34.7126 10.5317 33.0804 11.2112C32.9106 11.2776 32.8072 11.4401 32.8072 11.6247V12.2894C32.8072 12.9024 32.3123 13.3972 31.6993 13.3972V13.3898Z" fill="#FEA04D" fill-opacity="0.8"/>
<path d="M31.6996 16.5426C31.5593 16.5426 31.4116 16.5131 31.2786 16.4614C31.1457 16.4023 31.0202 16.3211 30.9168 16.2177C30.8134 16.1143 30.7321 15.9961 30.6804 15.8632C30.6213 15.7229 30.5918 15.5825 30.5918 15.4348C30.5918 15.361 30.6066 15.2871 30.614 15.2207C30.6287 15.1468 30.6509 15.0803 30.6804 15.0139C30.71 14.9474 30.7395 14.8809 30.7838 14.8218C30.8207 14.7628 30.8724 14.7037 30.9168 14.652C31.3303 14.2384 32.0763 14.2384 32.4825 14.652C32.5342 14.7037 32.5859 14.7628 32.6228 14.8218C32.6671 14.8809 32.6966 14.9474 32.7262 15.0139C32.7557 15.0803 32.7779 15.1468 32.7926 15.2207C32.8074 15.2871 32.8148 15.361 32.8148 15.4348C32.8148 15.7302 32.6966 16.0109 32.4825 16.2177C32.2757 16.4245 31.995 16.5426 31.6996 16.5426Z" fill="#FEA04D" fill-opacity="0.8"/>
</svg>
