<svg width="30" height="31" viewBox="0 0 30 31" fill="none" xmlns="http://www.w3.org/2000/svg">
<g filter="url(#filter0_d_2009_13357)">
<path d="M27.9996 14.3906C27.9925 14.6561 27.9659 14.9251 27.918 15.1941C27.1972 19.2795 21.7544 23.6532 9.67928 27.9762C9.37394 28.0845 9.09701 27.812 9.16802 27.5011C11.0817 19.0036 10.8332 6.58651 9.0402 1.49148C8.93724 1.20328 9.23725 0.92556 9.53549 1.01813C20.6165 4.46606 28.1381 9.16809 27.9996 14.3906Z" fill="#A04DFE" fill-opacity="0.5" shape-rendering="crispEdges"/>
</g>
<path d="M10.0039 14.3906V15.1941H10.201V14.3906H10.0039Z" stroke="#ED2124" stroke-miterlimit="10"/>
<g filter="url(#filter1_d_2009_13357)">
<path d="M10.6886 4.09959C10.4206 3.97557 10.1489 3.85331 9.87201 3.73279C7.6654 2.75989 5.19251 1.85337 2.51014 1.01846C2.21367 0.92589 1.93141 1.19662 2.01485 1.49181C4.51082 10.3893 4.80018 19.0406 2.14266 27.5015C2.0468 27.8054 2.35037 28.0848 2.65393 27.9765C5.39311 26.9949 7.79322 26.0115 9.87201 25.0282C10.1507 24.8989 10.4223 24.7662 10.6886 24.6352C17.2161 21.4213 20.3583 18.2284 20.8944 15.1944C20.9423 14.9254 20.969 14.6565 20.9761 14.391C21.0773 10.5902 17.122 7.06543 10.6886 4.09959ZM10.6886 18.8118C10.5306 18.8764 10.3673 18.9393 10.2004 19.0039V15.1944H10.0034V14.391H10.2004V10.461C10.3673 10.5396 10.5288 10.6182 10.6886 10.6968C13.1722 11.9177 14.8213 13.1473 15.2083 14.391C15.2918 14.6582 15.3184 14.9254 15.2794 15.1944C15.1125 16.3857 13.7083 17.5926 10.6886 18.8118Z" fill="#602E98"/>
</g>
<path d="M15.2089 14.3906C15.2923 14.6579 15.3189 14.9251 15.2799 15.1941H10.0039V14.3906H15.2089Z" fill="white"/>
<path d="M27.999 14.3906C27.9919 14.6561 27.9653 14.9251 27.9173 15.1941H20.8945C20.9425 14.9251 20.9691 14.6561 20.9762 14.3906H27.999Z" fill="white"/>
<path d="M10.6887 4.09922V24.6348C10.4224 24.7658 10.1508 24.8985 9.87207 25.0278V3.73242C10.149 3.85294 10.4206 3.97521 10.6887 4.09922Z" fill="white"/>
<defs>
<filter id="filter0_d_2009_13357" x="7.01953" y="0" width="22.9824" height="31" filterUnits="userSpaceOnUse" color-interpolation-filters="sRGB">
<feFlood flood-opacity="0" result="BackgroundImageFix"/>
<feColorMatrix in="SourceAlpha" type="matrix" values="0 0 0 0 0 0 0 0 0 0 0 0 0 0 0 0 0 0 127 0" result="hardAlpha"/>
<feOffset dy="1"/>
<feGaussianBlur stdDeviation="1"/>
<feComposite in2="hardAlpha" operator="out"/>
<feColorMatrix type="matrix" values="0 0 0 0 0 0 0 0 0 0 0 0 0 0 0 0 0 0 0.25 0"/>
<feBlend mode="normal" in2="BackgroundImageFix" result="effect1_dropShadow_2009_13357"/>
<feBlend mode="normal" in="SourceGraphic" in2="effect1_dropShadow_2009_13357" result="shape"/>
</filter>
<filter id="filter1_d_2009_13357" x="0" y="0" width="22.9775" height="31" filterUnits="userSpaceOnUse" color-interpolation-filters="sRGB">
<feFlood flood-opacity="0" result="BackgroundImageFix"/>
<feColorMatrix in="SourceAlpha" type="matrix" values="0 0 0 0 0 0 0 0 0 0 0 0 0 0 0 0 0 0 127 0" result="hardAlpha"/>
<feOffset dy="1"/>
<feGaussianBlur stdDeviation="1"/>
<feComposite in2="hardAlpha" operator="out"/>
<feColorMatrix type="matrix" values="0 0 0 0 0 0 0 0 0 0 0 0 0 0 0 0 0 0 0.25 0"/>
<feBlend mode="normal" in2="BackgroundImageFix" result="effect1_dropShadow_2009_13357"/>
<feBlend mode="normal" in="SourceGraphic" in2="effect1_dropShadow_2009_13357" result="shape"/>
</filter>
</defs>
</svg>
