<svg width="278" height="101" viewBox="0 0 278 101" fill="none" xmlns="http://www.w3.org/2000/svg">
<path opacity="0.2" d="M12.1969 27C14.1302 24.4667 16.7635 22.3333 20.0969 20.6C23.4302 18.8667 27.1969 18 31.3969 18C36.1969 18 40.5635 19.2 44.4969 21.6C48.4969 23.9333 51.6302 27.2333 53.8969 31.5C56.1635 35.7667 57.2969 40.6667 57.2969 46.2C57.2969 51.7333 56.1635 56.7 53.8969 61.1C51.6302 65.4333 48.4969 68.8333 44.4969 71.3C40.5635 73.7 36.1969 74.9 31.3969 74.9C27.1969 74.9 23.4635 74.0667 20.1969 72.4C16.9302 70.6667 14.2635 68.5333 12.1969 66V100.2H0.796875V18.9H12.1969V27ZM45.6969 46.2C45.6969 42.4 44.8969 39.1333 43.2969 36.4C41.7635 33.6 39.6969 31.5 37.0969 30.1C34.5635 28.6333 31.8302 27.9 28.8969 27.9C26.0302 27.9 23.2969 28.6333 20.6969 30.1C18.1635 31.5667 16.0969 33.7 14.4969 36.5C12.9635 39.3 12.1969 42.6 12.1969 46.4C12.1969 50.2 12.9635 53.5333 14.4969 56.4C16.0969 59.2 18.1635 61.3333 20.6969 62.8C23.2969 64.2667 26.0302 65 28.8969 65C31.8302 65 34.5635 64.2667 37.0969 62.8C39.6969 61.2667 41.7635 59.0667 43.2969 56.2C44.8969 53.3333 45.6969 50 45.6969 46.2ZM64.7703 46.2C64.7703 40.6667 65.9036 35.7667 68.1703 31.5C70.5036 27.2333 73.637 23.9333 77.5703 21.6C81.5703 19.2 85.9703 18 90.7703 18C95.1036 18 98.8703 18.8667 102.07 20.6C105.337 22.2667 107.937 24.3667 109.87 26.9V18.9H121.37V74H109.87V65.8C107.937 68.4 105.304 70.5667 101.97 72.3C98.637 74.0333 94.837 74.9 90.5703 74.9C85.837 74.9 81.5036 73.7 77.5703 71.3C73.637 68.8333 70.5036 65.4333 68.1703 61.1C65.9036 56.7 64.7703 51.7333 64.7703 46.2ZM109.87 46.4C109.87 42.6 109.07 39.3 107.47 36.5C105.937 33.7 103.904 31.5667 101.37 30.1C98.837 28.6333 96.1036 27.9 93.1703 27.9C90.237 27.9 87.5036 28.6333 84.9703 30.1C82.437 31.5 80.3703 33.6 78.7703 36.4C77.237 39.1333 76.4703 42.4 76.4703 46.2C76.4703 50 77.237 53.3333 78.7703 56.2C80.3703 59.0667 82.437 61.2667 84.9703 62.8C87.5703 64.2667 90.3036 65 93.1703 65C96.1036 65 98.837 64.2667 101.37 62.8C103.904 61.3333 105.937 59.2 107.47 56.4C109.07 53.5333 109.87 50.2 109.87 46.4ZM132.544 46.2C132.544 40.6667 133.677 35.7667 135.944 31.5C138.277 27.2333 141.41 23.9333 145.344 21.6C149.344 19.2 153.777 18 158.644 18C162.244 18 165.777 18.8 169.244 20.4C172.777 21.9333 175.577 24 177.644 26.6V-9.53674e-07H189.144V74H177.644V65.7C175.777 68.3667 173.177 70.5667 169.844 72.3C166.577 74.0333 162.81 74.9 158.544 74.9C153.744 74.9 149.344 73.7 145.344 71.3C141.41 68.8333 138.277 65.4333 135.944 61.1C133.677 56.7 132.544 51.7333 132.544 46.2ZM177.644 46.4C177.644 42.6 176.844 39.3 175.244 36.5C173.71 33.7 171.677 31.5667 169.144 30.1C166.61 28.6333 163.877 27.9 160.944 27.9C158.01 27.9 155.277 28.6333 152.744 30.1C150.21 31.5 148.144 33.6 146.544 36.4C145.01 39.1333 144.244 42.4 144.244 46.2C144.244 50 145.01 53.3333 146.544 56.2C148.144 59.0667 150.21 61.2667 152.744 62.8C155.344 64.2667 158.077 65 160.944 65C163.877 65 166.61 64.2667 169.144 62.8C171.677 61.3333 173.71 59.2 175.244 56.4C176.844 53.5333 177.644 50.2 177.644 46.4ZM254.617 45.1C254.617 47.1667 254.484 49.0333 254.217 50.7H212.117C212.451 55.1 214.084 58.6333 217.017 61.3C219.951 63.9667 223.551 65.3 227.817 65.3C233.951 65.3 238.284 62.7333 240.817 57.6H253.117C251.451 62.6667 248.417 66.8333 244.017 70.1C239.684 73.3 234.284 74.9 227.817 74.9C222.551 74.9 217.817 73.7333 213.617 71.4C209.484 69 206.217 65.6667 203.817 61.4C201.484 57.0667 200.317 52.0667 200.317 46.4C200.317 40.7333 201.451 35.7667 203.717 31.5C206.051 27.1667 209.284 23.8333 213.417 21.5C217.617 19.1667 222.417 18 227.817 18C233.017 18 237.651 19.1333 241.717 21.4C245.784 23.6667 248.951 26.8667 251.217 31C253.484 35.0667 254.617 39.7667 254.617 45.1ZM242.717 41.5C242.651 37.3 241.151 33.9333 238.217 31.4C235.284 28.8667 231.651 27.6 227.317 27.6C223.384 27.6 220.017 28.8667 217.217 31.4C214.417 33.8667 212.751 37.2333 212.217 41.5H242.717ZM277.236 -9.53674e-07V74H265.836V-9.53674e-07H277.236Z" fill="url(#paint0_linear_1460_10605)" fill-opacity="0.8"/>
<defs>
<linearGradient id="paint0_linear_1460_10605" x1="-47" y1="39" x2="325" y2="39" gradientUnits="userSpaceOnUse">
<stop stop-color="#9BD0FF"/>
<stop offset="1" stop-color="#5D7D99"/>
</linearGradient>
</defs>
</svg>
