<svg width="30" height="30" viewBox="0 0 30 30" fill="none" xmlns="http://www.w3.org/2000/svg">
<path d="M15.9012 21.3704L21.3699 15.9016C21.4695 15.7976 21.5475 15.675 21.5996 15.5407C21.709 15.2744 21.709 14.9757 21.5996 14.7095C21.5475 14.5752 21.4695 14.4525 21.3699 14.3485L15.9012 8.87977C15.7992 8.77779 15.6781 8.69689 15.5449 8.6417C15.4116 8.58651 15.2688 8.55811 15.1246 8.55811C14.8333 8.55811 14.554 8.67381 14.348 8.87977C14.1421 9.08573 14.0264 9.36506 14.0264 9.65633C14.0264 9.9476 14.1421 10.2269 14.348 10.4329L17.9574 14.0313L9.65585 14.0313C9.36577 14.0313 9.08757 14.1466 8.88245 14.3517C8.67733 14.5568 8.5621 14.835 8.5621 15.1251C8.5621 15.4152 8.67733 15.6934 8.88245 15.8985C9.08757 16.1036 9.36577 16.2188 9.65585 16.2188H17.9574L14.348 19.8173C14.2455 19.9189 14.1641 20.0399 14.1086 20.1732C14.0531 20.3065 14.0245 20.4494 14.0245 20.5938C14.0245 20.7382 14.0531 20.8812 14.1086 21.0145C14.1641 21.1477 14.2455 21.2687 14.348 21.3704C14.4497 21.4729 14.5707 21.5543 14.704 21.6098C14.8372 21.6653 14.9802 21.6939 15.1246 21.6939C15.269 21.6939 15.4119 21.6653 15.5452 21.6098C15.6785 21.5543 15.7995 21.4729 15.9012 21.3704Z" fill="#A04DFE"/>
<circle cx="15" cy="15" r="15" fill="#A04DFE" fill-opacity="0.15"/>
</svg>
