<svg width="231" height="129" viewBox="0 0 231 129" fill="none" xmlns="http://www.w3.org/2000/svg">
<path opacity="0.2" d="M10.0966 24.4C11.6432 22.3733 13.7499 20.6667 16.4166 19.28C19.0832 17.8933 22.0966 17.2 25.4566 17.2C29.2966 17.2 32.7899 18.16 35.9366 20.08C39.1366 21.9467 41.6432 24.5867 43.4566 28C45.2699 31.4133 46.1766 35.3333 46.1766 39.76C46.1766 44.1867 45.2699 48.16 43.4566 51.68C41.6432 55.1467 39.1366 57.8667 35.9366 59.84C32.7899 61.76 29.2966 62.72 25.4566 62.72C22.0966 62.72 19.1099 62.0533 16.4966 60.72C13.8832 59.3333 11.7499 57.6267 10.0966 55.6V82.96H0.976563V17.92H10.0966V24.4ZM36.8966 39.76C36.8966 36.72 36.2566 34.1067 34.9766 31.92C33.7499 29.68 32.0966 28 30.0166 26.88C27.9899 25.7067 25.8032 25.12 23.4566 25.12C21.1632 25.12 18.9766 25.7067 16.8966 26.88C14.8699 28.0533 13.2166 29.76 11.9366 32C10.7099 34.24 10.0966 36.88 10.0966 39.92C10.0966 42.96 10.7099 45.6267 11.9366 47.92C13.2166 50.16 14.8699 51.8667 16.8966 53.04C18.9766 54.2133 21.1632 54.8 23.4566 54.8C25.8032 54.8 27.9899 54.2133 30.0166 53.04C32.0966 51.8133 33.7499 50.0533 34.9766 47.76C36.2566 45.4667 36.8966 42.8 36.8966 39.76ZM59.8353 12.08C58.182 12.08 56.7953 11.52 55.6753 10.4C54.5553 9.28 53.9953 7.89333 53.9953 6.24C53.9953 4.58666 54.5553 3.2 55.6753 2.08C56.7953 0.959997 58.182 0.399997 59.8353 0.399997C61.4353 0.399997 62.7953 0.959997 63.9153 2.08C65.0353 3.2 65.5953 4.58666 65.5953 6.24C65.5953 7.89333 65.0353 9.28 63.9153 10.4C62.7953 11.52 61.4353 12.08 59.8353 12.08ZM64.3153 17.92V62H55.1953V17.92H64.3153ZM73.2491 39.92C73.2491 35.3867 74.1557 31.4133 75.9691 28C77.8357 24.5333 80.3957 21.8667 83.6491 20C86.9024 18.1333 90.6357 17.2 94.8491 17.2C100.182 17.2 104.582 18.48 108.049 21.04C111.569 23.5467 113.942 27.1467 115.169 31.84H105.329C104.529 29.6533 103.249 27.9467 101.489 26.72C99.7291 25.4933 97.5157 24.88 94.8491 24.88C91.1157 24.88 88.1291 26.2133 85.8891 28.88C83.7024 31.4933 82.6091 35.1733 82.6091 39.92C82.6091 44.6667 83.7024 48.3733 85.8891 51.04C88.1291 53.7067 91.1157 55.04 94.8491 55.04C100.129 55.04 103.622 52.72 105.329 48.08H115.169C113.889 52.56 111.489 56.1333 107.969 58.8C104.449 61.4133 100.076 62.72 94.8491 62.72C90.6357 62.72 86.9024 61.7867 83.6491 59.92C80.3957 58 77.8357 55.3333 75.9691 51.92C74.1557 48.4533 73.2491 44.4533 73.2491 39.92ZM141.698 40L162.018 62H149.698L133.378 43.04V62H124.258V2.8H133.378V37.2L149.378 17.92H162.018L141.698 40ZM177.675 2.8V62H168.555V2.8H177.675ZM230.048 38.88C230.048 40.5333 229.942 42.0267 229.728 43.36H196.048C196.315 46.88 197.622 49.7067 199.968 51.84C202.315 53.9733 205.195 55.04 208.608 55.04C213.515 55.04 216.982 52.9867 219.008 48.88H228.848C227.515 52.9333 225.088 56.2667 221.568 58.88C218.102 61.44 213.782 62.72 208.608 62.72C204.395 62.72 200.608 61.7867 197.248 59.92C193.942 58 191.328 55.3333 189.408 51.92C187.542 48.4533 186.608 44.4533 186.608 39.92C186.608 35.3867 187.515 31.4133 189.328 28C191.195 24.5333 193.782 21.8667 197.088 20C200.448 18.1333 204.288 17.2 208.608 17.2C212.768 17.2 216.475 18.1067 219.728 19.92C222.982 21.7333 225.515 24.2933 227.328 27.6C229.142 30.8533 230.048 34.6133 230.048 38.88ZM220.528 36C220.475 32.64 219.275 29.9467 216.928 27.92C214.582 25.8933 211.675 24.88 208.208 24.88C205.062 24.88 202.368 25.8933 200.128 27.92C197.888 29.8933 196.555 32.5867 196.128 36H220.528ZM53.8075 90.48C55.3542 88.3467 57.4608 86.6133 60.1275 85.28C62.8475 83.8933 65.8608 83.2 69.1675 83.2C73.0608 83.2 76.5808 84.1333 79.7275 86C82.8742 87.8667 85.3542 90.5333 87.1675 94C88.9808 97.4133 89.8875 101.333 89.8875 105.76C89.8875 110.187 88.9808 114.16 87.1675 117.68C85.3542 121.147 82.8475 123.867 79.6475 125.84C76.5008 127.76 73.0075 128.72 69.1675 128.72C65.7542 128.72 62.7142 128.053 60.0475 126.72C57.4342 125.387 55.3542 123.68 53.8075 121.6V128H44.6875V68.8H53.8075V90.48ZM80.6075 105.76C80.6075 102.72 79.9675 100.107 78.6875 97.92C77.4608 95.68 75.8075 94 73.7275 92.88C71.7008 91.7067 69.5142 91.12 67.1675 91.12C64.8742 91.12 62.6875 91.7067 60.6075 92.88C58.5808 94.0533 56.9275 95.76 55.6475 98C54.4208 100.24 53.8075 102.88 53.8075 105.92C53.8075 108.96 54.4208 111.627 55.6475 113.92C56.9275 116.16 58.5808 117.867 60.6075 119.04C62.6875 120.213 64.8742 120.8 67.1675 120.8C69.5142 120.8 71.7008 120.213 73.7275 119.04C75.8075 117.813 77.4608 116.053 78.6875 113.76C79.9675 111.467 80.6075 108.8 80.6075 105.76ZM95.8663 105.76C95.8663 101.333 96.7729 97.4133 98.5863 94C100.453 90.5867 102.96 87.9467 106.106 86.08C109.306 84.16 112.826 83.2 116.666 83.2C120.133 83.2 123.146 83.8933 125.706 85.28C128.32 86.6133 130.4 88.2933 131.946 90.32V83.92H141.146V128H131.946V121.44C130.4 123.52 128.293 125.253 125.626 126.64C122.96 128.027 119.92 128.72 116.506 128.72C112.72 128.72 109.253 127.76 106.106 125.84C102.96 123.867 100.453 121.147 98.5863 117.68C96.7729 114.16 95.8663 110.187 95.8663 105.76ZM131.946 105.92C131.946 102.88 131.306 100.24 130.026 98C128.8 95.76 127.173 94.0533 125.146 92.88C123.12 91.7067 120.933 91.12 118.586 91.12C116.24 91.12 114.053 91.7067 112.026 92.88C110 94 108.346 95.68 107.066 97.92C105.84 100.107 105.226 102.72 105.226 105.76C105.226 108.8 105.84 111.467 107.066 113.76C108.346 116.053 110 117.813 112.026 119.04C114.106 120.213 116.293 120.8 118.586 120.8C120.933 120.8 123.12 120.213 125.146 119.04C127.173 117.867 128.8 116.16 130.026 113.92C131.306 111.627 131.946 108.96 131.946 105.92ZM162.245 68.8V128H153.125V68.8H162.245ZM183.339 68.8V128H174.219V68.8H183.339Z" fill="url(#paint0_linear_1460_10636)" fill-opacity="0.8"/>
<defs>
<linearGradient id="paint0_linear_1460_10636" x1="-72" y1="67" x2="300" y2="67" gradientUnits="userSpaceOnUse">
<stop stop-color="#CA9BFF"/>
<stop offset="1" stop-color="#795D99"/>
</linearGradient>
</defs>
</svg>
