<svg width="34" height="34" viewBox="0 0 34 34" fill="none" xmlns="http://www.w3.org/2000/svg">
<circle cx="16.728" cy="16.728" r="16.728" fill="#A04DFE" fill-opacity="0.15"/>
<path d="M17.0697 25.2059C16.4583 25.2059 15.9629 24.7105 15.9629 24.0991V10.0228C15.9629 9.41141 16.4583 8.91602 17.0697 8.91602C17.681 8.91602 18.1764 9.41141 18.1764 10.0228V24.0991C18.1764 24.7105 17.681 25.2059 17.0697 25.2059Z" fill="#A04DFE"/>
<path d="M24.1079 18.1676H10.0316C9.4202 18.1676 8.9248 17.6723 8.9248 17.0609C8.9248 16.4495 9.4202 15.9541 10.0316 15.9541H24.1079C24.7193 15.9541 25.2147 16.4495 25.2147 17.0609C25.2147 17.6723 24.7193 18.1676 24.1079 18.1676Z" fill="#A04DFE"/>
</svg>
