<svg width="48" height="50" viewBox="0 0 48 50" fill="none" xmlns="http://www.w3.org/2000/svg">
<path d="M28.6577 44.7887H19.3512C17.6551 44.7887 16.2754 43.4116 16.2754 41.7186V36.473C16.2754 35.7449 16.8642 35.1572 17.5936 35.1572C18.323 35.1572 18.9118 35.7449 18.9118 36.473V41.7186C18.9118 41.9642 19.1051 42.1572 19.3512 42.1572H28.6577C28.9037 42.1572 29.0971 41.9642 29.0971 41.7186V40.8853C29.0971 40.1572 29.6859 39.5695 30.4153 39.5695C31.1447 39.5695 31.7335 40.1572 31.7335 40.8853V41.7186C31.7335 43.4116 30.3537 44.7887 28.6577 44.7887Z" fill="#212427"/>
<path d="M30.4155 37.7882H17.5938C16.8644 37.7882 16.2756 37.2005 16.2756 36.4724C16.2756 34.6567 15.4935 32.876 14.0698 31.4637C11.3895 28.8321 9.91309 25.3058 9.91309 21.5427C9.91309 17.4112 11.7234 13.5165 14.8871 10.8586C18.042 8.2007 22.2251 7.08667 26.3554 7.78842C32.4543 8.83227 37.0504 13.6656 37.7886 19.8147C38.3246 24.183 36.8307 28.4462 33.6934 31.5163C32.4543 32.7181 31.7337 34.4286 31.7337 36.2005V36.4637C31.7337 37.1917 31.1449 37.7794 30.4155 37.7794V37.7882ZM18.8153 35.1567H29.1588C29.396 33.0602 30.3539 31.0953 31.8567 29.6392C34.4052 27.1479 35.6092 23.6831 35.1785 20.1392C34.581 15.148 30.8636 11.2358 25.916 10.3937C22.559 9.81472 19.158 10.727 16.592 12.8761C14.0259 15.034 12.5495 18.2006 12.5495 21.5515C12.5495 24.6041 13.7446 27.4637 15.9241 29.6041C17.5147 31.183 18.5165 33.1216 18.8153 35.1654V35.1567Z" fill="#212427"/>
<path d="M23.9998 25.2715C23.2704 25.2715 22.6816 24.6838 22.6816 23.9557V15.6224C22.6816 14.8944 23.2704 14.3066 23.9998 14.3066C24.7292 14.3066 25.318 14.8944 25.318 15.6224V23.9557C25.318 24.6838 24.7292 25.2715 23.9998 25.2715Z" fill="#212427"/>
<path d="M23.9998 29.9832C23.6483 29.9832 23.3144 29.8428 23.0683 29.5972C23.0068 29.5446 22.9541 29.4744 22.9013 29.4042C22.8574 29.334 22.8135 29.2551 22.7783 29.1761C22.7519 29.0972 22.7256 29.0095 22.708 28.9305C22.6904 28.8428 22.6816 28.7551 22.6816 28.6674C22.6816 28.3253 22.8222 27.9832 23.0683 27.7376C23.5604 27.2463 24.4392 27.2463 24.9314 27.7376C25.1774 27.9832 25.318 28.3253 25.318 28.6674C25.318 28.7551 25.318 28.8428 25.2917 28.9305C25.2741 29.0095 25.2477 29.0972 25.2126 29.1761C25.1862 29.2551 25.1423 29.334 25.0983 29.4042C25.0456 29.4744 24.9929 29.5446 24.9314 29.5972C24.6853 29.8428 24.3426 29.9832 23.9998 29.9832Z" fill="#212427"/>
<path d="M24.0002 49.9998C20.2741 49.9998 17.1983 46.9735 17.1456 43.2542C17.1368 42.5262 17.7168 41.9297 18.4462 41.9209H18.4638C19.1844 41.9209 19.7732 42.4998 19.782 43.2191C19.8172 45.5086 21.7066 47.3682 24.0002 47.3682C26.2939 47.3682 28.1833 45.5086 28.2185 43.2191C28.2273 42.4998 28.86 41.9297 29.5455 41.9209C30.2661 41.9209 30.8549 42.5086 30.8549 43.2279C30.8021 46.9735 27.7263 49.9998 24.0002 49.9998Z" fill="#212427"/>
<path d="M23.9998 5.78066C23.2704 5.78066 22.6816 5.19295 22.6816 4.46488V1.31578C22.6816 0.587715 23.2704 0 23.9998 0C24.7292 0 25.318 0.587715 25.318 1.31578V4.46488C25.318 5.19295 24.7292 5.78066 23.9998 5.78066Z" fill="#FEA04D"/>
<path d="M10.1932 11.5005C9.85923 11.5005 9.51649 11.3689 9.26164 11.1145L7.02949 8.88646C6.511 8.36892 6.511 7.5356 7.02949 7.02683C7.54798 6.50929 8.38284 6.50929 8.89255 7.02683L11.1247 9.25488C11.6432 9.77242 11.6432 10.6058 11.1247 11.1145C10.8698 11.3689 10.5271 11.5005 10.1932 11.5005Z" fill="#FEA04D"/>
<path d="M4.47309 25.281H1.3182C0.588795 25.281 0 24.6933 0 23.9652C0 23.2371 0.588795 22.6494 1.3182 22.6494H4.47309C5.20249 22.6494 5.79128 23.2371 5.79128 23.9652C5.79128 24.6933 5.20249 25.281 4.47309 25.281Z" fill="#FEA04D"/>
<path d="M7.96102 41.2895C7.62708 41.2895 7.28435 41.158 7.02949 40.9036C6.511 40.386 6.511 39.5527 7.02949 39.0439L9.26164 36.8159C9.78013 36.2983 10.615 36.2983 11.1247 36.8159C11.6432 37.3334 11.6432 38.1668 11.1247 38.6755L8.89255 40.9036C8.6377 41.158 8.29496 41.2895 7.96102 41.2895Z" fill="#FEA04D"/>
<path d="M40.0379 41.2798C39.704 41.2798 39.3612 41.1482 39.1064 40.8938L36.8742 38.6658C36.3557 38.1482 36.3557 37.3149 36.8742 36.8061C37.3927 36.2886 38.2276 36.2886 38.7373 36.8061L40.9694 39.0342C41.4879 39.5517 41.4879 40.385 40.9694 40.8938C40.7146 41.1482 40.3718 41.2798 40.0379 41.2798Z" fill="#FEA04D"/>
<path d="M46.6821 25.2722H43.5272C42.7978 25.2722 42.209 24.6845 42.209 23.9564C42.209 23.2283 42.7978 22.6406 43.5272 22.6406H46.6821C47.4115 22.6406 48.0003 23.2283 48.0003 23.9564C48.0003 24.6845 47.4115 25.2722 46.6821 25.2722Z" fill="#FEA04D"/>
<path d="M37.8057 11.4897C37.4718 11.4897 37.1291 11.3582 36.8742 11.1038C36.3557 10.5862 36.3557 9.75291 36.8742 9.24414L39.1064 7.01608C39.6249 6.49854 40.4597 6.49854 40.9694 7.01608C41.4879 7.53363 41.4879 8.36695 40.9694 8.87572L38.7373 11.1038C38.4824 11.3582 38.1397 11.4897 37.8057 11.4897Z" fill="#FEA04D"/>
</svg>
