<svg width="11" height="10" viewBox="0 0 11 10" fill="none" xmlns="http://www.w3.org/2000/svg">
<path d="M0.175771 5.05537C0.36641 5.22867 0.557048 5.2832 0.933211 5.2832L5.05798 5.30306C5.0961 5.30306 5.12865 5.30306 5.14516 5.32272C5.16143 5.33751 5.16678 5.36731 5.16678 5.39711L5.18305 9.15186C5.18863 9.49361 5.24862 9.66691 5.43925 9.84021C5.69545 10.078 6.05511 10.0385 6.322 9.80069C6.46382 9.67177 6.5782 9.45895 6.68166 9.2607L10.8501 1.08779C11.068 0.671862 11.0408 0.364566 10.8176 0.161464C10.5993 -0.0365664 10.2615 -0.0612938 9.80395 0.136736L0.813248 3.92615C0.595176 4.0202 0.361063 4.12418 0.219246 4.2531C-0.0423005 4.49572 -0.0857753 4.8176 0.175771 5.05537Z" fill="#84B43F"/>
</svg>
