<svg width="278" height="72" viewBox="0 0 278 72" fill="none" xmlns="http://www.w3.org/2000/svg">
<path opacity="0.55" d="M16.6829 28.864V56.924C16.6829 58.8253 17.1122 60.2053 17.9709 61.064C18.8909 61.8613 20.4242 62.26 22.5709 62.26H29.0109V71H20.7309C16.0082 71 12.3895 69.896 9.87488 67.688C7.36021 65.48 6.10288 61.892 6.10288 56.924V28.864H0.122875V20.308H6.10288V7.704H16.6829V20.308H29.0109V28.864H16.6829ZM85.1373 44.412C85.1373 46.3133 85.0147 48.0307 84.7693 49.564H46.0373C46.344 53.612 47.8467 56.8627 50.5453 59.316C53.244 61.7693 56.556 62.996 60.4813 62.996C66.124 62.996 70.1107 60.6347 72.4413 55.912H83.7573C82.224 60.5733 79.4333 64.4067 75.3853 67.412C71.3987 70.356 66.4307 71.828 60.4813 71.828C55.636 71.828 51.2813 70.7547 47.4173 68.608C43.6147 66.4 40.6093 63.3333 38.4013 59.408C36.2547 55.4213 35.1813 50.8213 35.1813 45.608C35.1813 40.3947 36.224 35.8253 38.3093 31.9C40.456 27.9133 43.4307 24.8467 47.2333 22.7C51.0973 20.5533 55.5133 19.48 60.4813 19.48C65.2653 19.48 69.528 20.5227 73.2693 22.608C77.0107 24.6933 79.924 27.6373 82.0093 31.44C84.0947 35.1813 85.1373 39.5053 85.1373 44.412ZM74.1893 41.1C74.128 37.236 72.748 34.1387 70.0493 31.808C67.3507 29.4773 64.008 28.312 60.0213 28.312C56.4027 28.312 53.3053 29.4773 50.7293 31.808C48.1533 34.0773 46.62 37.1747 46.1293 41.1H74.1893ZM121.035 19.48C125.021 19.48 128.579 20.308 131.707 21.964C134.896 23.62 137.38 26.0733 139.159 29.324C140.937 32.5747 141.827 36.5 141.827 41.1V71H131.431V42.664C131.431 38.1253 130.296 34.66 128.027 32.268C125.757 29.8147 122.66 28.588 118.735 28.588C114.809 28.588 111.681 29.8147 109.351 32.268C107.081 34.66 105.947 38.1253 105.947 42.664V71H95.4586V20.308H105.947V26.104C107.664 24.0187 109.841 22.3933 112.479 21.228C115.177 20.0627 118.029 19.48 121.035 19.48ZM180.781 19.48C184.767 19.48 188.325 20.308 191.453 21.964C194.642 23.62 197.126 26.0733 198.905 29.324C200.683 32.5747 201.573 36.5 201.573 41.1V71H191.177V42.664C191.177 38.1253 190.042 34.66 187.773 32.268C185.503 29.8147 182.406 28.588 178.481 28.588C174.555 28.588 171.427 29.8147 169.097 32.268C166.827 34.66 165.693 38.1253 165.693 42.664V71H155.205V20.308H165.693V26.104C167.41 24.0187 169.587 22.3933 172.225 21.228C174.923 20.0627 177.775 19.48 180.781 19.48ZM220.287 13.592C218.385 13.592 216.791 12.948 215.503 11.66C214.215 10.372 213.571 8.77733 213.571 6.876C213.571 4.97466 214.215 3.38 215.503 2.092C216.791 0.803997 218.385 0.159996 220.287 0.159996C222.127 0.159996 223.691 0.803997 224.979 2.092C226.267 3.38 226.911 4.97466 226.911 6.876C226.911 8.77733 226.267 10.372 224.979 11.66C223.691 12.948 222.127 13.592 220.287 13.592ZM225.439 20.308V71H214.951V20.308H225.439ZM257.609 71.828C253.622 71.828 250.034 71.1227 246.845 69.712C243.717 68.24 241.233 66.2773 239.393 63.824C237.553 61.3093 236.571 58.5187 236.449 55.452H247.305C247.489 57.5987 248.501 59.408 250.341 60.88C252.242 62.2907 254.603 62.996 257.425 62.996C260.369 62.996 262.638 62.444 264.233 61.34C265.889 60.1747 266.717 58.7027 266.717 56.924C266.717 55.0227 265.797 53.612 263.957 52.692C262.178 51.772 259.326 50.76 255.401 49.656C251.598 48.6133 248.501 47.6013 246.109 46.62C243.717 45.6387 241.631 44.136 239.853 42.112C238.135 40.088 237.277 37.42 237.277 34.108C237.277 31.4093 238.074 28.956 239.669 26.748C241.263 24.4787 243.533 22.7 246.477 21.412C249.482 20.124 252.917 19.48 256.781 19.48C262.546 19.48 267.177 20.952 270.673 23.896C274.23 26.7787 276.131 30.7347 276.377 35.764H265.889C265.705 33.4947 264.785 31.6853 263.129 30.336C261.473 28.9867 259.234 28.312 256.413 28.312C253.653 28.312 251.537 28.8333 250.065 29.876C248.593 30.9187 247.857 32.2987 247.857 34.016C247.857 35.3653 248.347 36.5 249.329 37.42C250.31 38.34 251.506 39.076 252.917 39.628C254.327 40.1187 256.413 40.7627 259.173 41.56C262.853 42.5413 265.858 43.5533 268.189 44.596C270.581 45.5773 272.635 47.0493 274.353 49.012C276.07 50.9747 276.959 53.5813 277.021 56.832C277.021 59.7147 276.223 62.2907 274.629 64.56C273.034 66.8293 270.765 68.608 267.821 69.896C264.938 71.184 261.534 71.828 257.609 71.828Z" fill="url(#paint0_linear_1478_10802)"/>
<defs>
<linearGradient id="paint0_linear_1478_10802" x1="-56" y1="39" x2="335" y2="39" gradientUnits="userSpaceOnUse">
<stop stop-color="#E3FDC5"/>
<stop offset="1" stop-color="#879776" stop-opacity="0.25"/>
</linearGradient>
</defs>
</svg>
